<?xml version="1.0" encoding="UTF-8" standalone="no"?>
<svg width="740px" height="534px" viewBox="0 0 740 534" version="1.1" xmlns="http://www.w3.org/2000/svg" xmlns:xlink="http://www.w3.org/1999/xlink" style="background: #FFFFFF;">
    <!-- Generator: Sketch 39.1 (31720) - http://www.bohemiancoding.com/sketch -->
    <title>average-backend</title>
    <desc>Created with Sketch.</desc>
    <defs>
        <polygon id="path-1" points="0.0120264317 0.108503401 0.0120264317 24.462559 23.3996278 24.462559 23.3996278 0.108503401 0.0120264317 0.108503401"></polygon>
        <rect id="path-3" x="0" y="9" width="607" height="61"></rect>
        <mask id="mask-4" maskContentUnits="userSpaceOnUse" maskUnits="objectBoundingBox" x="0" y="0" width="607" height="61" fill="white">
            <use xlink:href="#path-3"></use>
        </mask>
    </defs>
    <g id="What-backend-languages-should-I-learn-next?" stroke="none" stroke-width="1" fill="none" fill-rule="evenodd">
        <g id="average-backend">
            <text id="*All-numbers-are-bas" font-family="ProximaNova-Regular, Proxima Nova" font-size="16" font-weight="normal" fill="#757575">
                <tspan x="109" y="452.4">*All numbers are based on Honeypot data and should be seen as a guide only.</tspan>
                <tspan x="109" y="472.4">** Other languages include Go, Elixir, Javascript (Node JS), Perl etc.</tspan>
                <tspan x="109" y="492.4"></tspan>
            </text>
            <text id="Average-Backend-Deve" font-family="ProximaNova-Semibold, Proxima Nova" font-size="30" font-weight="500" fill="#525252">
                <tspan x="56.42" y="55">Average Backend Developer Salaries in Berlin*</tspan>
            </text>
            <g id="Logo2_EPS" transform="translate(583.600000, 494.600000)">
                <g id="Group-3" transform="translate(0.000000, 4.537415)">
                    <mask id="mask-2" fill="white">
                        <use xlink:href="#path-1"></use>
                    </mask>
                    <g id="Clip-2"></g>
                    <path d="M23.3775793,12.007381 C23.2398767,10.0576735 22.7826718,8.19654422 22.0622885,6.46778912 C21.8714692,6.00990476 21.6686233,5.55813605 21.4415242,5.11997959 C22.246293,4.65085034 22.7874824,3.79012245 22.7874824,2.8027415 C22.7874824,1.31486395 21.561989,0.108503401 20.0500661,0.108503401 L3.35176652,0.108503401 C1.84004405,0.108503401 0.61435022,1.31486395 0.61435022,2.8027415 C0.61435022,3.78933333 1.15473789,4.64946939 1.95850441,5.1189932 C1.73140529,5.55695238 1.52875991,6.00852381 1.33794053,6.46621088 C0.617156388,8.19536054 0.159751101,10.0570816 0.0218480176,12.0071837 C0.0114251101,12.2391837 0,12.4711837 0,12.7057483 C0,14.391102 0.278612335,16.011551 0.785726872,17.5300068 C0.936859031,17.9573129 1.22769824,18.6933605 1.58388106,19.1847823 C1.62276652,19.2352857 1.65944714,19.2844082 1.70394493,19.3374762 C1.70915639,19.3435918 1.71436784,19.3504966 1.7195793,19.3566122 C1.87752643,19.5434354 2.06914758,19.7436735 2.29965419,19.9421361 C2.53236564,20.1409932 2.80175771,20.3396531 3.10843172,20.5055646 C3.41169824,20.6708844 3.76527533,20.8042449 4.11424229,20.8486327 C4.47964537,20.9001224 4.86489207,20.8383741 5.15913877,20.6351769 C5.4589978,20.4371088 5.67346916,20.0900952 5.79754185,19.698102 C6.0450859,18.9034626 6.01762555,18.0032789 5.94185903,17.1891088 C5.85887665,16.3682313 5.70774449,15.605551 5.55781498,14.9572925 C5.25314537,13.6601837 4.95428855,12.8178027 4.95428855,12.8178027 C4.95428855,12.8178027 5.31127313,13.6367075 5.70854626,14.9178367 C5.90497797,15.5587959 6.11143172,16.3157551 6.25494714,17.1480748 C6.38763877,17.9790136 6.49467401,18.8943878 6.27839868,19.8298844 C6.16735463,20.2895442 5.93584581,20.7744558 5.51411894,21.1019388 C5.09199119,21.4351429 4.56423128,21.5383197 4.09038987,21.5495646 C3.59149339,21.5529184 3.14851982,21.4408639 2.746837,21.2903401 C2.69792952,21.2717959 2.65623789,21.2477279 2.60853304,21.228 C3.34314758,22.3183605 4.21787004,23.3069252 5.20143172,24.1796871 C5.72618502,24.4635714 6.58106388,24.6734762 7.71335242,24.0946599 C9.68789207,23.0855782 11.6624317,22.9735238 11.6624317,22.9735238 C11.6624317,22.9735238 13.6367709,23.0855782 15.6113106,24.0946599 C16.937826,24.7727075 17.8839053,24.3690748 18.3631586,24.0311361 C19.2763656,23.1970408 20.0929604,22.2625306 20.7848811,21.2370748 C20.7405837,21.2554218 20.7016982,21.2779116 20.6561982,21.2952721 C20.2545154,21.4457959 19.8115419,21.5578503 19.3126454,21.5544966 C18.838804,21.5430544 18.3110441,21.4400748 17.8889163,21.1068707 C17.4671894,20.7791905 17.2356806,20.2944762 17.1246366,19.8348163 C16.9083612,18.8991224 17.015196,17.9839456 17.1480881,17.1530068 C17.2916035,16.3204898 17.4980573,15.5637279 17.694489,14.9227687 C18.0917621,13.6414422 18.4487467,12.8225374 18.4487467,12.8225374 C18.4487467,12.8225374 18.1498899,13.6649184 17.8452203,14.9622245 C17.6952907,15.6102857 17.5441586,16.3731633 17.4611762,17.1940408 C17.3854097,18.0082109 17.3579493,18.9083946 17.6054934,19.7028367 C17.7295661,20.0950272 17.9440374,20.4418435 18.2438965,20.6401088 C18.5381432,20.8433061 18.9235903,20.9050544 19.288793,20.8533673 C19.6377599,20.8091769 19.991337,20.675619 20.2946035,20.5104966 C20.6012775,20.3443878 20.8706696,20.1457279 21.1033811,19.947068 C21.4164692,19.6773878 21.6535903,19.4073129 21.8355903,19.1688027 C22.1196145,18.7710884 22.3609449,18.2218639 22.5220991,17.8014626 C23.0889449,16.2058707 23.3996278,14.4917143 23.3996278,12.7057483 C23.3996278,12.4711837 23.3882026,12.239381 23.3775793,12.007381" id="Fill-1" fill="#F6C823" mask="url(#mask-2)"></path>
                </g>
                <path d="M9.24511894,9.26480952 C9.24511894,10.6226803 8.12686123,11.7234966 6.74722907,11.7234966 C5.36759692,11.7234966 4.24913877,10.6226803 4.24913877,9.26480952 C4.24913877,7.90693878 5.36759692,6.80612245 6.74722907,6.80612245 C8.12686123,6.80612245 9.24511894,7.90693878 9.24511894,9.26480952" id="Fill-4" fill="#FFFFFF"></path>
                <path d="M3.35176652,5.98859864 C2.59329956,5.98859864 1.97854846,6.59365306 1.97854846,7.34015646 C1.97854846,7.82427891 2.23932159,8.24586395 2.62797577,8.48457143 C3.10322026,7.71636735 3.6335859,6.98505442 4.21686784,6.29832653 C3.98014758,6.1077551 3.68149119,5.98859864 3.35176652,5.98859864" id="Fill-5" fill="#25282C"></path>
                <path d="M20.0500661,5.98859864 C19.7197401,5.98859864 19.4206828,6.10814966 19.1837621,6.2995102 C19.7668436,6.9862381 20.2970088,7.71735374 20.7722533,8.48555782 C21.1619097,8.24704762 21.4234846,7.82506803 21.4234846,7.34015646 C21.4234846,6.59365306 20.808533,5.98859864 20.0500661,5.98859864" id="Fill-6" fill="#25282C"></path>
                <path d="M6.74722907,8.17070068 C6.67005947,8.17070068 6.59489427,8.17839456 6.5223348,8.19319048 C6.5668326,8.27663946 6.59248899,8.37153061 6.59248899,8.47234014 C6.59248899,8.80396599 6.31928855,9.07285714 5.98214758,9.07285714 C5.86909912,9.07285714 5.76346696,9.04208163 5.67246696,8.98921088 C5.64921586,9.07739456 5.6355859,9.16932653 5.6355859,9.26480952 C5.6355859,9.86907483 6.13327974,10.3589184 6.74722907,10.3589184 C7.36117841,10.3589184 7.85887225,9.86907483 7.85887225,9.26480952 C7.85887225,8.66054422 7.36117841,8.17070068 6.74722907,8.17070068" id="Fill-7" fill="#25282C"></path>
                <path d="M19.1502885,9.26480952 C19.1502885,10.6226803 18.0320308,11.7234966 16.6523987,11.7234966 C15.2727665,11.7234966 14.1543084,10.6226803 14.1543084,9.26480952 C14.1543084,7.90693878 15.2727665,6.80612245 16.6523987,6.80612245 C18.0320308,6.80612245 19.1502885,7.90693878 19.1502885,9.26480952" id="Fill-8" fill="#FFFFFF"></path>
                <path d="M16.6523987,8.17070068 C16.5752291,8.17070068 16.5000639,8.17839456 16.4275044,8.19319048 C16.4722026,8.27663946 16.4976586,8.37153061 16.4976586,8.47234014 C16.4976586,8.80396599 16.2244581,9.07285714 15.8873172,9.07285714 C15.7742687,9.07285714 15.6686366,9.04208163 15.5776366,8.98921088 C15.5543855,9.07739456 15.5407555,9.16932653 15.5407555,9.26480952 C15.5407555,9.86907483 16.0384493,10.3589184 16.6523987,10.3589184 C17.266348,10.3589184 17.7640419,9.86907483 17.7640419,9.26480952 C17.7640419,8.66054422 17.266348,8.17070068 16.6523987,8.17070068" id="Fill-9" fill="#25282C"></path>
                <path d="M15.058696,14.0123265 C15.058696,15.8584626 13.5381542,17.3552177 11.6624317,17.3552177 C9.78650881,17.3552177 8.26596696,15.8584626 8.26596696,14.0123265 C8.26596696,12.1659932 9.78650881,10.6694354 11.6624317,10.6694354 C13.5381542,10.6694354 15.058696,12.1659932 15.058696,14.0123265" id="Fill-10" fill="#FFFFFF"></path>
                <path d="M13.4245044,12.1869048 C13.4245044,12.1407415 13.415685,12.0971429 13.4028568,12.0549252 C13.3974449,12.0342109 13.3930352,12.0219796 13.3930352,12.0219796 L13.3926344,12.0219796 C13.3765991,11.9809456 13.355152,11.9428707 13.3286938,11.9083469 L13.3288943,11.9079524 C13.3288943,11.9079524 13.1294559,11.5029388 11.6824758,11.4991905 L11.6824758,11.4987959 C11.6788678,11.4987959 11.6758612,11.4989932 11.6724537,11.4989932 C11.6688458,11.4989932 11.6658392,11.4987959 11.6624317,11.4987959 L11.6624317,11.4991905 C10.8205815,11.5013605 10.4018612,11.6388639 10.1984141,11.7540748 C10.0755441,11.8026054 9.97913216,11.9000612 9.93202863,12.0219796 L9.93142731,12.0219796 C9.93142731,12.0219796 9.92621586,12.036381 9.9200022,12.060449 C9.90837665,12.1008912 9.90015859,12.1427143 9.90015859,12.1869048 C9.90015859,12.1908503 9.90116079,12.1945986 9.90136123,12.1985442 C9.89274229,12.4086463 9.96269604,12.7785442 10.4465595,13.1579116 C10.8887313,13.5045306 11.2336894,13.6333537 11.4419471,13.6822789 L11.4419471,17.3441701 C11.5151079,17.3487075 11.5878678,17.3552177 11.6622313,17.3552177 C11.7365947,17.3552177 11.8095551,17.3487075 11.8827159,17.3441701 L11.8827159,13.6822789 C12.0909736,13.6331565 12.4359317,13.5043333 12.8777026,13.1579116 C13.3595617,12.7801224 13.4309185,12.4116054 13.4231013,12.2011088 C13.4233018,12.1963741 13.4245044,12.1918367 13.4245044,12.1869048" id="Fill-11" fill="#25282C"></path>
                <path d="M6.1974207,3.92880952 L17.1514956,3.92880952 C15.8398128,3.04105442 14.2992269,2.45789796 12.6301586,2.29652381 L13.3008326,0.499312925 C13.3008326,0.499312925 12.8738943,0.149142857 11.6744581,0.149142857 C10.475022,0.149142857 10.0480837,0.499312925 10.0480837,0.499312925 L10.7187577,2.29652381 C9.04968943,2.45770068 7.50910352,3.04105442 6.1974207,3.92880952" id="Fill-12" fill="#F6C823"></path>
                <path d="M1.84365198,22.6083605 C1.84365198,22.6083605 1.66205286,22.3761633 1.46221366,21.983381 C1.26117181,21.5923741 1.05712335,21.0397959 0.926837004,20.4714354 C0.794546256,19.9032721 0.731407489,19.3234694 0.718579295,18.8880748 C0.707154185,18.4520884 0.734814978,18.161102 0.734814978,18.161102 C0.734814978,18.161102 0.756662996,18.2315306 0.786528634,18.3548299 C0.815592511,18.477932 0.857284141,18.6537075 0.906993392,18.8647959 C1.00280396,19.2859864 1.11785683,19.8452721 1.24894493,20.399034 C1.37381938,20.9541769 1.51873789,21.5035986 1.63840088,21.9161088 C1.69913436,22.1232517 1.74984581,22.2956735 1.78532379,22.4164082 C1.82501101,22.5375374 1.84365198,22.6083605 1.84365198,22.6083605" id="Fill-13" fill="#FFFFFF"></path>
                <path d="M18.7824802,19.0979796 C18.7824802,19.0979796 18.7774692,19.293483 18.7466013,19.5771701 C18.7139295,19.8606599 18.6501894,20.2311497 18.5738216,20.5980884 C18.4944471,20.9644354 18.403848,21.3282177 18.3220683,21.6012517 C18.284185,21.7381633 18.238685,21.8510068 18.2156344,21.9314966 C18.1887753,22.0113946 18.1689317,22.056966 18.1689317,22.056966 C18.1689317,22.056966 18.1366608,21.8638299 18.1342555,21.5750136 C18.1330529,21.2867891 18.1715374,20.9050544 18.250511,20.5316054 C18.3304868,20.1583537 18.4497489,19.7945714 18.5637996,19.5298231 C18.6796542,19.2652721 18.7824802,19.0979796 18.7824802,19.0979796" id="Fill-14" fill="#FFFFFF"></path>
                <path d="M3.30807048,4.97320408 C3.30807048,4.97320408 3.10362115,5.05014286 2.83723568,5.20757143 C2.70294053,5.28391837 2.55341189,5.3799932 2.40388326,5.49342857 C2.25315198,5.60528571 2.10502643,5.7382517 1.96872687,5.88147619 C1.82821806,6.02193878 1.71055947,6.18114286 1.59771145,6.33166667 C1.49628855,6.48929252 1.39787225,6.6372517 1.32631498,6.77396599 C1.24573789,6.90634014 1.1894141,7.02431293 1.14812335,7.10717007 C1.10562996,7.18943537 1.07656608,7.23658503 1.07656608,7.23658503 C1.07656608,7.23658503 1.07696696,7.18331973 1.08618722,7.09020408 C1.10061894,6.99886395 1.10001762,6.85997959 1.14952643,6.70570748 C1.18420264,6.54610884 1.25676211,6.36934694 1.34796256,6.18429932 C1.44677974,6.003 1.575663,5.82130612 1.72819824,5.65855102 C2.03868062,5.336 2.4431696,5.11563946 2.76467621,5.03593878 C3.0865837,4.94953061 3.30807048,4.97320408 3.30807048,4.97320408" id="Fill-15" fill="#FFFFFF"></path>
                <g id="Group" transform="translate(30.200000, 7.000000)" fill="#25282C">
                    <path d="M26.769634,14.0283872 C26.0384958,14.7459969 25.1409607,15.1037546 24.0781092,15.1037546 C23.0314651,15.1037546 22.1422138,14.7459969 21.4110757,14.0283872 C20.6799375,13.3128718 20.3147286,12.3903804 20.3147286,11.2633564 C20.3147286,10.1516897 20.6799375,9.23513187 21.4110757,8.50984354 C22.1422138,7.78525327 23.0314651,7.42260911 24.0781092,7.42260911 C25.1251134,7.42260911 26.0176062,7.78525327 26.7573883,8.50984354 C27.4964501,9.23513187 27.8663412,10.1516897 27.8663412,11.2633564 C27.8663412,12.3903804 27.5007721,13.3128718 26.769634,14.0283872 L26.769634,14.0283872 Z M24.0781092,4.8146426 C22.1170022,4.8146426 20.4681596,5.4226562 19.1308611,6.63763632 C17.7928423,7.85366353 17.1243731,9.39533752 17.1243731,11.2633564 C17.1243731,13.1313752 17.7928423,14.6727002 19.1308611,15.8887274 C20.4681596,17.1047546 22.1170022,17.7127682 24.0781092,17.7127682 C26.0554237,17.7127682 27.7125501,17.1047546 29.0502087,15.8887274 C30.3875072,14.6727002 31.0563366,13.1313752 31.0563366,11.2633564 C31.0563366,9.39533752 30.3835454,7.85366353 29.0379631,6.63763632 C27.6920206,5.4226562 26.0384958,4.8146426 24.0781092,4.8146426 L24.0781092,4.8146426 Z" id="Fill-16"></path>
                    <path d="M52.0169507,9.66897855 C52.1995552,8.89691994 52.5604421,8.28890633 53.1006919,7.84598482 C53.6402215,7.40306332 54.3176948,7.18142805 55.1320314,7.18142805 C55.7965388,7.18142805 56.3573181,7.4149304 56.8147297,7.88228414 C57.2710607,8.34928885 57.5080503,8.94473731 57.524618,9.66897855 L52.0169507,9.66897855 L52.0169507,9.66897855 Z M55.1320314,4.8146426 C53.2213477,4.8146426 51.6679493,5.4149775 50.4714759,6.61425118 C49.2750026,7.81387389 48.6767659,9.36392465 48.6767659,11.2633564 C48.6767659,13.0668043 49.3041761,14.5924228 50.5589964,15.84091 C51.8130964,17.088001 53.4622992,17.7127682 55.5058843,17.7127682 C56.104121,17.7127682 56.690112,17.6433108 57.263137,17.5064903 C57.8365222,17.3703679 58.3054591,17.2209822 58.6713884,17.0597295 C59.0365973,16.8995238 59.3895605,16.7134898 59.7306383,16.5044197 C60.071716,16.2953496 60.2914176,16.146662 60.3904634,16.0576588 C60.4913101,15.9697028 60.5658645,15.9005945 60.6141269,15.852428 L59.2948367,13.7264746 L58.8449886,14.0646866 C58.562618,14.2905102 58.1228547,14.5201732 57.524618,14.7536756 C56.9267415,14.9875269 56.3285048,15.1037546 55.7302681,15.1037546 C54.733327,15.1037546 53.8772111,14.81336 53.1633609,14.233618 C52.4487904,13.654225 52.0331582,12.8420277 51.9171846,11.794932 L60.6908423,11.794932 L60.7653968,10.6591821 C60.7653968,8.96916954 60.2672864,7.5723438 59.2685445,6.46870487 C58.272684,5.36611303 56.893246,4.8146426 55.1320314,4.8146426 L55.1320314,4.8146426 Z" id="Fill-17"></path>
                    <path d="M86.111039,14.1009859 C85.4958745,14.7861355 84.7312409,15.1281868 83.8185788,15.1281868 C82.8209174,15.1281868 82.0483601,14.7536756 81.5005467,14.0050021 C80.952013,13.2563286 80.6775661,12.3666463 80.6775661,11.335606 C80.6775661,10.0483762 80.9851483,9.07771847 81.5995925,8.42572684 C82.214757,7.77373522 82.9703865,7.44704134 83.8679216,7.44704134 C84.8151597,7.44704134 85.5787128,7.8020068 86.160742,8.50984354 C86.7427712,9.21837834 87.0330655,10.1516897 87.0330655,11.3122208 C87.0330655,12.4870623 86.7254832,13.4165343 86.111039,14.1009859 L86.111039,14.1009859 Z M84.5659244,4.8146426 C84.0173907,4.8146426 83.4976704,4.88724123 83.0074837,5.03174045 C82.5172969,5.1765887 82.1358805,5.33400209 81.8617938,5.50293354 C81.5873468,5.67221402 81.3341497,5.86941706 81.101122,6.09419362 C80.8680942,6.32001727 80.7229471,6.47743066 80.6653204,6.56538671 C80.6069734,6.65438985 80.5615924,6.7228001 80.528097,6.77061748 L80.4776736,6.77061748 L80.4776736,6.28790633 C80.4776736,5.49909419 79.9464279,5.10399006 78.8832162,5.10399006 L73.1014622,5.10399006 C72.2370624,5.10399006 71.6723212,5.49141549 71.4068784,6.2634741 L71.3352053,6.46661068 L68.8151198,13.5680141 L65.8239364,6.2634741 C65.6575394,5.84498482 65.4497233,5.54691156 65.200488,5.36995238 C64.9516129,5.1929932 64.6026115,5.10399006 64.1534838,5.10399006 L61.7097536,5.10399006 L67.3441995,17.3979414 L66.9202834,18.3403276 C66.4715159,19.3870743 65.773513,19.9099241 64.826275,19.9099241 C64.1282721,19.9099241 63.5221118,19.6286044 63.0067134,19.0645688 L61.7864691,21.2383396 L62.1596016,21.5521193 C62.3926294,21.7615385 62.7747661,21.9706086 63.306372,22.1807258 C63.8379779,22.3897959 64.4027191,22.4945055 65.0009557,22.4945055 C65.9986172,22.4945055 66.9033556,22.2247038 67.7184125,21.6851005 C68.5313085,21.1454971 69.1547568,20.3448179 69.5873169,19.2823647 L74.1484664,8.14789744 C74.26444,7.85785191 74.5053915,7.71300366 74.8706004,7.71300366 L77.0636547,7.71300366 C77.4285034,7.71300366 77.6121884,7.88996285 77.6121884,8.24388121 L77.6121884,22.2529754 L80.7521206,22.2529754 L80.7521206,17.1564113 C80.7521206,16.7382711 80.7359131,16.3833056 80.7027777,16.0939581 L80.7521206,16.0939581 L81.101122,16.5044197 C81.3341497,16.7623543 81.7526633,17.0283166 82.3599042,17.3012595 C82.9660645,17.5749006 83.643898,17.7127682 84.3916038,17.7127682 C86.0858274,17.7127682 87.481833,17.120112 88.5785402,15.9365447 C89.6748873,14.7536756 90.223421,13.1955971 90.223421,11.2633564 C90.223421,9.34752015 89.7080226,7.793281 88.6783064,6.60168603 C87.6475096,5.41009105 86.2767157,4.8146426 84.5659244,4.8146426 L84.5659244,4.8146426 Z" id="Fill-18"></path>
                    <path d="M101.46386,14.0283872 C100.732721,14.7459969 99.8359067,15.1037546 98.7730551,15.1037546 C97.7260509,15.1037546 96.8364395,14.7459969 96.1060216,14.0283872 C95.3748835,13.3128718 95.0085941,12.3903804 95.0085941,11.2633564 C95.0085941,10.1516897 95.3748835,9.23513187 96.1060216,8.50984354 C96.8364395,7.78525327 97.7260509,7.42260911 98.7730551,7.42260911 C99.8189789,7.42260911 100.712552,7.78525327 101.451974,8.50984354 C102.191396,9.23513187 102.560567,10.1516897 102.560567,11.2633564 C102.560567,12.3903804 102.195358,13.3128718 101.46386,14.0283872 L101.46386,14.0283872 Z M98.7730551,4.8146426 C96.8119481,4.8146426 95.1631056,5.4226562 93.8254469,6.63763632 C92.4877882,7.85366353 91.8193191,9.39533752 91.8193191,11.2633564 C91.8193191,13.1313752 92.4877882,14.6727002 93.8254469,15.8887274 C95.1631056,17.1047546 96.8119481,17.7127682 98.7730551,17.7127682 C100.750009,17.7127682 102.407136,17.1047546 103.744795,15.8887274 C105.082093,14.6727002 105.750922,13.1313752 105.750922,11.2633564 C105.750922,9.39533752 105.078131,7.85366353 103.732549,6.63763632 C102.385886,5.4226562 100.732721,4.8146426 98.7730551,4.8146426 L98.7730551,4.8146426 Z" id="Fill-19"></path>
                    <path d="M114.348819,14.8377923 C113.717087,14.8377923 113.14046,14.6727002 112.616778,14.343214 C112.093456,14.0130298 111.830894,13.4050162 111.830894,12.5191732 L111.830894,7.54407221 L114.723032,7.54407221 L114.723032,5.10399006 L111.830894,5.10399006 L111.830894,1.74735008 L108.740665,1.74735008 L108.740665,5.10399006 L107.02087,5.10399006 L107.02087,7.54407221 L108.66575,7.54407221 L108.66575,12.9055515 C108.66575,13.6950617 108.79505,14.3833527 109.052209,14.9707734 C109.309368,15.5592412 109.625955,16.0098414 109.999447,16.3236211 C110.37366,16.6374008 110.817386,16.890449 111.332784,17.0841617 C111.848182,17.2775254 112.305234,17.4028278 112.703578,17.4583239 C113.103003,17.5152161 113.517554,17.5434877 113.950114,17.5434877 C114.331531,17.5434877 114.656401,17.5190555 114.921484,17.470191 L114.921484,14.7899749 L114.348819,14.8377923" id="Fill-20"></path>
                    <path d="M11.4074491,1.91663056 L11.4074491,7.54407221 L3.60624105,7.54407221 L3.60624105,1.91663056 C3.60624105,1.35259498 3.47333959,0.938294087 3.20789682,0.672331763 C2.94173372,0.40636944 2.509894,0.273388278 1.91165732,0.273388278 L0.34133105,0.273388278 L0.34133105,17.4223736 L3.60624105,17.4223736 L3.60624105,10.2249864 L11.4074491,10.2249864 L11.4074491,17.4223736 L14.6723591,17.4223736 L14.6723591,0.273388278 L13.102393,0.273388278 C11.9721903,0.273388278 11.4074491,0.821717425 11.4074491,1.91663056" id="Fill-21"></path>
                    <path d="M41.4493032,4.8146426 C40.302893,4.8146426 39.3556549,5.07187912 38.607589,5.58705024 C37.8602433,6.10326845 37.3120698,6.69836787 36.9630684,7.37479173 L36.9133654,7.37479173 L36.9630684,6.84321612 L36.9630684,6.48127002 C36.9630684,5.5636651 36.4062509,5.10399006 35.2933361,5.10399006 L33.9225422,5.10399006 L33.9225422,17.4223736 L37.0628345,17.4223736 L37.0628345,11.7704997 C37.0628345,11.1586468 37.1456728,10.6113647 37.3120698,10.1283046 C37.5447374,9.37195238 37.9636111,8.76393878 38.5704918,8.30426374 C39.1770123,7.84598482 39.8951845,7.61632182 40.7264489,7.61632182 C41.4745149,7.61632182 41.9935149,7.83027839 42.2841694,8.25644636 C42.5748238,8.68261434 42.7206913,9.30738148 42.7206913,10.1283046 L42.7206913,15.7801784 C42.7206913,16.3599205 42.8532326,16.7780607 43.1190355,17.0363443 C43.3848384,17.2932318 43.8170383,17.4223736 44.415275,17.4223736 L45.8858351,17.4223736 L45.8858351,9.49969806 C45.8858351,6.37690947 44.406631,4.8146426 41.4493032,4.8146426" id="Fill-22"></path>
                </g>
            </g>
            <g id="Group-6" transform="translate(77.000000, 102.600000)">
                <use id="Rectangle" stroke="#C7CED9" mask="url(#mask-4)" stroke-width="2" xlink:href="#path-3"></use>
                <text id="The-average-salary-o" font-family="ProximaNova-Regular, Proxima Nova" font-size="16" font-weight="normal" fill="#757575">
                    <tspan x="303.7" y="15.1999999"></tspan>
                    <tspan x="121.156" y="35.1999999">The average salary of a backend developer in Berlin </tspan>
                    <tspan x="186.1" y="55.1999999">falls between €49,711 and €58,118</tspan>
                    <tspan x="303.7" y="75.1999999"></tspan>
                </text>
            </g>
            <g id="Group-2" transform="translate(603.200000, 294.000000)">
                <path d="M11.6843174,3.786387 C14.1559336,6.20990315 14.1559336,10.1392771 11.6843174,12.5627932 C9.21270117,14.9863094 5.20532812,14.9863094 2.73371191,12.5627932 C0.262095698,10.1392771 0.262095698,6.20990315 2.73371191,3.786387 C5.20532812,1.36287084 9.21270117,1.36287084 11.6843174,3.786387 L11.6843174,3.786387 Z" id="Fill-46" fill="#2D73BC"></path>
                <text id="Min" font-family="ProximaNova-Regular, Proxima Nova" font-size="12.0849609" font-weight="normal" fill="#525252">
                    <tspan x="21.7799998" y="11.8749999">Min</tspan>
                </text>
                <path d="M11.6843174,23.473887 C14.1559336,25.8974032 14.1559336,29.8267771 11.6843174,32.2502932 C9.21270117,34.6738094 5.20532812,34.6738094 2.73371191,32.2502932 C0.262095698,29.8267771 0.262095698,25.8974032 2.73371191,23.473887 C5.20532812,21.0503708 9.21270117,21.0503708 11.6843174,23.473887 L11.6843174,23.473887 Z" id="Fill-49" fill="#3F459A"></path>
                <text id="Max" font-family="ProximaNova-Regular, Proxima Nova" font-size="12.0849609" font-weight="normal" fill="#525252">
                    <tspan x="20.6799998" y="31.5624999">Max</tspan>
                </text>
            </g>
            <g id="Group-62" transform="translate(151.800000, 210.800000)" stroke="#D6D6D6" stroke-width="0.732421875">
                <path d="M0.499646214,133.785807 L420.702112,133.785807" id="Stroke-52" stroke-dasharray="1.46484375,1.46484375"></path>
                <path d="M0.499646214,89.0683594 L420.702112,89.0683594" id="Stroke-54" stroke-dasharray="1.46484375,1.46484375"></path>
                <path d="M0.499646214,45.0840064 L420.702112,45.0840064" id="Stroke-56" stroke-dasharray="1.46484375,1.46484375"></path>
                <path d="M0.499646214,0.366558451 L420.702112,0.366558451" id="Stroke-58" stroke-dasharray="1.46484375,1.46484375"></path>
                <path d="M0.249823107,178.503255 L420.452289,178.503255 M0.249823107,176.670573 L0.249823107,178.136719 M60.2073688,176.670573 L60.2073688,178.136719 M120.664561,176.670573 L120.664561,178.136719 M180.622106,176.670573 L180.622106,178.136719 M240.579652,176.670573 L240.579652,178.136719 M300.537198,176.670573 L300.537198,178.136719 M360.494743,176.670573 L360.494743,178.136719 M420.452289,176.670573 L420.452289,178.136719" id="Stroke-60" stroke-linecap="square"></path>
            </g>
            <text id="Java" font-family="ProximaNova-Regular, Proxima Nova" font-size="11.71875" font-weight="normal" fill="#525252">
                <tspan x="184" y="405.8">Java</tspan>
            </text>
            <text id="PHP" font-family="ProximaNova-Regular, Proxima Nova" font-size="11.71875" font-weight="normal" fill="#525252">
                <tspan x="273.749219" y="405.8">PHP</tspan>
            </text>
            <text id="Python" font-family="ProximaNova-Regular, Proxima Nova" font-size="11.71875" font-weight="normal" fill="#525252">
                <tspan x="355.452344" y="405.8">Python</tspan>
            </text>
            <text id="Ruby" font-family="ProximaNova-Regular, Proxima Nova" font-size="11.71875" font-weight="normal" fill="#525252">
                <tspan x="447.26875" y="405.8">Ruby</tspan>
            </text>
            <text id="Scala" font-family="ProximaNova-Regular, Proxima Nova" font-size="11.71875" font-weight="normal" letter-spacing="-0.210937485" fill="#525252">
                <tspan x="534.499218" y="405.8">Scala</tspan>
            </text>
            <polygon id="Fill-70" fill="#3F459A" points="199.8 235.526041 221.040234 235.526041 221.040234 388.005208 199.8 388.005208"></polygon>
            <polygon id="Fill-72" fill="#3F459A" points="287.8 253.8 309.040234 253.8 309.040234 388.872916 287.8 388.872916"></polygon>
            <polygon id="Fill-74" fill="#3F459A" points="375.8 231.995312 397.040234 231.995312 397.040234 388.872916 375.8 388.872916"></polygon>
            <polygon id="Fill-76" fill="#3F459A" points="463.8 242.258333 484.307812 242.258333 484.307812 388.872916 463.8 388.872916"></polygon>
            <polygon id="Fill-78" fill="#3F459A" points="551.8 215.995312 572.307812 215.995312 572.307812 388.940625 551.8 388.940625"></polygon>
            <polygon id="Fill-84" fill="#3685D6" points="172.8 256.8 194.040234 256.8 194.040234 388.813021 172.8 388.813021"></polygon>
            <polygon id="Fill-86" fill="#3685D6" points="260.8 272.8 282.040234 272.8 282.040234 388.279166 260.8 388.279166"></polygon>
            <polygon id="Fill-88" fill="#3685D6" points="347.8 260.8 369.040234 260.8 369.040234 388.55 347.8 388.55"></polygon>
            <polygon id="Fill-90" fill="#3685D6" points="435.8 264.8 457.040234 264.8 457.040234 388.478385 435.8 388.478385"></polygon>
            <polygon id="Fill-92" fill="#3685D6" points="524.8 235.935416 545.307812 235.935416 545.307812 388.414583 524.8 388.414583"></polygon>
            <g id="Group-112" transform="translate(540.800000, 202.000000)" font-size="10.9863281" font-family="Helvetica-Light, Helvetica" font-weight="300">
                <text id="67" fill="#525252">
                    <tspan x="0" y="10">67</tspan>
                </text>
                <text id="-"></text>
                <text id="800" fill="#525252">
                    <tspan x="15.2709961" y="10">800</tspan>
                </text>
                <text id="-€" fill="#525252">
                    <tspan x="33.5961914" y="10"> €</tspan>
                </text>
            </g>
            <g id="Group-117" transform="translate(452.800000, 227.800000)" font-size="10.9863281" font-family="Helvetica-Light, Helvetica" font-weight="300">
                <text id="57" fill="#525252">
                    <tspan x="0" y="10">57</tspan>
                </text>
                <text id="-"></text>
                <text id="300" fill="#525252">
                    <tspan x="15.2709961" y="10">300</tspan>
                </text>
                <text id="-€" fill="#525252">
                    <tspan x="33.5961914" y="10"> €</tspan>
                </text>
            </g>
            <g id="Group-122" transform="translate(367.400000, 218.200000)" font-size="10.9863281" font-family="Helvetica-Light, Helvetica" font-weight="300">
                <text id="61" fill="#525252">
                    <tspan x="0" y="10">61</tspan>
                </text>
                <text id="-"></text>
                <text id="800" fill="#525252">
                    <tspan x="15.2709961" y="10">800</tspan>
                </text>
                <text id="-€" fill="#525252">
                    <tspan x="33.5961914" y="10"> €</tspan>
                </text>
            </g>
            <g id="Group-127" transform="translate(278.400000, 239.397656)" font-size="10.9863281" font-family="Helvetica-Light, Helvetica" font-weight="300">
                <text id="52" fill="#525252">
                    <tspan x="0" y="10">52</tspan>
                </text>
                <text id="-"></text>
                <text id="800" fill="#525252">
                    <tspan x="15.2709961" y="10">800</tspan>
                </text>
                <text id="-€" fill="#525252">
                    <tspan x="33.5961914" y="10"> €</tspan>
                </text>
            </g>
            <g id="Group-132" transform="translate(191.200000, 220.000000)" font-size="10.9863281" font-family="Helvetica-Light, Helvetica" font-weight="300">
                <text id="60" fill="#525252">
                    <tspan x="0" y="10">60</tspan>
                </text>
                <text id="-"></text>
                <text id="300" fill="#525252">
                    <tspan x="15.2709961" y="10">300</tspan>
                </text>
                <text id="-€" fill="#525252">
                    <tspan x="33.5961914" y="10"> €</tspan>
                </text>
            </g>
            <g id="Group-147" transform="translate(505.000000, 222.800000)" font-size="10.9863281" font-family="Helvetica-Light, Helvetica" font-weight="300">
                <text id="59" fill="#525252">
                    <tspan x="0" y="10">59</tspan>
                </text>
                <text id="-"></text>
                <text id="700" fill="#525252">
                    <tspan x="15.2709961" y="10">700</tspan>
                </text>
                <text id="-€" fill="#525252">
                    <tspan x="33.5961914" y="10"> €</tspan>
                </text>
            </g>
            <g id="Group-152" transform="translate(416.800000, 249.800000)" font-size="10.9863281" font-family="Helvetica-Light, Helvetica" font-weight="300">
                <text id="48" fill="#525252">
                    <tspan x="0" y="10">48</tspan>
                </text>
                <text id="-"></text>
                <text id="500" fill="#525252">
                    <tspan x="15.2709961" y="10">500</tspan>
                </text>
                <text id="-€" fill="#525252">
                    <tspan x="33.5961914" y="10"> €</tspan>
                </text>
            </g>
            <g id="Group-157" transform="translate(330.193555, 247.600000)" font-size="10.9863281" font-family="Helvetica-Light, Helvetica" font-weight="300">
                <text id="50" fill="#525252">
                    <tspan x="0" y="10">50</tspan>
                </text>
                <text id="-"></text>
                <text id="100" fill="#525252">
                    <tspan x="15.2709961" y="10">100</tspan>
                </text>
                <text id="-€" fill="#525252">
                    <tspan x="33.5961914" y="10"> €</tspan>
                </text>
            </g>
            <g id="Group-162" transform="translate(240.800000, 259.200000)" font-size="10.9863281" font-family="Helvetica-Light, Helvetica" font-weight="300">
                <text id="45" fill="#525252">
                    <tspan x="0" y="10">45</tspan>
                </text>
                <text id="-"></text>
                <text id="700" fill="#525252">
                    <tspan x="15.2709961" y="10">700</tspan>
                </text>
                <text id="-€" fill="#525252">
                    <tspan x="33.5961914" y="10"> €</tspan>
                </text>
            </g>
            <g id="Group-167" transform="translate(153.000000, 243.135417)" font-size="10.9863281" font-family="Helvetica-Light, Helvetica" font-weight="300">
                <text id="51" fill="#525252">
                    <tspan x="0" y="10">51</tspan>
                </text>
                <text id="-"></text>
                <text id="900" fill="#525252">
                    <tspan x="15.2709961" y="10">900</tspan>
                </text>
                <text id="-€" fill="#525252">
                    <tspan x="33.5961914" y="10"> €</tspan>
                </text>
            </g>
            <text id="Top-languages-on-Hon" font-family="ProximaNova-Regular, Proxima Nova" font-size="22" font-weight="normal" fill="#525252">
                <tspan x="234.586" y="86.6000001">Top languages on Honeypot**</tspan>
            </text>
        </g>
    </g>
</svg>