<svg width="740" height="534" viewBox="0 0 740 534" xmlns="http://www.w3.org/2000/svg" xmlns:xlink="http://www.w3.org/1999/xlink" style="background:#fff"><title>average-backend</title><defs><path id="b" d="M.012.109v24.354H23.4V.109H.012z"/><path id="a" d="M0 9h607v61H0z"/><mask id="d" x="0" y="0" width="607" height="61" fill="#fff"><use xlink:href="#a"/></mask></defs><g fill="none" fill-rule="evenodd"><text font-family="ProximaNova-Regular, Proxima Nova" font-size="16" fill="#757575"><tspan x="109" y="452.4">*All numbers are based on Honeypot data and should be seen as a guide only.</tspan> <tspan x="109" y="472.4">** Other languages include Go, Elixir, Javascript (Node JS), Perl etc.</tspan></text><text font-family="ProximaNova-Semibold, Proxima Nova" font-size="30" font-weight="500" fill="#525252"><tspan x="56.42" y="55">Average Backend Developer Salaries in Berlin*</tspan></text><g transform="translate(583.6 499.137)"><mask id="c" fill="#fff"><use xlink:href="#b"/></mask><path d="M23.378 12.007a17.6 17.6 0 0 0-1.316-5.54 17.82 17.82 0 0 0-.62-1.347 2.682 2.682 0 0 0 1.345-2.317c0-1.488-1.225-2.694-2.737-2.694H3.352C1.84.109.614 1.315.614 2.803c0 .986.54 1.846 1.345 2.316-.228.438-.43.89-.621 1.347a17.604 17.604 0 0 0-1.316 5.541c-.01.232-.022.464-.022.699 0 1.685.279 3.306.786 4.824.15.427.442 1.163.798 1.655.039.05.075.1.12.152l.016.02c.158.186.35.387.58.585.232.199.502.398.808.564.304.165.657.298 1.006.343.366.051.75-.01 1.045-.214.3-.198.514-.545.639-.937.247-.795.22-1.695.144-2.509a17.916 17.916 0 0 0-.384-2.232c-.305-1.297-.604-2.14-.604-2.14s.357.82.755 2.1c.196.642.402 1.399.546 2.231.133.831.24 1.746.023 2.682-.11.46-.342.944-.764 1.272-.422.333-.95.436-1.424.448a3.709 3.709 0 0 1-1.343-.26c-.05-.018-.09-.042-.138-.062A15.623 15.623 0 0 0 5.2 24.18c.525.284 1.38.493 2.512-.085 1.975-1.01 3.95-1.121 3.95-1.121s1.974.112 3.948 1.12c1.327.679 2.273.275 2.752-.063a15.632 15.632 0 0 0 2.422-2.794c-.044.018-.083.04-.129.058-.401.15-.844.263-1.343.26-.474-.012-1.002-.115-1.424-.448-.422-.328-.653-.813-.764-1.272-.217-.936-.11-1.851.023-2.682.144-.833.35-1.59.546-2.23.398-1.282.755-2.1.755-2.1s-.3.842-.604 2.14a17.91 17.91 0 0 0-.384 2.231c-.076.814-.103 1.714.144 2.509.125.392.339.739.639.937.294.203.68.265 1.045.213a2.937 2.937 0 0 0 1.006-.343c.306-.166.576-.364.808-.563.313-.27.55-.54.733-.778.284-.398.525-.947.686-1.368a15.19 15.19 0 0 0 .878-5.095c0-.235-.012-.467-.022-.699" fill="#F6C823" mask="url(#c)"/></g><path d="M592.845 503.865c0 1.358-1.118 2.458-2.498 2.458-1.38 0-2.498-1.1-2.498-2.458s1.119-2.459 2.498-2.459c1.38 0 2.498 1.1 2.498 2.459" fill="#FFF"/><path d="M586.952 500.589c-.759 0-1.373.605-1.373 1.351 0 .484.26.906.649 1.145.475-.769 1.006-1.5 1.589-2.187a1.374 1.374 0 0 0-.865-.31m16.698.001c-.33 0-.63.12-.866.31a18.038 18.038 0 0 1 1.588 2.187c.39-.239.651-.66.651-1.146 0-.746-.614-1.351-1.373-1.351m-13.303 2.181c-.077 0-.152.008-.225.023a.59.59 0 0 1 .07.28c0 .331-.273.6-.61.6a.614.614 0 0 1-.31-.084c-.023.088-.036.18-.036.276 0 .604.497 1.094 1.111 1.094s1.112-.49 1.112-1.094c0-.604-.498-1.094-1.112-1.094" fill="#25282C"/><path d="M602.75 503.865c0 1.358-1.118 2.458-2.498 2.458-1.38 0-2.498-1.1-2.498-2.458s1.119-2.459 2.498-2.459c1.38 0 2.498 1.1 2.498 2.459" fill="#FFF"/><path d="M600.252 502.77c-.077 0-.152.008-.224.023a.59.59 0 0 1 .07.28c0 .331-.274.6-.61.6a.614.614 0 0 1-.31-.084c-.024.088-.037.18-.037.276 0 .604.497 1.094 1.111 1.094s1.112-.49 1.112-1.094c0-.604-.498-1.094-1.112-1.094" fill="#25282C"/><path d="M598.659 508.612c0 1.846-1.52 3.343-3.397 3.343-1.875 0-3.396-1.497-3.396-3.343 0-1.846 1.52-3.343 3.396-3.343s3.397 1.497 3.397 3.343" fill="#FFF"/><path d="M597.025 506.787a.45.45 0 0 0-.022-.132l-.01-.033a.464.464 0 0 0-.064-.114s-.2-.405-1.647-.409h-.02c-.841.002-1.26.14-1.464.255a.47.47 0 0 0-.266.268s-.006.014-.012.038a.455.455 0 0 0-.02.127l.001.012c-.008.21.062.58.546.959.442.347.787.475.995.524v3.662c.073.005.146.011.22.011.075 0 .148-.006.22-.01v-3.663c.209-.049.554-.178.996-.524.482-.378.553-.746.545-.957l.002-.014" fill="#25282C"/><path d="M589.797 498.529h10.954a9.722 9.722 0 0 0-4.52-1.632l.67-1.798s-.427-.35-1.627-.35c-1.199 0-1.626.35-1.626.35l.67 1.798a9.72 9.72 0 0 0-4.52 1.632" fill="#F6C823"/><path d="M585.444 517.208s-.182-.232-.382-.625a6.805 6.805 0 0 1-.535-1.512 8.385 8.385 0 0 1-.208-1.583c-.012-.436.016-.727.016-.727s.022.07.052.194l.12.51c.096.421.21.98.342 1.534.125.555.27 1.105.39 1.517l.146.5c.04.122.059.192.059.192m16.938-3.51s-.005.195-.035.48a12.21 12.21 0 0 1-.173 1.02c-.08.366-.17.73-.252 1.003-.038.137-.083.25-.106.33-.027.08-.047.126-.047.126s-.032-.193-.035-.482a5.22 5.22 0 0 1 .117-1.043c.08-.374.199-.737.313-1.002.116-.265.218-.432.218-.432m-15.474-14.125s-.204.077-.47.235a3.975 3.975 0 0 0-.434.285c-.15.112-.299.245-.435.388-.14.14-.258.3-.371.45-.102.158-.2.306-.272.443-.08.132-.137.25-.178.333a2.17 2.17 0 0 1-.071.13s0-.054.01-.147c.014-.091.013-.23.063-.384a2.37 2.37 0 0 1 .198-.522 2.307 2.307 0 0 1 1.417-1.148c.322-.086.543-.063.543-.063" fill="#FFF"/><path d="M640.57 515.628c-.732.718-1.629 1.076-2.692 1.076-1.047 0-1.936-.358-2.667-1.076-.731-.715-1.096-1.638-1.096-2.765 0-1.111.365-2.028 1.096-2.753.731-.725 1.62-1.087 2.667-1.087 1.047 0 1.94.362 2.68 1.087.738.725 1.108 1.642 1.108 2.753 0 1.127-.365 2.05-1.096 2.765zm-2.692-9.213c-1.961 0-3.61.608-4.947 1.823-1.338 1.216-2.007 2.757-2.007 4.625 0 1.868.669 3.41 2.007 4.626 1.337 1.216 2.986 1.824 4.947 1.824 1.977 0 3.635-.608 4.972-1.824 1.338-1.216 2.006-2.758 2.006-4.626 0-1.868-.672-3.41-2.018-4.625-1.346-1.215-3-1.823-4.96-1.823zm27.939 4.854c.183-.772.543-1.38 1.084-1.823.54-.443 1.217-.665 2.031-.665.665 0 1.225.234 1.683.701.456.467.693 1.063.71 1.787h-5.508zm3.115-4.854c-1.91 0-3.464.6-4.66 1.8-1.197 1.199-1.795 2.749-1.795 4.648 0 1.804.627 3.33 1.882 4.578 1.254 1.247 2.903 1.872 4.947 1.872.598 0 1.184-.07 1.757-.207a8.332 8.332 0 0 0 1.408-.446c.366-.16.719-.347 1.06-.556.34-.209.56-.357.66-.446.1-.088.175-.157.223-.206l-1.32-2.126-.449.339c-.282.226-.722.455-1.32.689a4.894 4.894 0 0 1-1.795.35c-.997 0-1.853-.29-2.567-.87-.714-.58-1.13-1.392-1.246-2.44h8.774l.074-1.135c0-1.69-.498-3.087-1.496-4.19-.996-1.103-2.376-1.654-4.137-1.654zm30.979 9.286c-.615.685-1.38 1.027-2.292 1.027-.998 0-1.77-.374-2.318-1.123-.549-.749-.823-1.638-.823-2.67 0-1.287.307-2.257.922-2.91a2.996 2.996 0 0 1 2.268-.978c.947 0 1.71.355 2.293 1.063.582.708.872 1.642.872 2.802 0 1.175-.308 2.105-.922 2.789zm-1.545-9.286c-.549 0-1.068.072-1.559.217-.49.145-.871.302-1.145.47-.275.17-.528.367-.76.592-.234.226-.38.383-.437.471a8.904 8.904 0 0 1-.137.206h-.05v-.483c0-.789-.532-1.184-1.595-1.184h-5.782c-.864 0-1.429.387-1.694 1.16l-.072.203-2.52 7.101-2.991-7.305c-.166-.418-.374-.716-.624-.893-.248-.177-.597-.266-1.047-.266h-2.443l5.634 12.294-.424.942c-.448 1.047-1.146 1.57-2.094 1.57-.698 0-1.304-.281-1.82-.845l-1.22 2.173.374.314c.233.21.615.419 1.146.629a4.594 4.594 0 0 0 1.695.314 4.81 4.81 0 0 0 2.717-.81c.813-.54 1.437-1.34 1.87-2.403l4.56-11.134c.116-.29.357-.435.723-.435h2.193c.365 0 .548.177.548.53v14.01h3.14v-5.097a9.58 9.58 0 0 0-.05-1.062h.05l.35.41c.232.258.65.524 1.258.797.606.274 1.284.412 2.032.412 1.694 0 3.09-.593 4.187-1.776 1.096-1.183 1.644-2.741 1.644-4.674 0-1.915-.515-3.47-1.545-4.661-1.03-1.192-2.401-1.787-4.112-1.787zm16.898 9.213c-.731.718-1.628 1.076-2.69 1.076-1.048 0-1.938-.358-2.668-1.076-.731-.715-1.097-1.638-1.097-2.765 0-1.111.366-2.028 1.097-2.753.73-.725 1.62-1.087 2.667-1.087 1.046 0 1.94.362 2.679 1.087.74.725 1.109 1.642 1.109 2.753 0 1.127-.366 2.05-1.097 2.765zm-2.69-9.213c-1.962 0-3.61.608-4.949 1.823-1.337 1.216-2.006 2.757-2.006 4.625 0 1.868.669 3.41 2.006 4.626 1.338 1.216 2.987 1.824 4.948 1.824 1.977 0 3.634-.608 4.972-1.824 1.337-1.216 2.006-2.758 2.006-4.626 0-1.868-.673-3.41-2.018-4.625-1.347-1.215-3-1.823-4.96-1.823zm15.575 10.023a3.186 3.186 0 0 1-1.732-.495c-.524-.33-.786-.938-.786-1.824v-4.975h2.892v-2.44h-2.892v-3.357h-3.09v3.357h-1.72v2.44h1.645v5.362c0 .79.13 1.477.386 2.065.257.588.574 1.039.947 1.353.375.313.818.566 1.334.76.515.194.972.319 1.37.374.4.057.815.085 1.247.085.382 0 .706-.024.971-.073v-2.68l-.572.048m-102.942-12.921v5.627h-7.8v-5.627c0-.564-.134-.979-.4-1.245-.265-.266-.697-.399-1.295-.399h-1.57v17.15h3.264v-7.198h7.801v7.197h3.265v-17.149h-1.57c-1.13 0-1.695.549-1.695 1.644m30.043 2.898c-1.147 0-2.094.257-2.842.772-.748.516-1.296 1.111-1.645 1.788h-.05l.05-.532v-.362c0-.917-.557-1.377-1.67-1.377h-1.37v12.318h3.14v-5.652c0-.611.083-1.159.25-1.642a3.524 3.524 0 0 1 1.257-1.824c.607-.458 1.325-.688 2.156-.688.749 0 1.268.214 1.558.64.29.427.437 1.051.437 1.872v5.652c0 .58.132.998.398 1.256.266.257.698.386 1.296.386h1.47V511.1c0-3.123-1.478-4.685-4.436-4.685" fill="#25282C"/><g transform="translate(77 102.6)"><use stroke="#C7CED9" mask="url(#d)" stroke-width="2" xlink:href="#a"/><text font-family="ProximaNova-Regular, Proxima Nova" font-size="16" fill="#757575"><tspan x="121.156" y="35.2">The average salary of a backend developer in Berlin </tspan> <tspan x="186.1" y="55.2">falls between €49,711 and €58,118</tspan></text></g><path d="M614.884 297.786a6.12 6.12 0 0 1 0 8.777c-2.471 2.423-6.479 2.423-8.95 0a6.12 6.12 0 0 1 0-8.777c2.471-2.423 6.479-2.423 8.95 0z" fill="#2D73BC"/><text font-family="ProximaNova-Regular, Proxima Nova" font-size="12.085" fill="#525252" transform="translate(603.2 294)"><tspan x="21.78" y="11.875">Min</tspan></text><path d="M614.884 317.474a6.12 6.12 0 0 1 0 8.776c-2.471 2.424-6.479 2.424-8.95 0a6.12 6.12 0 0 1 0-8.776c2.471-2.424 6.479-2.424 8.95 0z" fill="#3F459A"/><text font-family="ProximaNova-Regular, Proxima Nova" font-size="12.085" fill="#525252" transform="translate(603.2 294)"><tspan x="20.68" y="31.562">Max</tspan></text><g stroke="#D6D6D6" stroke-width=".732"><path d="M152.3 344.586h420.202M152.3 299.868h420.202M152.3 255.884h420.202M152.3 211.167h420.202" stroke-dasharray="1.46484375,1.46484375"/><path d="M152.05 389.303h420.202m-420.202-1.832v1.466m59.957-1.466v1.466m60.458-1.466v1.466m59.957-1.466v1.466m59.958-1.466v1.466m59.957-1.466v1.466m59.958-1.466v1.466m59.957-1.466v1.466" stroke-linecap="square"/></g><text font-family="ProximaNova-Regular, Proxima Nova" font-size="11.719" fill="#525252"><tspan x="184" y="405.8">Java</tspan></text><text font-family="ProximaNova-Regular, Proxima Nova" font-size="11.719" fill="#525252"><tspan x="273.749" y="405.8">PHP</tspan></text><text font-family="ProximaNova-Regular, Proxima Nova" font-size="11.719" fill="#525252"><tspan x="355.452" y="405.8">Python</tspan></text><text font-family="ProximaNova-Regular, Proxima Nova" font-size="11.719" fill="#525252"><tspan x="447.269" y="405.8">Ruby</tspan></text><text font-family="ProximaNova-Regular, Proxima Nova" font-size="11.719" letter-spacing="-.211" fill="#525252"><tspan x="534.499" y="405.8">Scala</tspan></text><path fill="#3F459A" d="M199.8 235.526h21.24v152.48H199.8zm88 18.274h21.24v135.073H287.8zm88-21.805h21.24v156.878H375.8zm88 10.263h20.508v146.615H463.8zm88-26.263h20.508v172.946H551.8z"/><path fill="#3685D6" d="M172.8 256.8h21.24v132.013H172.8zm88 16h21.24v115.48H260.8zm87-12h21.24v127.75H347.8zm88 4h21.24v123.678H435.8zm89-28.865h20.508v152.48H524.8z"/><g font-size="10.986" font-family="Helvetica-Light, Helvetica" font-weight="300" fill="#525252"><text transform="translate(540.8 202)"><tspan x="0" y="10">67</tspan></text><text transform="translate(540.8 202)"><tspan x="15.271" y="10">800</tspan></text><text transform="translate(540.8 202)"><tspan x="33.596" y="10">€</tspan></text></g><g font-size="10.986" font-family="Helvetica-Light, Helvetica" font-weight="300" fill="#525252"><text transform="translate(452.8 227.8)"><tspan x="0" y="10">57</tspan></text><text transform="translate(452.8 227.8)"><tspan x="15.271" y="10">300</tspan></text><text transform="translate(452.8 227.8)"><tspan x="33.596" y="10">€</tspan></text></g><g font-size="10.986" font-family="Helvetica-Light, Helvetica" font-weight="300" fill="#525252"><text transform="translate(367.4 218.2)"><tspan x="0" y="10">61</tspan></text><text transform="translate(367.4 218.2)"><tspan x="15.271" y="10">800</tspan></text><text transform="translate(367.4 218.2)"><tspan x="33.596" y="10">€</tspan></text></g><g font-size="10.986" font-family="Helvetica-Light, Helvetica" font-weight="300" fill="#525252"><text transform="translate(278.4 239.398)"><tspan x="0" y="10">52</tspan></text><text transform="translate(278.4 239.398)"><tspan x="15.271" y="10">800</tspan></text><text transform="translate(278.4 239.398)"><tspan x="33.596" y="10">€</tspan></text></g><g font-size="10.986" font-family="Helvetica-Light, Helvetica" font-weight="300" fill="#525252"><text transform="translate(191.2 220)"><tspan x="0" y="10">60</tspan></text><text transform="translate(191.2 220)"><tspan x="15.271" y="10">300</tspan></text><text transform="translate(191.2 220)"><tspan x="33.596" y="10">€</tspan></text></g><g font-size="10.986" font-family="Helvetica-Light, Helvetica" font-weight="300" fill="#525252"><text transform="translate(505 222.8)"><tspan x="0" y="10">59</tspan></text><text transform="translate(505 222.8)"><tspan x="15.271" y="10">700</tspan></text><text transform="translate(505 222.8)"><tspan x="33.596" y="10">€</tspan></text></g><g font-size="10.986" font-family="Helvetica-Light, Helvetica" font-weight="300" fill="#525252"><text transform="translate(416.8 249.8)"><tspan x="0" y="10">48</tspan></text><text transform="translate(416.8 249.8)"><tspan x="15.271" y="10">500</tspan></text><text transform="translate(416.8 249.8)"><tspan x="33.596" y="10">€</tspan></text></g><g font-size="10.986" font-family="Helvetica-Light, Helvetica" font-weight="300" fill="#525252"><text transform="translate(330.194 247.6)"><tspan x="0" y="10">50</tspan></text><text transform="translate(330.194 247.6)"><tspan x="15.271" y="10">100</tspan></text><text transform="translate(330.194 247.6)"><tspan x="33.596" y="10">€</tspan></text></g><g font-size="10.986" font-family="Helvetica-Light, Helvetica" font-weight="300" fill="#525252"><text transform="translate(240.8 259.2)"><tspan x="0" y="10">45</tspan></text><text transform="translate(240.8 259.2)"><tspan x="15.271" y="10">700</tspan></text><text transform="translate(240.8 259.2)"><tspan x="33.596" y="10">€</tspan></text></g><g font-size="10.986" font-family="Helvetica-Light, Helvetica" font-weight="300" fill="#525252"><text transform="translate(153 243.135)"><tspan x="0" y="10">51</tspan></text><text transform="translate(153 243.135)"><tspan x="15.271" y="10">900</tspan></text><text transform="translate(153 243.135)"><tspan x="33.596" y="10">€</tspan></text></g><text font-family="ProximaNova-Regular, Proxima Nova" font-size="22" fill="#525252"><tspan x="234.586" y="86.6">Top languages on Honeypot**</tspan></text></g></svg>