<svg width="798" height="2954" viewBox="0 0 798 2954" xmlns="http://www.w3.org/2000/svg" xmlns:xlink="http://www.w3.org/1999/xlink" style="background:#fff"><title>cheat-sheet-backend</title><defs><path id="a" d="M.012.109v24.354H23.4V.109H.012z"/><path id="c" d="M.024.217v48.708H46.8V.217H.024z"/></defs><g fill="none" fill-rule="evenodd"><g transform="translate(629 2903.537)"><mask id="b" fill="#fff"><use xlink:href="#a"/></mask><path d="M23.378 12.007a17.6 17.6 0 0 0-1.316-5.54 17.82 17.82 0 0 0-.62-1.347 2.682 2.682 0 0 0 1.345-2.317c0-1.488-1.225-2.694-2.737-2.694H3.352C1.84.109.614 1.315.614 2.803c0 .986.54 1.846 1.345 2.316-.228.438-.43.89-.621 1.347a17.604 17.604 0 0 0-1.316 5.541c-.01.232-.022.464-.022.699 0 1.685.279 3.306.786 4.824.15.427.442 1.163.798 1.655.039.05.075.1.12.152l.016.02c.158.186.35.387.58.585.232.199.502.398.808.564.304.165.657.298 1.006.343.366.051.75-.01 1.045-.214.3-.198.514-.545.639-.937.247-.795.22-1.695.144-2.509a17.916 17.916 0 0 0-.384-2.232c-.305-1.297-.604-2.14-.604-2.14s.357.82.755 2.1c.196.642.402 1.399.546 2.231.133.831.24 1.746.023 2.682-.11.46-.342.944-.764 1.272-.422.333-.95.436-1.424.448a3.709 3.709 0 0 1-1.343-.26c-.05-.018-.09-.042-.138-.062A15.623 15.623 0 0 0 5.2 24.18c.525.284 1.38.493 2.512-.085 1.975-1.01 3.95-1.121 3.95-1.121s1.974.112 3.948 1.12c1.327.679 2.273.275 2.752-.063a15.632 15.632 0 0 0 2.422-2.794c-.044.018-.083.04-.129.058-.401.15-.844.263-1.343.26-.474-.012-1.002-.115-1.424-.448-.422-.328-.653-.813-.764-1.272-.217-.936-.11-1.851.023-2.682.144-.833.35-1.59.546-2.23.398-1.282.755-2.1.755-2.1s-.3.842-.604 2.14a17.91 17.91 0 0 0-.384 2.231c-.076.814-.103 1.714.144 2.509.125.392.339.739.639.937.294.203.68.265 1.045.213a2.937 2.937 0 0 0 1.006-.343c.306-.166.576-.364.808-.563.313-.27.55-.54.733-.778.284-.398.525-.947.686-1.368a15.19 15.19 0 0 0 .878-5.095c0-.235-.012-.467-.022-.699" fill="#F6C823" mask="url(#b)"/></g><path d="M638.245 2908.265c0 1.358-1.118 2.458-2.498 2.458-1.38 0-2.498-1.1-2.498-2.458s1.119-2.459 2.498-2.459c1.38 0 2.498 1.1 2.498 2.459" fill="#FFF"/><path d="M632.352 2904.989c-.759 0-1.373.605-1.373 1.351 0 .484.26.906.649 1.145.475-.769 1.006-1.5 1.589-2.187a1.374 1.374 0 0 0-.865-.31m16.698.001c-.33 0-.63.12-.866.31a18.038 18.038 0 0 1 1.588 2.187c.39-.239.651-.66.651-1.146 0-.746-.614-1.351-1.373-1.351m-13.303 2.181c-.077 0-.152.008-.225.023a.59.59 0 0 1 .07.28c0 .331-.273.6-.61.6a.614.614 0 0 1-.31-.084c-.023.088-.036.18-.036.276 0 .604.497 1.094 1.111 1.094s1.112-.49 1.112-1.094c0-.604-.498-1.094-1.112-1.094" fill="#25282C"/><path d="M648.15 2908.265c0 1.358-1.118 2.458-2.498 2.458-1.38 0-2.498-1.1-2.498-2.458s1.119-2.459 2.498-2.459c1.38 0 2.498 1.1 2.498 2.459" fill="#FFF"/><path d="M645.652 2907.17c-.077 0-.152.008-.224.023a.59.59 0 0 1 .07.28c0 .331-.274.6-.61.6a.614.614 0 0 1-.31-.084c-.024.088-.037.18-.037.276 0 .604.497 1.094 1.111 1.094s1.112-.49 1.112-1.094c0-.604-.498-1.094-1.112-1.094" fill="#25282C"/><path d="M644.059 2913.012c0 1.846-1.52 3.343-3.397 3.343-1.875 0-3.396-1.497-3.396-3.343 0-1.846 1.52-3.343 3.396-3.343s3.397 1.497 3.397 3.343" fill="#FFF"/><path d="M642.425 2911.187a.45.45 0 0 0-.022-.132l-.01-.033a.464.464 0 0 0-.064-.114s-.2-.405-1.647-.409h-.02c-.841.002-1.26.14-1.464.255a.47.47 0 0 0-.266.268s-.006.014-.012.038a.455.455 0 0 0-.02.127l.001.012c-.008.21.062.58.546.959.442.347.787.475.995.524v3.662c.073.005.146.011.22.011.075 0 .148-.006.22-.01v-3.663c.209-.049.554-.178.996-.524.482-.378.553-.746.545-.957l.002-.014" fill="#25282C"/><path d="M635.197 2902.929h10.954a9.722 9.722 0 0 0-4.52-1.632l.67-1.798s-.427-.35-1.627-.35c-1.199 0-1.626.35-1.626.35l.67 1.798a9.72 9.72 0 0 0-4.52 1.632" fill="#F6C823"/><path d="M630.844 2921.608s-.182-.232-.382-.625a6.805 6.805 0 0 1-.535-1.512 8.385 8.385 0 0 1-.208-1.583c-.012-.436.016-.727.016-.727s.022.07.052.194l.12.51c.096.421.21.98.342 1.534.125.555.27 1.105.39 1.517l.146.5c.04.122.059.192.059.192m16.938-3.51s-.005.195-.035.48a12.21 12.21 0 0 1-.173 1.02c-.08.366-.17.73-.252 1.003-.038.137-.083.25-.106.33-.027.08-.047.126-.047.126s-.032-.193-.035-.482a5.22 5.22 0 0 1 .117-1.043c.08-.374.199-.737.313-1.002.116-.265.218-.432.218-.432m-15.474-14.125s-.204.077-.47.235a3.975 3.975 0 0 0-.434.285c-.15.112-.299.245-.435.388-.14.14-.258.3-.371.45-.102.158-.2.306-.272.443-.08.132-.137.25-.178.333a2.17 2.17 0 0 1-.071.13s0-.054.01-.147c.014-.091.013-.23.063-.384a2.37 2.37 0 0 1 .198-.522 2.307 2.307 0 0 1 1.417-1.148c.322-.086.543-.063.543-.063" fill="#FFF"/><path d="M685.97 2920.028c-.732.718-1.629 1.076-2.692 1.076-1.047 0-1.936-.358-2.667-1.076-.731-.715-1.096-1.638-1.096-2.765 0-1.111.365-2.028 1.096-2.753.731-.725 1.62-1.087 2.667-1.087 1.047 0 1.94.362 2.68 1.087.738.725 1.108 1.642 1.108 2.753 0 1.127-.365 2.05-1.096 2.765zm-2.692-9.213c-1.961 0-3.61.608-4.947 1.823-1.338 1.216-2.007 2.757-2.007 4.625 0 1.868.669 3.41 2.007 4.626 1.337 1.216 2.986 1.824 4.947 1.824 1.977 0 3.635-.608 4.972-1.824 1.338-1.216 2.006-2.758 2.006-4.626 0-1.868-.672-3.41-2.018-4.625-1.346-1.215-3-1.823-4.96-1.823zm27.939 4.854c.183-.772.543-1.38 1.084-1.823.54-.443 1.217-.665 2.031-.665.665 0 1.225.234 1.683.701.456.467.693 1.063.71 1.787h-5.508zm3.115-4.854c-1.91 0-3.464.6-4.66 1.8-1.197 1.199-1.795 2.749-1.795 4.648 0 1.804.627 3.33 1.882 4.578 1.254 1.247 2.903 1.872 4.947 1.872.598 0 1.184-.07 1.757-.207a8.332 8.332 0 0 0 1.408-.446c.366-.16.719-.347 1.06-.556.34-.209.56-.357.66-.446.1-.088.175-.157.223-.206l-1.32-2.126-.449.339c-.282.226-.722.455-1.32.689a4.894 4.894 0 0 1-1.795.35c-.997 0-1.853-.29-2.567-.87-.714-.58-1.13-1.392-1.246-2.44h8.774l.074-1.135c0-1.69-.498-3.087-1.496-4.19-.996-1.103-2.376-1.654-4.137-1.654zm30.979 9.286c-.615.685-1.38 1.027-2.292 1.027-.998 0-1.77-.374-2.318-1.123-.549-.749-.823-1.638-.823-2.67 0-1.287.307-2.257.922-2.91a2.996 2.996 0 0 1 2.268-.978c.947 0 1.71.355 2.293 1.063.582.708.872 1.642.872 2.802 0 1.175-.308 2.105-.922 2.789zm-1.545-9.286c-.549 0-1.068.072-1.559.217-.49.145-.871.302-1.145.47-.275.17-.528.367-.76.592-.234.226-.38.383-.437.471a8.904 8.904 0 0 1-.137.206h-.05v-.483c0-.789-.532-1.184-1.595-1.184h-5.782c-.864 0-1.429.387-1.694 1.16l-.072.203-2.52 7.101-2.991-7.305c-.166-.418-.374-.716-.624-.893-.248-.177-.597-.266-1.047-.266h-2.443l5.634 12.294-.424.942c-.448 1.047-1.146 1.57-2.094 1.57-.698 0-1.304-.281-1.82-.845l-1.22 2.173.374.314c.233.21.615.419 1.146.629a4.594 4.594 0 0 0 1.695.314 4.81 4.81 0 0 0 2.717-.81c.813-.54 1.437-1.34 1.87-2.403l4.56-11.134c.116-.29.357-.435.723-.435h2.193c.365 0 .548.177.548.53v14.01h3.14v-5.097a9.58 9.58 0 0 0-.05-1.062h.05l.35.41c.232.258.65.524 1.258.797.606.274 1.284.412 2.032.412 1.694 0 3.09-.593 4.187-1.776 1.096-1.183 1.644-2.741 1.644-4.674 0-1.915-.515-3.47-1.545-4.661-1.03-1.192-2.401-1.787-4.112-1.787zm16.898 9.213c-.731.718-1.628 1.076-2.69 1.076-1.048 0-1.938-.358-2.668-1.076-.731-.715-1.097-1.638-1.097-2.765 0-1.111.366-2.028 1.097-2.753.73-.725 1.62-1.087 2.667-1.087 1.046 0 1.94.362 2.679 1.087.74.725 1.109 1.642 1.109 2.753 0 1.127-.366 2.05-1.097 2.765zm-2.69-9.213c-1.962 0-3.61.608-4.949 1.823-1.337 1.216-2.006 2.757-2.006 4.625 0 1.868.669 3.41 2.006 4.626 1.338 1.216 2.987 1.824 4.948 1.824 1.977 0 3.634-.608 4.972-1.824 1.337-1.216 2.006-2.758 2.006-4.626 0-1.868-.673-3.41-2.018-4.625-1.347-1.215-3-1.823-4.96-1.823zm15.575 10.023a3.186 3.186 0 0 1-1.732-.495c-.524-.33-.786-.938-.786-1.824v-4.975h2.892v-2.44h-2.892v-3.357h-3.09v3.357h-1.72v2.44h1.645v5.362c0 .79.13 1.477.386 2.065.257.588.574 1.039.947 1.353.375.313.818.566 1.334.76.515.194.972.319 1.37.374.4.057.815.085 1.247.085.382 0 .706-.024.971-.073v-2.68l-.572.048m-102.942-12.921v5.627h-7.8v-5.627c0-.564-.134-.979-.4-1.245-.265-.266-.697-.399-1.295-.399h-1.57v17.15h3.264v-7.198h7.801v7.197h3.265v-17.149h-1.57c-1.13 0-1.695.549-1.695 1.644m30.043 2.898c-1.147 0-2.094.257-2.842.772-.748.516-1.296 1.111-1.645 1.788h-.05l.05-.532v-.362c0-.917-.557-1.377-1.67-1.377h-1.37v12.318h3.14v-5.652c0-.611.083-1.159.25-1.642a3.524 3.524 0 0 1 1.257-1.824c.607-.458 1.325-.688 2.156-.688.749 0 1.268.214 1.558.64.29.427.437 1.051.437 1.872v5.652c0 .58.132.998.398 1.256.266.257.698.386 1.296.386h1.47v-7.922c0-3.123-1.478-4.685-4.436-4.685" fill="#25282C"/><path d="M24.5 185.5h751m-751 136h751" stroke="#E2E8F0" stroke-linecap="square"/><text font-family="OpenSans, Open Sans" font-size="14" fill="#B5B5B5"><tspan x="312" y="158">Frameworks</tspan></text><text font-family="OpenSans, Open Sans" font-size="14" fill="#B5B5B5"><tspan x="103" y="158">Language</tspan></text><text font-family="OpenSans, Open Sans" font-size="14" fill="#B5B5B5"><tspan x="527" y="158">Testing Frameworks </tspan> <tspan x="527" y="177">&amp; Librairies</tspan></text><text font-family="OpenSans-Semibold, Open Sans" font-size="18" font-weight="500" fill="#3685D6"><tspan x="103" y="1259">Java</tspan></text><text font-family="OpenSans, Open Sans" font-size="14" fill="#1F2228"><tspan x="314" y="1259">Apache wickets</tspan> <tspan x="314" y="1278">Grails</tspan> <tspan x="314" y="1297">Hibernate</tspan> <tspan x="314" y="1316">JSF</tspan> <tspan x="314" y="1335">Spring</tspan> <tspan x="314" y="1354">Struts</tspan></text><text font-family="OpenSans, Open Sans" font-size="14" fill="#1F2228"><tspan x="528" y="1259">Arquillian</tspan> <tspan x="528" y="1278">Jtest</tspan> <tspan x="528" y="1297">jUnit</tspan> <tspan x="528" y="1316">JWalk</tspan> <tspan x="528" y="1335">Mockito</tspan> <tspan x="528" y="1354">Powermock</tspan> <tspan x="528" y="1373">TestNG</tspan> <tspan x="528" y="1392">The Grinder</tspan></text><text font-family="OpenSans-Semibold, Open Sans" font-size="18" font-weight="500" fill="#3685D6"><tspan x="103" y="246">C</tspan></text><text font-family="OpenSans, Open Sans" font-size="14" fill="#1F2228"><tspan x="314" y="245">Kore</tspan></text><text font-family="OpenSans, Open Sans" font-size="14" fill="#1F2228"><tspan x="528" y="245">Cmocka</tspan> <tspan x="528" y="264">Cmockery</tspan> <tspan x="528" y="283">Ctest</tspan></text><path d="M24.5 435.5h751" stroke="#E2E8F0" stroke-linecap="square"/><text font-family="OpenSans-Semibold, Open Sans" font-size="18" font-weight="500" fill="#3685D6"><tspan x="103" y="374">C#</tspan></text><text font-family="OpenSans, Open Sans" font-size="14" fill="#1F2228"><tspan x="314" y="373">ASP.NET</tspan> <tspan x="314" y="392">.NET</tspan></text><text font-family="OpenSans, Open Sans" font-size="14" fill="#1F2228"><tspan x="528" y="373">NUnit</tspan></text><path d="M24.5 561.5h751" stroke="#E2E8F0" stroke-linecap="square"/><text font-family="OpenSans-Semibold, Open Sans" font-size="18" font-weight="500" fill="#3685D6"><tspan x="103" y="488">C++</tspan></text><text font-family="OpenSans, Open Sans" font-size="14" fill="#1F2228"><tspan x="314" y="487">Boost</tspan> <tspan x="314" y="506">Qt</tspan> <tspan x="314" y="525">STL</tspan></text><text font-family="OpenSans, Open Sans" font-size="14" fill="#1F2228"><tspan x="528" y="487">Bandit</tspan> <tspan x="528" y="506">Cute</tspan> <tspan x="528" y="525">Doctest</tspan></text><path d="M24.5 657.5h751" stroke="#E2E8F0" stroke-linecap="square"/><text font-family="OpenSans-Semibold, Open Sans" font-size="18" font-weight="500" fill="#3685D6"><tspan x="103" y="603">Clojure</tspan></text><text font-family="OpenSans, Open Sans" font-size="14" fill="#1F2228"><tspan x="314" y="602">Arachne</tspan> <tspan x="314" y="621">Luminus</tspan></text><text font-family="OpenSans, Open Sans" font-size="14" fill="#1F2228"><tspan x="528" y="602">Clojure.test</tspan></text><path d="M24.5 756.5h751" stroke="#E2E8F0" stroke-linecap="square"/><text font-family="OpenSans-Semibold, Open Sans" font-size="18" font-weight="500" fill="#3685D6"><tspan x="103" y="702">Elixir</tspan></text><text font-family="OpenSans, Open Sans" font-size="14" fill="#1F2228"><tspan x="314" y="701">Pheonix</tspan> <tspan x="314" y="720">Sugar</tspan></text><text font-family="OpenSans, Open Sans" font-size="14" fill="#1F2228"><tspan x="528" y="701">Amrita</tspan> <tspan x="528" y="720">ESpec</tspan> <tspan x="528" y="739">Exunit</tspan></text><path d="M24.5 878.5h751" stroke="#E2E8F0" stroke-linecap="square"/><text font-family="OpenSans-Semibold, Open Sans" font-size="18" font-weight="500" fill="#3685D6"><tspan x="103" y="796">Erlang</tspan></text><text font-family="OpenSans, Open Sans" font-size="14" fill="#1F2228"><tspan x="314" y="795">ChicagoBoss</tspan> <tspan x="314" y="814">N2O</tspan> <tspan x="314" y="833">Nitrogen</tspan> <tspan x="314" y="852">Zotonic</tspan></text><text font-family="OpenSans, Open Sans" font-size="14" fill="#1F2228"><tspan x="528" y="795">EUnit</tspan></text><path d="M24.5 1029.5h751" stroke="#E2E8F0" stroke-linecap="square"/><text font-family="OpenSans-Semibold, Open Sans" font-size="18" font-weight="500" fill="#3685D6"><tspan x="103" y="919">Go</tspan></text><text font-family="OpenSans, Open Sans" font-size="14" fill="#1F2228"><tspan x="314" y="918">Beego</tspan> <tspan x="314" y="937">GoCraft</tspan> <tspan x="314" y="956">Gorilla</tspan> <tspan x="314" y="975">Martini</tspan> <tspan x="314" y="994">Net/HTTP</tspan></text><text font-family="OpenSans, Open Sans" font-size="14" fill="#1F2228"><tspan x="528" y="918">Gingko</tspan> <tspan x="528" y="937">Go test</tspan> <tspan x="528" y="956">GoConvey</tspan> <tspan x="528" y="975">Gomega</tspan> <tspan x="528" y="994">Gospec</tspan></text><path d="M24.5 1213.5h751" stroke="#E2E8F0" stroke-linecap="square"/><text font-family="OpenSans-Semibold, Open Sans" font-size="18" font-weight="500" fill="#3685D6"><tspan x="103" y="1472">Node.js</tspan></text><text font-family="OpenSans, Open Sans" font-size="14" fill="#1F2228"><tspan x="314" y="1472">Catberry</tspan> <tspan x="314" y="1491">Derby</tspan> <tspan x="314" y="1510">Express.js</tspan> <tspan x="314" y="1529">Feathers</tspan> <tspan x="314" y="1548">Hapi.js</tspan> <tspan x="314" y="1567">Interfake</tspan> <tspan x="314" y="1586">Koa.js</tspan> <tspan x="314" y="1605">Loopback</tspan> <tspan x="314" y="1624">Meteor.js</tspan> <tspan x="314" y="1643">Mojito</tspan> <tspan x="314" y="1662">Nuxt.js</tspan> <tspan x="314" y="1681">Restberry</tspan> <tspan x="314" y="1700">Restify</tspan> <tspan x="314" y="1719">SailsJS</tspan> <tspan x="314" y="1738">Seneca</tspan> <tspan x="314" y="1757">Socket.io</tspan> <tspan x="314" y="1776">ThinkJS</tspan> <tspan x="314" y="1795">Total.js</tspan></text><text font-family="OpenSans, Open Sans" font-size="14" fill="#1F2228"><tspan x="528" y="1472">AVA</tspan> <tspan x="528" y="1491">Chai</tspan> <tspan x="528" y="1510">Enzyme</tspan> <tspan x="528" y="1529">Expect</tspan> <tspan x="528" y="1548">Jasmine</tspan> <tspan x="528" y="1567">Jest</tspan> <tspan x="528" y="1586">Karma</tspan> <tspan x="528" y="1605">Mocha</tspan> <tspan x="528" y="1624">Qunit</tspan> <tspan x="528" y="1643">Sinon.js</tspan> <tspan x="528" y="1662">tape</tspan></text><path d="M24.5 1426.5h751m-751 407h751" stroke="#E2E8F0" stroke-linecap="square"/><text font-family="OpenSans-Semibold, Open Sans" font-size="18" font-weight="500" fill="#3685D6"><tspan x="103" y="1073">Haskell</tspan></text><text font-family="OpenSans, Open Sans" font-size="14" fill="#1F2228"><tspan x="314" y="1072">Happstack</tspan> <tspan x="314" y="1091">Lemmachine</tspan> <tspan x="314" y="1110">miku</tspan> <tspan x="314" y="1129">Salvia</tspan> <tspan x="314" y="1148">Scotty</tspan> <tspan x="314" y="1167">Snap</tspan> <tspan x="314" y="1186">Yesod</tspan></text><text font-family="OpenSans, Open Sans" font-size="14" fill="#1F2228"><tspan x="528" y="1072">Hspec</tspan> <tspan x="528" y="1091">HUnit</tspan></text><text font-family="OpenSans-Semibold, Open Sans" font-size="18" font-weight="500" fill="#3685D6"><tspan x="103" y="1884">PHP</tspan></text><text font-family="OpenSans, Open Sans" font-size="14" fill="#1F2228"><tspan x="315" y="1884">Cake PHP</tspan> <tspan x="315" y="1903">Codeigniter</tspan> <tspan x="315" y="1922">Doctrine</tspan> <tspan x="315" y="1941">FuelPHP</tspan> <tspan x="315" y="1960">Laravel</tspan> <tspan x="315" y="1979">Phalcon</tspan> <tspan x="315" y="1998">PHPixie</tspan> <tspan x="315" y="2017">Silex</tspan> <tspan x="315" y="2036">Slim</tspan> <tspan x="315" y="2055">Symfony</tspan> <tspan x="315" y="2074">Yii</tspan> <tspan x="315" y="2093">Zend</tspan></text><text font-family="OpenSans, Open Sans" font-size="14" fill="#1F2228"><tspan x="528" y="1884">Atoun</tspan> <tspan x="528" y="1903">Behat</tspan> <tspan x="528" y="1922">Codeception</tspan> <tspan x="528" y="1941">Kahlan</tspan> <tspan x="528" y="1960">Peridot</tspan> <tspan x="528" y="1979">PHP Unit</tspan> <tspan x="528" y="1998">PHPSpec</tspan> <tspan x="528" y="2017">Selenium</tspan> <tspan x="528" y="2036">SimpleTest</tspan> <tspan x="528" y="2055">Storyplayer</tspan></text><path d="M24.5 2117.5h751" stroke="#E2E8F0" stroke-linecap="square"/><text font-family="OpenSans-Semibold, Open Sans" font-size="18" font-weight="500" fill="#3685D6"><tspan x="103" y="2168">Python</tspan></text><text font-family="OpenSans, Open Sans" font-size="14" fill="#1F2228"><tspan x="315" y="2168">CubicWeb</tspan> <tspan x="315" y="2187">Django</tspan> <tspan x="315" y="2206">Flask</tspan> <tspan x="315" y="2225">Giotto</tspan> <tspan x="315" y="2244">Grok</tspan> <tspan x="315" y="2263">Pylons</tspan> <tspan x="315" y="2282">Pyramid</tspan> <tspan x="315" y="2301">TurboGears</tspan> <tspan x="315" y="2320">Web2py</tspan></text><text font-family="OpenSans, Open Sans" font-size="14" fill="#1F2228"><tspan x="528" y="2168">Doctest</tspan> <tspan x="528" y="2187">Nose</tspan> <tspan x="528" y="2206">Pytest</tspan> <tspan x="528" y="2225">Sancho</tspan> <tspan x="528" y="2244">Subunit</tspan> <tspan x="528" y="2263">Testify</tspan> <tspan x="528" y="2282">Testresources</tspan> <tspan x="528" y="2301">Trial</tspan> <tspan x="528" y="2320">Unittest</tspan></text><path d="M24.5 2354.5h751" stroke="#E2E8F0" stroke-linecap="square"/><text font-family="OpenSans-Semibold, Open Sans" font-size="18" font-weight="500" fill="#3685D6"><tspan x="103" y="2405">Ruby</tspan></text><text font-family="OpenSans, Open Sans" font-size="14" fill="#1F2228"><tspan x="315" y="2405">Cuba</tspan> <tspan x="315" y="2424">Lotus</tspan> <tspan x="315" y="2443">Padrino</tspan> <tspan x="315" y="2462">Ruby on Rails</tspan> <tspan x="315" y="2481">Sinatra</tspan></text><text font-family="OpenSans, Open Sans" font-size="14" fill="#1F2228"><tspan x="528" y="2405">Bacon</tspan> <tspan x="528" y="2424">Minitest</tspan> <tspan x="528" y="2443">Riot</tspan> <tspan x="528" y="2462">Rspec</tspan> <tspan x="528" y="2481">Rubydoctest</tspan> <tspan x="528" y="2500">Test Unit</tspan> <tspan x="528" y="2519">Wrong</tspan></text><path d="M24.5 2553.5h751" stroke="#E2E8F0" stroke-linecap="square"/><text font-family="OpenSans-Semibold, Open Sans" font-size="18" font-weight="500" fill="#3685D6"><tspan x="103" y="2613">Rust</tspan></text><text font-family="OpenSans, Open Sans" font-size="14" fill="#1F2228"><tspan x="315" y="2613">Hyper</tspan> <tspan x="315" y="2632">Iron</tspan> <tspan x="315" y="2651">Kinglet</tspan> <tspan x="315" y="2670">Nickel.rs</tspan> <tspan x="315" y="2689">Rustful</tspan> <tspan x="315" y="2708">Solicit</tspan></text><text font-family="OpenSans, Open Sans" font-size="14" fill="#1F2228"><tspan x="528" y="2613">Stainless</tspan></text><path d="M24.5 2743.5h751m-751 135h751" stroke="#E2E8F0" stroke-linecap="square"/><text font-family="OpenSans-Semibold, Open Sans" font-size="18" font-weight="500" fill="#3685D6"><tspan x="103" y="2794">Scala</tspan></text><text font-family="OpenSans, Open Sans" font-size="14" fill="#1F2228"><tspan x="315" y="2794">Pinky</tspan> <tspan x="315" y="2813">Play</tspan> <tspan x="315" y="2832">Scalatra</tspan></text><text font-family="OpenSans, Open Sans" font-size="14" fill="#1F2228"><tspan x="528" y="2794">Scala Check</tspan> <tspan x="528" y="2813">Scalaspecs</tspan> <tspan x="528" y="2832">Scalatest</tspan></text><g stroke="#7F8B99" fill-rule="nonzero"><path d="M75.435 235.978c-.369-.652-.922-1.199-1.664-1.63-6.124-3.552-12.254-7.093-18.375-10.648-1.65-.958-3.251-.924-4.89.049-2.437 1.445-14.64 8.478-18.277 10.596-1.497.872-2.226 2.207-2.227 3.941-.002 7.143 0 14.285-.002 21.427 0 .856.178 1.613.538 2.266.37.672.93 1.234 1.689 1.676 3.637 2.118 15.842 9.15 18.279 10.596 1.639.973 3.24 1.007 4.89.049 6.122-3.556 12.252-7.096 18.377-10.648.76-.441 1.32-1.003 1.69-1.674.358-.654.537-1.411.537-2.267 0 0 0-14.28-.002-21.423 0-.874-.187-1.647-.563-2.31z"/><path d="M57.754 245.744l7.158.051c0-2.997-3.019-10.337-11.674-10.337-5.515 0-12.93 3.523-12.93 13.652s7.269 13.432 12.93 13.432c9.167 0 11.358-6.374 11.358-9.976l-6.83-.393s.183 4.167-4.565 4.167c-4.383 0-5.114-5.395-5.114-7.23 0-2.789.987-7.266 5.114-7.266s4.553 3.9 4.553 3.9"/></g><g stroke="#9D73D9" fill-rule="nonzero"><path d="M75.435 362.978c-.369-.652-.922-1.199-1.664-1.63-6.124-3.552-12.254-7.093-18.375-10.648-1.65-.958-3.251-.924-4.89.049-2.437 1.445-14.64 8.478-18.277 10.596-1.497.872-2.226 2.207-2.227 3.941-.002 7.143 0 14.285-.002 21.427 0 .856.178 1.613.538 2.266.37.672.93 1.234 1.689 1.676 3.637 2.118 15.842 9.15 18.279 10.596 1.639.973 3.24 1.007 4.89.049 6.122-3.556 12.252-7.096 18.377-10.648.76-.441 1.32-1.003 1.69-1.674.358-.654.537-1.411.537-2.267 0 0 0-14.28-.002-21.423 0-.874-.187-1.647-.563-2.31z"/><path d="M57.754 372.744l7.158.051c0-2.997-3.019-10.337-11.674-10.337-5.515 0-12.93 3.523-12.93 13.652s7.269 13.432 12.93 13.432c9.167 0 11.358-6.374 11.358-9.976l-6.83-.393s.183 4.167-4.565 4.167c-4.383 0-5.114-5.395-5.114-7.23 0-2.789.987-7.266 5.114-7.266s4.553 3.9 4.553 3.9"/></g><g stroke="#5C8DBC" fill-rule="nonzero"><path d="M75.923 485.002c0-.855-.186-1.61-.562-2.26-.369-.637-.92-1.172-1.661-1.594-6.114-3.475-12.234-6.938-18.346-10.416-1.648-.937-3.245-.903-4.88.048-2.434 1.414-14.618 8.293-18.249 10.366-1.495.853-2.222 2.158-2.223 3.855-.002 6.987 0 13.973-.002 20.96 0 .837.178 1.578.537 2.217.369.657.929 1.206 1.686 1.639 3.631 2.072 15.817 8.95 18.25 10.365 1.636.952 3.233.986 4.882.048 6.112-3.478 12.232-6.941 18.347-10.415.757-.433 1.317-.982 1.686-1.639.358-.639.537-1.38.537-2.217 0 0 0-13.97-.002-20.957"/><path d="M74.693 496.325h-1.747v1.722H71.2v-1.722h-1.747v-1.721H71.2v-1.722h1.747v1.722h1.747v1.721m-6.375 0h-1.747v1.722h-1.747v-1.722h-1.747v-1.721h1.747v-1.722h1.747v1.722h1.747v1.721"/><path d="M59.58 499.15a7.609 7.609 0 0 1-6.618 3.815 7.61 7.61 0 0 1-6.592-3.77 7.366 7.366 0 0 1-1.002-3.714c0-4.133 3.4-7.484 7.594-7.484 2.805 0 5.253 1.5 6.569 3.73l6.637-3.768a15.286 15.286 0 0 0-13.206-7.508c-8.423 0-15.25 6.73-15.25 15.03 0 2.723.735 5.277 2.02 7.48a15.285 15.285 0 0 0 13.23 7.55c5.67 0 10.618-3.05 13.246-7.576l-6.628-3.784"/></g><g stroke-width="1.05" fill-rule="nonzero"><path d="M52.119 608.338c-.217.467-.456.992-.703 1.551-.874 1.974-1.843 4.375-2.197 5.913a8.848 8.848 0 0 0-.204 1.98c0 .298.016.61.042.93 1.236.452 2.571.7 3.965.703a11.594 11.594 0 0 0 3.63-.59 6.81 6.81 0 0 1-.757-.797c-1.547-1.966-2.41-4.846-3.776-9.69m-5.713-9.765c-2.955 2.074-4.89 5.496-4.897 9.374.008 3.82 1.883 7.197 4.764 9.28.707-2.932 2.478-5.616 5.135-10.998a43.18 43.18 0 0 0-.54-1.4c-.735-1.84-1.797-3.975-2.745-4.942a7.637 7.637 0 0 0-1.717-1.314" stroke="#63B132"/><path d="M63.051 621.1c-1.525-.19-2.783-.42-3.884-.806a13.82 13.82 0 0 1-6.145 1.433c-7.64 0-13.832-6.168-13.833-13.78 0-4.13 1.826-7.833 4.716-10.358a10.191 10.191 0 0 0-2.402-.293c-4.059.038-8.344 2.275-10.127 8.318-.167.88-.127 1.545-.127 2.333 0 11.98 9.749 21.69 21.774 21.69 7.364 0 13.87-3.644 17.81-9.219-2.131.53-4.18.782-5.935.788-.658 0-1.275-.036-1.847-.105" stroke="#63B132"/><path d="M58.96 616.898c.134.066.439.175.863.295 2.853-2.087 4.707-5.448 4.714-9.246-.011-6.333-5.156-11.456-11.515-11.469-1.263.003-2.478.21-3.614.586 2.337 2.654 3.462 6.447 4.549 10.597l.002.005c.002.003.348 1.152.942 2.676.59 1.522 1.429 3.407 2.345 4.78.601.92 1.263 1.582 1.713 1.776" stroke="#5881D8"/><path d="M53.023 586.256c-7.293 0-13.745 3.577-17.696 9.06 2.056-1.282 4.156-1.745 5.989-1.729 2.53.008 4.52.79 5.475 1.324.23.133.45.275.664.421a13.822 13.822 0 0 1 5.567-1.165c7.641.001 13.835 6.169 13.836 13.78h-.001a13.71 13.71 0 0 1-4.116 9.805c.624.07 1.289.113 1.968.11 2.411 0 5.018-.53 6.972-2.167 1.274-1.069 2.342-2.634 2.934-4.982.116-.906.182-1.828.182-2.766 0-11.978-9.748-21.69-21.774-21.69" stroke="#5881D8"/></g><g fill-rule="nonzero"><path stroke="#A90533" d="M27.5 781.5h51v45h-51z"/><g stroke="#A90533"><path d="M30.844 797.52c-.005-5.68 1.778-10.562 4.842-14.277l-6.446.002v29.978h7.416c-3.668-3.897-5.817-9.28-5.812-15.703zm39.736 15.705c1.582-1.697 3-3.695 4.284-5.98l-7.129-3.569c-2.503 4.076-6.164 7.827-11.227 7.852-7.369-.025-10.264-6.334-10.248-14.454h27.535c.037-.917.037-1.343 0-1.784.18-4.831-1.1-8.892-3.425-12.054l-.012.01h6.2v29.977h-5.992l.014.002z"/><path d="M46.706 790.115c.305-3.676 3.2-6.149 6.594-6.156 3.417.007 5.887 2.48 5.97 6.156H46.706z"/></g><path d="M32.661 817.808h-2.406v2.696h2.317v.249h-2.317v2.962h2.406v.25H29.83v-6.406h2.831v.25zm8.129 6.157h-.575l-1.636-2.704-.928-1.532v4.236h-.425v-6.406h1.46c1.298.005 1.969.554 1.995 1.742-.03.808-.47 1.454-1.088 1.546l-.774.115.43.654 1.54 2.349zm-2.639-6.246h-.5v3.23h.679c1.136.057 1.87-.447 1.837-1.584.03-1.143-.626-1.6-1.818-1.645h-.197zm7.52-.159v6.155h2.05v.25h-2.476v-6.406h.426zm6.313 6.405h-.45l2.554-6.584h.466l2.398 6.584h-.466l-.496-1.207-.128-.31h-3.254l-.127.31-.497 1.207zm3.187-1.677h.708l-.237-.667-.98-2.766-.519-1.464-.432 1.492-.802 2.766-.186.64h2.448zm5.669 1.677v-6.584h.32l3.771 4.977.899 1.186v-5.985h.514v6.584h-.32l-3.771-4.977-.899-1.185v5.984h-.515zm12.742-2.926h2.203c-.083 1.914-1.13 3.172-2.887 3.193-1.758-.023-3.032-1.509-3.059-3.432.027-1.953 1.33-3.43 3.15-3.42.944-.01 1.743.379 2.244 1.077l-.363.182c-.448-.596-1.125-.99-1.864-1.009-1.618.022-2.627 1.486-2.652 3.17.025 1.702 1.045 3.124 2.648 3.094 1.149.034 2.14-.97 2.184-2.177l.018-.518h-1.622v-.16z" stroke="#1F2228"/></g><g transform="translate(29 904)" fill-rule="nonzero"><path d="M.662 34.064c.09 1.858 1.933.992 2.757.415.787-.559 1.02-.09 1.092-1.172.053-.721.125-1.425.089-2.146-1.2-.108-2.488.18-3.472.902-.52.36-1.45 1.55-.466 2.001m36.747 22.83c1.414.884 4.009 3.553 1.879 4.851-2.04 1.875-3.186-2.074-4.976-2.615.77-1.064 1.736-2.038 3.097-2.236zM12.1 59.906c-1.665.252-2.596 1.767-3.992 2.542-1.306.776-1.808-.252-1.915-.469-.197-.09-.179.09-.501-.234-1.217-1.93 1.253-3.336 2.541-4.292 1.79-.36 2.918 1.208 3.867 2.453zM45.266 33.83c-.09 1.857-1.933.992-2.756.415-.788-.56-1.02-.09-1.092-1.172-.054-.722-.125-1.425-.09-2.146 1.2-.109 2.488.18 3.473.901.5.36 1.45 1.551.465 2.002" stroke="#69D7E2" stroke-width=".6"/><path d="M45.75 32.73c-.18-.379-.52-.812-.842-1.046-.823-.595-1.88-.92-2.971-.956a114.856 114.856 0 0 1-.072-3.895v-1.406c-.018-4.437-.071-6.384-.322-8.819-.197-1.911-.501-3.678-.93-5.337 1.45-.56 2.398-1.48 2.774-2.67.358-1.1.179-2.344-.43-3.444-.626-1.082-1.629-1.893-2.792-2.218-1.253-.342-2.613-.09-3.92.794-1.163-.992-2.506-1.75-4.01-2.326C29.57.415 26.473.037 22.267.037v.18l-.018-.18C17.756.396 14.426 1.1 11.67 2.451A13.149 13.149 0 0 0 8.717 4.4c-1.325-.83-2.703-1.028-3.974-.631-1.181.36-2.201 1.208-2.81 2.308-.608 1.1-.752 2.362-.34 3.444.412 1.082 1.36 1.93 2.774 2.453-.447 1.821-.68 3.75-.716 5.879-.035 2.073.054 3.733.376 7.483.233 2.795.322 4.076.358 5.627-1.217-.054-2.434.27-3.347.937-.322.235-.68.65-.841 1.046-.233.505-.143.956.322 1.227.072.865.555 1.262 1.289 1.19.537-.054 1.181-.343 1.736-.74.125-.09.25-.162.376-.216.054-.018.09-.036.143-.054 0 0 .107-.036.143-.054a.359.359 0 0 0 .143-.072c-.035.847-.107 1.73-.268 3.75-.18 2.273-.269 3.517-.304 4.905-.161 5.158.447 8.909 2.273 11.884.573.938 1.27 1.767 2.094 2.525a49.28 49.28 0 0 0-1.056.775c-.752.577-1.27 1.064-1.575 1.605-.394.704-.394 1.407.054 2.146l.017.018.018.018c.197.199.305.253.448.253h.054c.017.036.035.054.053.09.054.09.108.162.161.234.448.523 1.074.65 1.915.145.448-.235.77-.505 1.45-1.082l.036-.037c1.092-.937 1.629-1.28 2.434-1.406l.287-.054c.107.054.214.09.34.144 2.541 1.028 5.495 1.587 8.484 1.695 3.866.144 7.589-.342 10.74-1.497a19.09 19.09 0 0 0 2.38-1.064c.465.18.859.56 1.61 1.443.036.036.036.036.054.072.036.036.036.054.054.072.036.054.09.09.125.145.59.703.985 1.046 1.432 1.244.59.252 1.164.126 1.754-.415 1.038-.649 1.11-1.659.43-2.813-.483-.811-1.325-1.659-2.112-2.2.93-.92 1.736-2.02 2.362-3.264 1.719-3.462 2.38-7.502 2.345-12.695-.018-1.84-.09-3.445-.286-6.51v-.09c.09.036.179.09.268.162.555.379 1.2.685 1.736.74.734.071 1.218-.325 1.29-1.19.447-.29.536-.74.303-1.245zM40.057 3.318c1.074.289 2.004 1.046 2.577 2.056s.734 2.146.412 3.156c-.34 1.064-1.2 1.911-2.542 2.416-.268-.974-.59-1.93-.949-2.85.52-.45.77-1.009.358-1.802-.411-.794-1.127-.884-1.861-.65a13.438 13.438 0 0 0-1.521-1.659c1.18-.757 2.398-.973 3.526-.667zM1.898 9.413c-.377-.974-.251-2.128.321-3.138.573-1.01 1.504-1.803 2.614-2.127 1.145-.343 2.38-.18 3.597.54a11.84 11.84 0 0 0-1.86 2.148c-.93-.487-1.88-.578-2.416.414-.555 1.064.089 1.731 1.002 2.236-.125.307-.25.632-.358.956-.125.397-.25.812-.358 1.226-1.307-.505-2.166-1.28-2.542-2.254zm2.165 24.58c-.018 0-.125.035-.125.053-.054.018-.108.036-.161.072a1.78 1.78 0 0 0-.43.253c-.501.36-1.11.631-1.575.667-.537.054-.841-.18-.895-.83.376-.126.537-.216.68-.432l-.286-.217c-.108.145-.215.199-.537.307-.018 0-.018 0-.036.018-.286-.162-.34-.415-.179-.775.143-.325.465-.704.734-.902.86-.631 2.005-.938 3.15-.866 0 .451.018.902 0 1.335 0 .054 0 .09-.018.144-.018.253-.018.36-.036.487-.053.523-.09.595-.286.685zm5.405 27.211l-.035.036c-.663.577-.985.812-1.396 1.046-.68.415-1.146.325-1.468-.072-.054-.054-.09-.126-.125-.18-.018-.018-.036-.055-.054-.073v-.018c.036-.324.161-.559.483-1.064.018-.018.018-.018.018-.036.197-.288.286-.45.376-.649l-.322-.144c-.072.162-.161.306-.34.595-.018.018-.018.018-.018.036-.322.469-.466.757-.537 1.082h-.072a.65.65 0 0 1-.16-.126c-.699-1.118-.144-2.074 1.431-3.264.197-.144.86-.613 1.038-.758.036 0 .072-.018.108-.036.966.83 2.094 1.551 3.347 2.146 0 .018.018.036.035.054-.733.18-1.306.56-2.309 1.425zm30.053-1.966c.554.938.537 1.696-.161 2.218-.054-.108-.09-.234-.162-.414 0-.018 0-.018-.017-.036-.251-.686-.412-.974-.716-1.299l-.251.253c.268.252.394.523.644 1.154 0 .018 0 .018.018.036.09.234.143.379.197.505-.465.397-.877.469-1.306.27-.376-.162-.734-.505-1.307-1.154a1 1 0 0 1-.107-.144.248.248 0 0 1-.054-.072c-.036-.036-.036-.036-.054-.072-.662-.776-1.056-1.19-1.485-1.425a14.354 14.354 0 0 0 2.702-1.984c.752.56 1.593 1.389 2.059 2.164zm.25-5.842c-1.54 3.12-4.26 5.32-7.911 6.654-3.114 1.136-6.802 1.605-10.614 1.46-6.569-.234-12.26-2.542-14.928-6.906-1.79-2.903-2.38-6.6-2.22-11.685.055-1.389.126-2.633.305-4.905.197-2.561.25-3.3.304-4.455.036-.83.036-1.677.018-2.578-.036-1.587-.125-2.85-.358-5.68-.322-3.752-.411-5.393-.376-7.448.054-2.705.412-5.086 1.164-7.34 1.217-3.66 3.454-6.131 6.676-7.736C14.534 1.443 17.81.757 22.266.397c4.17 0 7.213.378 9.845 1.352 3.15 1.172 5.494 3.228 7.105 6.384 1.038 2.56 1.647 5.32 1.97 8.493.25 2.417.303 4.364.321 8.783v1.406c.018 2.182.054 3.715.144 5.248.035.595.053.847.143 2.272.197 3.065.268 4.652.286 6.492.036 5.175-.608 9.16-2.309 12.569zm5.477-19.746c-.018 0-.036-.018-.053-.018-.323-.109-.43-.18-.537-.307l-.287.216c.161.217.322.307.68.433-.071.65-.376.884-.895.83-.465-.036-1.074-.325-1.575-.668a2.665 2.665 0 0 0-.43-.252c-.017 0-.035-.018-.053-.018-.072-.992-.072-1.244-.107-1.767l-.054-.974c1.002.018 1.987.325 2.738.884.269.198.591.577.734.901.18.307.144.577-.16.74z" stroke="#69D7E2" stroke-width=".4"/><path d="M24.962 18.85c.018.92.197 1.93.036 2.903-.251.469-.716.523-1.128.703a1.688 1.688 0 0 1-1.289-1.01c-.143-1.1.036-2.145.09-3.245 0-.036.68.018 1.288.198.52.162 1.003.433 1.003.45zm-5.066.072c-.5 1.911.663 5.031 2.578 2.47-.143-1.081.018-2.127.071-3.191.018-.09-2.63.595-2.649.721zM9.122 10.993c1.647 6.456 11.903 4.797 11.51-1.677-.466-7.754-13.085-6.257-11.51 1.677" stroke="#69D7E2" stroke-width=".6"/><ellipse stroke="#69D7E2" stroke-width=".6" cx="11.95" cy="9.929" rx="1.736" ry="1.893"/><ellipse stroke="#69D7E2" stroke-width=".6" fill="#3685D6" cx="12.738" cy="10.362" rx="1" ry="1"/><path d="M23.505 9.786c1.271 7.412 13.3 5.446 11.563-2.02-1.557-6.708-11.992-4.85-11.563 2.02" stroke="#69D7E2" stroke-width=".6"/><ellipse stroke="#69D7E2" stroke-width=".6" cx="26.459" cy="9.462" rx="1.7" ry="1.893"/><ellipse stroke="#69D7E2" stroke-width=".6" fill="#3685D6" cx="27.246" cy="9.894" rx="1" ry="1"/><path d="M26.853 18.362c-.34.379-.68.505-1.092.487-.322-.018-.537-.108-1.253-.396-.716-.307-1.11-.415-1.575-.433-.448-.054-.823.036-1.772.36-.09.036-.161.054-.215.073-1.306.45-1.933.414-2.363-.38-.644-1.171.34-2.758 1.683-2.884l4.528-.18c.86.36 1.63.883 2.077 1.442.537.649.555 1.298-.018 1.911z" stroke="#69D7E2" stroke-width=".6"/><path d="M25.188 14.25c-.555-2.055-5.208-1.748-5.101.704.233 1.821 5.638 1.335 5.101-.703z" fill="#69D7E2"/></g><g fill-rule="nonzero"><path stroke="#F97E2F" d="M27 1093.935l11.762-17.467L27 1059h8.821l11.763 17.468-11.763 17.467z"/><path stroke="#9E7046" d="M38.762 1093.935l11.762-17.467L38.762 1059h8.822l23.523 34.935h-8.821l-7.351-10.917-7.351 10.917z"/><path stroke="#F97E2F" d="M67.187 1083.746l-3.92-5.823h13.722v5.823zm-5.881-8.734l-3.92-5.822h19.603v5.822z"/></g><g fill-rule="nonzero"><path d="M45.834 1291.702s-2.372 1.397 1.688 1.87c4.918.569 7.431.487 12.85-.552 0 0 1.425.905 3.415 1.69-12.149 5.275-27.495-.307-17.953-3.008m-1.484-6.885s-2.66 1.995 1.402 2.42c5.253.55 9.402.595 16.58-.806 0 0 .994 1.02 2.555 1.578-14.689 4.352-31.05.343-20.538-3.192" stroke="#5382A1"/><path d="M56.865 1273.137c2.993 3.492-.787 6.635-.787 6.635s7.601-3.976 4.11-8.955c-3.26-4.643-5.76-6.95 7.775-14.905 0 0-21.246 5.377-11.098 17.225" stroke="#E87A20"/><path d="M72.933 1296.794s1.755 1.466-1.933 2.6c-7.013 2.152-29.187 2.802-35.347.085-2.215-.976 1.938-2.33 3.244-2.615 1.362-.3 2.14-.244 2.14-.244-2.462-1.758-15.916 3.452-6.833 4.944 24.77 4.07 45.154-1.833 38.729-4.77" stroke="#5382A1" stroke-width=".8"/><path d="M46.974 1277.683s-11.279 2.714-3.994 3.7c3.076.418 9.208.323 14.92-.162 4.668-.399 9.355-1.247 9.355-1.247s-1.646.714-2.837 1.538c-11.454 3.053-33.581 1.633-27.211-1.49 5.387-2.639 9.767-2.34 9.767-2.34m20.234 11.461c11.644-6.13 6.26-12.022 2.503-11.229-.921.195-1.332.363-1.332.363s.342-.543.995-.778c7.434-2.648 13.15 7.81-2.4 11.953 0 0 .18-.163.234-.309" stroke="#5382A1"/><path d="M60.188 1243.068s6.449 6.536-6.116 16.587c-10.075 8.063-2.297 12.66-.004 17.913-5.881-5.377-10.197-10.11-7.302-14.516 4.25-6.466 16.024-9.602 13.422-19.984" stroke="#E87A20"/><path d="M48.119 1305.757c11.176.725 28.338-.402 28.745-5.761 0 0-.781 2.031-9.237 3.645-9.539 1.819-21.304 1.606-28.282.44 0 0 1.428 1.199 8.774 1.676" stroke="#5382A1" stroke-width=".8"/></g><path d="M53.137 1489.902c-.186 0-.36-.05-.52-.138l-1.649-.988c-.248-.138-.124-.188-.05-.213.335-.113.397-.138.744-.338.037-.025.087-.013.124.013l1.264.763c.05.025.111.025.149 0l4.944-2.891c.05-.025.074-.075.074-.138v-5.769c0-.062-.025-.112-.074-.138l-4.944-2.878c-.05-.025-.112-.025-.15 0l-4.943 2.878c-.05.026-.075.088-.075.138v5.77c0 .05.025.112.075.137l1.35.788c.732.376 1.19-.062 1.19-.5v-5.694c0-.075.062-.15.149-.15h.632a.15.15 0 0 1 .148.15v5.694c0 .989-.532 1.564-1.462 1.564-.285 0-.508 0-1.14-.313l-1.3-.75a1.058 1.058 0 0 1-.521-.914v-5.77c0-.375.198-.725.52-.913l4.944-2.89c.31-.176.731-.176 1.041 0l4.944 2.89c.322.188.52.538.52.914v5.769c0 .375-.198.726-.52.913l-4.944 2.891a1.258 1.258 0 0 1-.52.113zm1.524-3.967c-2.169 0-2.615-1.001-2.615-1.852 0-.075.062-.15.149-.15h.644c.075 0 .137.05.137.125.099.663.384.988 1.697.988 1.041 0 1.487-.237 1.487-.8 0-.326-.124-.564-1.747-.726-1.35-.138-2.193-.438-2.193-1.527 0-1.014.842-1.615 2.255-1.615 1.586 0 2.367.551 2.466 1.752a.203.203 0 0 1-.037.113c-.025.025-.062.05-.1.05h-.644a.146.146 0 0 1-.136-.113c-.149-.688-.533-.913-1.55-.913-1.14 0-1.275.4-1.275.7 0 .364.16.476 1.697.676 1.524.2 2.243.489 2.243 1.565-.012 1.101-.905 1.727-2.478 1.727z" stroke="#66B948" stroke-width=".55"/><path d="M37.796 1467.338a.638.638 0 0 0-.322-.55l-5.254-3.054a.757.757 0 0 0-.285-.088h-.05a.587.587 0 0 0-.284.088l-5.254 3.054a.638.638 0 0 0-.322.55l.012 8.21c0 .112.062.225.161.275.1.063.223.063.31 0l3.123-1.802a.638.638 0 0 0 .322-.55v-3.843c0-.225.124-.438.322-.55l1.326-.776a.59.59 0 0 1 .322-.088c.111 0 .223.025.31.088l1.326.776a.638.638 0 0 1 .322.55v3.842c0 .226.124.438.322.551l3.123 1.802a.3.3 0 0 0 .322 0 .31.31 0 0 0 .16-.275l-.012-8.21zm25.254-11.3a.338.338 0 0 0-.31 0 .327.327 0 0 0-.161.275v8.134c0 .075-.038.15-.112.2a.235.235 0 0 1-.223 0l-1.313-.763a.633.633 0 0 0-.632 0l-5.254 3.066a.638.638 0 0 0-.322.55v6.12c0 .226.124.439.322.551l5.254 3.066a.633.633 0 0 0 .632 0l5.253-3.066a.638.638 0 0 0 .323-.55v-15.256a.643.643 0 0 0-.323-.563l-3.134-1.764zm-.484 15.568c0 .062-.025.112-.074.137l-1.797 1.052a.182.182 0 0 1-.16 0l-1.798-1.052c-.05-.025-.074-.087-.074-.137v-2.103c0-.062.025-.112.074-.137l1.797-1.052a.182.182 0 0 1 .161 0l1.797 1.052c.05.025.074.087.074.137v2.103zm17.967-2.153a.626.626 0 0 0 .31-.55v-1.49a.653.653 0 0 0-.31-.55l-5.216-3.054a.633.633 0 0 0-.632 0l-5.254 3.066a.638.638 0 0 0-.322.55v6.12c0 .226.124.438.322.551l5.217 3.004a.61.61 0 0 0 .62 0l3.159-1.778c.1-.05.161-.162.161-.275a.311.311 0 0 0-.161-.275l-5.279-3.066a.327.327 0 0 1-.16-.276v-1.914c0-.113.061-.226.16-.276l1.648-.95a.3.3 0 0 1 .323 0l1.648.95c.099.063.16.163.16.276v1.501c0 .113.063.226.162.276a.3.3 0 0 0 .322 0l3.122-1.84z" stroke="#1F2228" stroke-width="1.1"/><path d="M46.582 1463.834a.633.633 0 0 0-.632 0l-5.217 3.041a.626.626 0 0 0-.31.55v6.095c0 .226.124.438.31.551l5.217 3.041a.633.633 0 0 0 .632 0l5.216-3.041a.626.626 0 0 0 .31-.55v-6.095a.653.653 0 0 0-.31-.55l-5.216-3.042z" stroke="#66B948" stroke-width="1.1"/><path d="M53.449 1870.013c-7.009 0-13.73 1.414-18.686 3.93-4.956 2.516-7.74 5.929-7.739 9.487 0 3.558 2.783 6.97 7.738 9.487 4.956 2.516 11.678 3.93 18.687 3.93s13.731-1.413 18.687-3.93c4.956-2.516 7.74-5.929 7.738-9.487 0-3.558-2.783-6.97-7.739-9.487-4.956-2.516-11.677-3.93-18.686-3.93z" stroke="#6181B6" stroke-width="1.05"/><path d="M50.615 1873.369h3.439l-.725 3.705h3.258c2.896.178 3.981 1.59 3.62 3.356l-1.267 7.237h-3.619l1.266-6.532c.182-.883.182-1.412-1.085-1.412h-2.716l-1.628 7.944h-3.439l2.896-14.298zm-13.273 3.705h6.694c2.896.178 4.346 1.59 4.346 4.06 0 4.237-3.44 6.71-6.517 6.533H38.61l-.725 3.707h-3.44l2.898-14.3zm24.252 0h6.697c2.896.178 4.344 1.59 4.344 4.06 0 4.237-3.439 6.71-6.517 6.533h-3.256l-.725 3.707h-3.439l2.896-14.3zm-21.357 2.649l-.905 5.295h2.171c1.63-.176 3.078-.705 3.258-3.707 0-1.059-.905-1.588-2.172-1.588h-2.352zm24.253 0l-.905 5.295h2.17c1.63-.176 3.079-.705 3.259-3.707 0-1.059-.905-1.588-2.171-1.588H64.49z" stroke="#1F2228" stroke-width="1.05"/><g stroke-width=".97" fill-rule="nonzero"><path d="M52.292 2151.014c-12.409 0-11.634 5.402-11.634 5.402l.014 5.597h11.842v1.68H35.968s-7.94-.903-7.94 11.667 6.93 12.124 6.93 12.124h4.137v-5.833s-.223-6.958 6.82-6.958H57.66s6.599.107 6.599-6.402v-10.764s1.002-6.513-11.967-6.513zm-6.53 3.764c1.179 0 2.131.956 2.131 2.138a2.133 2.133 0 0 1-2.13 2.14 2.133 2.133 0 0 1-2.13-2.14c0-1.182.952-2.138 2.13-2.138z" stroke="#366F9E"/><path d="M52.645 2199.832c12.41 0 11.634-5.402 11.634-5.402l-.014-5.597H52.424v-1.68h16.545s7.94.903 7.94-11.667-6.93-12.124-6.93-12.124h-4.136v5.833s.223 6.958-6.82 6.958H47.276s-6.598-.107-6.598 6.402v10.764s-1.002 6.513 11.966 6.513zm6.53-3.764a2.133 2.133 0 0 1-2.13-2.138c0-1.183.951-2.14 2.13-2.14 1.178 0 2.13.957 2.13 2.14a2.133 2.133 0 0 1-2.13 2.138z" stroke="#FFCF3E"/></g><g stroke="#CD5B55" fill-rule="nonzero" stroke-width=".9" fill="#FFF"><path d="M64.524 2419.632l-23.588 13.474s-1 .57-.893.69c.106.12 1.506 0 1.506 0l30.041-2.038 2.327-30.464-.5.313-8.893 18.025z"/><path d="M71.525 2430.934l-2.551-17.608-7.266 9.594 9.286 8.242zm.152.803l-19.542-1.535-10.478 3.307-.002.248zm-30.755 1.323l4.647-15.225-10.742 2.297 5.554 12.981zm20.784-10.087l-4.492-17.595-12.855 12.05z"/><path d="M72.961 2405.626l-12.151-9.924-3.384 10.94z"/><path d="M66.757 2392.451l-6.625 3.662-4.235-3.76.244-.24 10.615.048zm-34.121 31.886l2.358-4.3-2.1-6.59-.894 1.787v9.83zm8.234 8.877l4.66-15.436 16.087 5.168c-5.652 5.3-11.92 9.803-20.202 10.798-.24.029-.545-.53-.545-.53zm16.675-26.617l4.13 16.357c4.858-5.109 9.218-10.6 11.354-17.393l-15.484 1.036z"/><path d="M72.987 2405.643c1.652-4.988 2.034-12.143-5.76-13.471l-6.394 3.532 12.154 9.94zm-33.171 28.176c.324.017.748-.28.68-.437l-5.642-13.178-2.854 5.22c.205 7.383 5.003 8.243 7.816 8.395zm17.752-27.197a3902.29 3902.29 0 0 0 11.41 6.988c.237.133 3.244-5.07 3.926-8.011l-15.336 1.023zm-12.044 11.156L52 2430.27c3.828-2.076 6.826-4.606 9.573-7.316l-16.049-5.176z"/><path d="M34.829 2420.22l-.918 10.925c1.731 2.365 4.113 2.57 6.61 2.386-1.806-4.498-5.417-13.493-5.692-13.31zm25.966-24.489l12.863 1.806c-.686-2.91-2.794-4.787-6.388-5.374l-6.475 3.568z"/><path d="M34.848 2420.238l10.587-2.376 12.088-11.234 3.412-10.835-5.372-3.793-9.132 3.418c-2.877 2.676-8.46 7.97-8.661 8.07-.2.102-3.687 6.694-5.359 9.838l2.437 6.912z"/><path d="M58.809 2393.787c3.083 3.113-.02 11.692-6.256 17.873-6.028 5.974-14.298 9.83-17.872 7.149-3.575-2.681.05-11.719 6.286-17.9 6.205-6.182 14.756-10.234 17.842-7.122z"/></g><path d="M76.658 2619.292l-2.099-1.294a28.26 28.26 0 0 0-.06-.61l1.804-1.675a.718.718 0 0 0-.24-1.2l-2.305-.86a26.645 26.645 0 0 0-.18-.593l1.438-1.99a.717.717 0 0 0-.47-1.13l-2.432-.395a20.385 20.385 0 0 0-.292-.544l1.022-2.234a.72.72 0 0 0-.682-1.018l-2.468.086a19.442 19.442 0 0 0-.39-.471l.567-2.395a.717.717 0 0 0-.193-.674.724.724 0 0 0-.676-.192l-2.403.565a20.724 20.724 0 0 0-.474-.389l.086-2.458a.724.724 0 0 0-1.021-.68l-2.243 1.018a26.056 26.056 0 0 0-.546-.291l-.396-2.423a.724.724 0 0 0-1.135-.468l-2 1.433a21.998 21.998 0 0 0-.594-.18l-.862-2.297a.726.726 0 0 0-1.205-.24l-1.682 1.799a21.783 21.783 0 0 0-.612-.06l-1.3-2.091a.723.723 0 0 0-1.227 0l-1.3 2.091a20.77 20.77 0 0 0-.612.06l-1.683-1.799a.721.721 0 0 0-1.205.24l-.862 2.297c-.2.057-.397.118-.595.18l-1.998-1.433a.722.722 0 0 0-1.136.468l-.396 2.423c-.184.094-.365.192-.547.291l-2.242-1.018a.722.722 0 0 0-1.021.68l.086 2.458c-.16.127-.318.257-.474.389l-2.404-.565a.727.727 0 0 0-.677.192.717.717 0 0 0-.192.674l.566 2.395a23.16 23.16 0 0 0-.389.47l-2.468-.085a.728.728 0 0 0-.626.32.717.717 0 0 0-.056.698l1.022 2.234c-.1.18-.198.36-.293.544l-2.431.394a.72.72 0 0 0-.47 1.131l1.438 1.99a20.25 20.25 0 0 0-.18.593l-2.307.86a.72.72 0 0 0-.24 1.2l1.805 1.676c-.023.202-.043.406-.06.609l-2.099 1.294a.718.718 0 0 0 0 1.224l2.1 1.294c.016.204.036.407.059.61l-1.804 1.676a.718.718 0 0 0 .239 1.2l2.306.859c.058.198.118.396.18.592l-1.438 1.991a.717.717 0 0 0 .471 1.13l2.431.395c.095.183.193.364.293.545l-1.022 2.233a.72.72 0 0 0 .683 1.018l2.466-.087c.129.16.258.317.39.473l-.566 2.395a.721.721 0 0 0 .87.864l2.403-.564c.156.132.314.26.474.387l-.086 2.459a.723.723 0 0 0 1.021.68l2.242-1.018c.181.1.363.197.547.291l.396 2.421a.726.726 0 0 0 1.136.47l1.997-1.434c.198.062.396.123.596.18l.862 2.297c.087.233.29.406.536.453a.72.72 0 0 0 .669-.215l1.683-1.797c.203.023.407.043.612.06l1.3 2.092a.724.724 0 0 0 1.227 0l1.3-2.091c.204-.018.408-.038.611-.061l1.683 1.797a.72.72 0 0 0 .669.215.72.72 0 0 0 .536-.453l.862-2.297c.2-.057.398-.118.595-.18l1.998 1.434a.725.725 0 0 0 1.135-.47l.397-2.42c.183-.095.365-.194.546-.292l2.242 1.017a.723.723 0 0 0 1.022-.68l-.086-2.458c.16-.127.317-.255.473-.387l2.404.564a.72.72 0 0 0 .869-.864l-.567-2.395c.132-.156.262-.313.39-.473l2.467.087a.72.72 0 0 0 .682-1.018l-1.021-2.233c.1-.18.197-.362.292-.545l2.431-.394a.719.719 0 0 0 .47-1.131l-1.438-1.99c.062-.197.123-.395.18-.593l2.307-.86a.717.717 0 0 0 .239-1.2l-1.804-1.676c.022-.202.042-.406.06-.609l2.099-1.294a.717.717 0 0 0 0-1.224zm-14.049 17.346a1.482 1.482 0 1 1 .623-2.897 1.481 1.481 0 1 1-.623 2.897zm-.713-4.805a1.353 1.353 0 0 0-1.608 1.037l-.745 3.464a18.263 18.263 0 0 1-7.543 1.618 18.28 18.28 0 0 1-7.701-1.69l-.745-3.465a1.353 1.353 0 0 0-1.607-1.037l-3.07.657a18.23 18.23 0 0 1-1.588-1.864h14.94c.168 0 .281-.03.281-.184v-5.264c0-.153-.113-.183-.282-.183H47.86v-3.337h4.726c.431 0 2.306.123 2.906 2.51.187.734.6 3.123.882 3.887.28.858 1.424 2.571 2.643 2.571h7.444c.085 0 .175-.01.27-.027a18.291 18.291 0 0 1-1.693 1.979l-3.141-.672zm-20.662 4.732a1.482 1.482 0 0 1-.623-2.897 1.482 1.482 0 0 1 .623 2.897zm-5.668-22.89a1.48 1.48 0 0 1-.755 1.954 1.486 1.486 0 0 1-1.959-.754 1.48 1.48 0 0 1 .755-1.955 1.486 1.486 0 0 1 1.96.754zm-1.741 4.112l3.198-1.416c.683-.302.992-1.1.688-1.781l-.658-1.484h2.59v11.632h-5.226a18.163 18.163 0 0 1-.592-6.951zm14.035-1.13v-3.428h6.17c.318 0 2.25.367 2.25 1.805 0 1.195-1.482 1.623-2.7 1.623h-5.72zm22.42 3.086c0 .455-.016.905-.05 1.352h-1.875c-.188 0-.264.123-.264.306v.858c0 2.02-1.143 2.459-2.144 2.57-.954.108-2.012-.397-2.143-.979-.562-3.153-1.5-3.826-2.981-4.99 1.838-1.162 3.75-2.877 3.75-5.172 0-2.48-1.706-4.04-2.869-4.806-1.631-1.071-3.437-1.286-3.925-1.286H38.383a18.274 18.274 0 0 1 10.227-5.75l2.286 2.39c.517.54 1.373.56 1.914.044l2.558-2.438a18.294 18.294 0 0 1 12.514 8.879l-1.751 3.94a1.35 1.35 0 0 0 .689 1.781l3.372 1.492c.058.596.088 1.199.088 1.81zm-19.383-19.929a1.487 1.487 0 0 1 2.099.048c.566.593.545 1.53-.05 2.095a1.487 1.487 0 0 1-2.098-.049 1.479 1.479 0 0 1 .049-2.094zm17.38 13.932a1.485 1.485 0 0 1 1.958-.753 1.48 1.48 0 0 1 .755 1.954 1.486 1.486 0 0 1-1.959.754 1.48 1.48 0 0 1-.755-1.955z" stroke="#1F2228"/><g fill-rule="nonzero" stroke-width=".9" fill="#FFF"><path d="M32 2814.615v5.077c0 .856 18.638 2.29 30.782 5.077 5.866-1.347 10.218-3.01 10.218-5.077v-5.077c0-2.066-4.352-3.73-10.218-5.077-12.144 2.789-30.782 4.222-30.782 5.077m0-20.307v5.077c0 .855 18.638 2.289 30.782 5.077 5.866-1.348 10.218-3.01 10.218-5.077v-5.077c0-2.067-4.352-3.73-10.218-5.077-12.144 2.788-30.782 4.222-30.782 5.077" stroke="#1F2228"/><path d="M32 2804.462v15.23c0-1.269 41-3.807 41-10.154v-15.23c0 6.346-41 8.884-41 10.154m0-20.308v15.23c0-1.269 41-3.807 41-10.153V2774c0 6.346-41 8.885-41 10.154m0 40.616V2840c0-1.27 41-3.808 41-10.154v-15.23c0 6.346-41 8.884-41 10.153" stroke="#DB001B"/></g><text font-family="OpenSans, Open Sans" font-size="11" fill="#A278DC"><tspan x="66" y="380">#</tspan></text><path d="M54.724 683.089l.262-1.452-1.09.993c-.115.104-.326.301-.622.582-.491.466-1.038.999-1.628 1.588a89.597 89.597 0 0 0-4.938 5.343c-1.66 1.957-3.098 3.857-4.252 5.662-.266.416-.516.825-.749 1.228-4.06 7.01-6.011 15.974-4.897 22.553.988 5.835 3.744 9.696 7.714 11.902 1.636.91 3.382 1.48 5.146 1.78 1.156.197 2.144.251 2.872.228l.109-.005c.099.001.335-.005.662-.025.54-.032 1.14-.09 1.787-.179 1.848-.255 3.698-.715 5.429-1.432 2.668-1.106 4.809-2.724 6.218-4.943 3.367-5.304 3.412-11.596 1.627-14.795-.6-1.076-1.384-2.201-2.488-3.62-.566-.727-2.688-3.353-3.06-3.823-2.312-2.925-3.806-5.166-4.914-7.598-1.553-3.408-2.501-6.49-2.96-9.227-.314-1.877-.365-3.364-.266-4.437.015-.168.03-.276.038-.323z" stroke="#846E91"/><path d="M40 722s3 5 7 7 9 1 9 1-2.687-.344-7.44-2.72C43.808 724.904 40 722 40 722z" stroke="#846E91"/><path fill="#3685D6" d="M0 0h799v110H0z"/><text font-family="OpenSans-Bold, Open Sans" font-size="30" font-weight="bold" fill="#FFF"><tspan x="99" y="54">Honeypot&amp;apos;s Technical HR Cheat Sheet</tspan></text><text font-family="OpenSans, Open Sans" font-size="20" fill="#FFF"><tspan x="98" y="83">Backend Terms</tspan></text><g transform="translate(34 38.075)"><mask id="d" fill="#fff"><use xlink:href="#c"/></mask><path d="M46.755 24.015a35.2 35.2 0 0 0-2.63-11.08 35.64 35.64 0 0 0-1.242-2.695c1.61-.938 2.692-2.66 2.692-4.635 0-2.975-2.451-5.388-5.475-5.388H6.704C3.68.217 1.229 2.63 1.229 5.605c0 1.974 1.08 3.694 2.688 4.633a35.61 35.61 0 0 0-1.241 2.694A35.207 35.207 0 0 0 .044 24.014c-.021.464-.044.928-.044 1.397 0 3.371.557 6.612 1.571 9.649.303.855.884 2.327 1.597 3.31.078.1.15.199.24.305l.031.038c.316.374.7.774 1.16 1.171a9.362 9.362 0 0 0 1.618 1.127c.606.33 1.314.597 2.011.686.731.103 1.502-.02 2.09-.427.6-.396 1.029-1.09 1.277-1.874.495-1.59.44-3.39.289-5.018-.166-1.642-.469-3.167-.768-4.463-.61-2.595-1.207-4.28-1.207-4.28s.714 1.638 1.508 4.2c.393 1.283.806 2.797 1.093 4.461.265 1.662.48 3.493.047 5.364-.222.92-.685 1.889-1.529 2.544-.844.666-1.9.873-2.847.895-.998.007-1.884-.217-2.687-.518-.098-.037-.182-.086-.277-.125a31.247 31.247 0 0 0 5.186 5.903c1.05.568 2.76.988 5.024-.17 3.949-2.018 7.898-2.242 7.898-2.242s3.949.224 7.898 2.242c2.653 1.356 4.545.55 5.503-.127a31.264 31.264 0 0 0 4.844-5.588c-.089.037-.167.082-.258.117-.803.3-1.689.525-2.687.518-.947-.023-2.003-.229-2.847-.895-.844-.656-1.307-1.625-1.529-2.544-.432-1.872-.219-3.702.047-5.364.287-1.665.7-3.179 1.093-4.46.795-2.563 1.508-4.2 1.508-4.2s-.597 1.684-1.207 4.278c-.3 1.297-.602 2.822-.768 4.464-.151 1.628-.206 3.429.289 5.018.248.784.677 1.478 1.277 1.874.588.407 1.36.53 2.09.427.698-.089 1.405-.356 2.011-.686a9.405 9.405 0 0 0 1.618-1.127c.626-.54 1.1-1.08 1.464-1.556.568-.796 1.05-1.894 1.373-2.735A30.38 30.38 0 0 0 46.8 25.41c0-.469-.023-.932-.044-1.396" fill="#F6C823" mask="url(#d)"/></g><path d="M52.49 47.53c0 2.715-2.236 4.917-4.996 4.917-2.759 0-4.996-2.202-4.996-4.917 0-2.716 2.237-4.918 4.996-4.918 2.76 0 4.996 2.202 4.996 4.918" fill="#FFF"/><path d="M40.704 40.977c-1.517 0-2.747 1.21-2.747 2.703 0 .969.522 1.812 1.299 2.29a36.042 36.042 0 0 1 3.178-4.373 2.749 2.749 0 0 0-1.73-.62m33.396 0c-.66 0-1.259.24-1.732.622a36.075 36.075 0 0 1 3.177 4.372 2.686 2.686 0 0 0 1.302-2.29c0-1.494-1.23-2.704-2.747-2.704m-26.606 4.364c-.154 0-.304.016-.45.045.09.167.141.357.141.559a1.21 1.21 0 0 1-1.22 1.2c-.227 0-.438-.06-.62-.167-.047.177-.074.36-.074.552 0 1.208.996 2.188 2.223 2.188 1.228 0 2.224-.98 2.224-2.188 0-1.209-.996-2.189-2.224-2.189" fill="#25282C"/><path d="M72.3 47.53c0 2.715-2.236 4.917-4.995 4.917-2.76 0-4.996-2.202-4.996-4.917 0-2.716 2.237-4.918 4.996-4.918 2.76 0 4.996 2.202 4.996 4.918" fill="#FFF"/><path d="M67.305 45.341a2.29 2.29 0 0 0-.45.045c.09.167.14.357.14.559a1.21 1.21 0 0 1-1.22 1.2c-.226 0-.438-.06-.62-.167-.046.177-.073.36-.073.552 0 1.208.995 2.188 2.223 2.188 1.228 0 2.223-.98 2.223-2.188 0-1.209-.995-2.189-2.223-2.189" fill="#25282C"/><path d="M64.117 57.025c0 3.692-3.04 6.685-6.792 6.685s-6.793-2.993-6.793-6.685c0-3.693 3.041-6.686 6.793-6.686 3.751 0 6.792 2.993 6.792 6.686" fill="#FFF"/><path d="M60.849 53.374a.902.902 0 0 0-.043-.264.746.746 0 0 0-.02-.066.928.928 0 0 0-.129-.227v-.001s-.398-.81-3.292-.818h-.04c-1.684.005-2.521.28-2.928.51a.942.942 0 0 0-.533.536h-.001s-.01.029-.023.077a.91.91 0 0 0-.04.253c0 .008.002.015.003.023-.018.42.122 1.16 1.09 1.919.884.693 1.574.95 1.99 1.049v7.323c.147.01.293.022.441.022.15 0 .295-.013.441-.022v-7.323c.417-.099 1.107-.356 1.99-1.05.964-.755 1.107-1.492 1.091-1.913 0-.01.003-.018.003-.028" fill="#25282C"/><path d="M46.395 36.858h21.908a19.444 19.444 0 0 0-9.043-3.265l1.342-3.594s-.854-.7-3.253-.7-3.253.7-3.253.7l1.342 3.594a19.44 19.44 0 0 0-9.043 3.265" fill="#F6C823"/><path d="M37.687 74.217s-.363-.465-.763-1.25c-.402-.782-.81-1.887-1.07-3.024a16.77 16.77 0 0 1-.417-3.167c-.023-.872.033-1.454.033-1.454s.043.141.103.388l.241 1.02c.192.842.422 1.96.684 3.068.25 1.11.54 2.21.779 3.034l.294 1c.079.243.116.385.116.385m33.878-7.021s-.01.391-.072.958a24.42 24.42 0 0 1-.345 2.042c-.16.733-.34 1.46-.504 2.007-.076.273-.167.499-.213.66-.053.16-.093.25-.093.25s-.065-.385-.07-.963a10.44 10.44 0 0 1 .233-2.087c.16-.746.398-1.474.627-2.003.231-.53.437-.864.437-.864m-30.949-28.25s-.409.154-.942.47a7.95 7.95 0 0 0-.866.57 6.86 6.86 0 0 0-.87.777c-.282.28-.517.6-.743.9-.202.316-.4.612-.542.885-.162.265-.274.5-.357.666a4.34 4.34 0 0 1-.143.26s0-.107.02-.294c.028-.182.027-.46.126-.769.07-.319.215-.672.397-1.042.198-.363.455-.726.76-1.052.621-.645 1.43-1.086 2.073-1.245.644-.173 1.087-.126 1.087-.126" fill="#FFF"/></g></svg>