<svg width="799" height="1358" viewBox="0 0 799 1358" xmlns="http://www.w3.org/2000/svg" xmlns:xlink="http://www.w3.org/1999/xlink" style="background:#fff"><title>cheat-sheet-glossary</title><defs><path id="a" d="M.012.109v24.354H23.4V.109H.012z"/><path id="c" d="M.024.217v48.708H46.8V.217H.024z"/></defs><g fill="none" fill-rule="evenodd"><path d="M22.446 205.5h750" stroke="#E2E8F0" stroke-linecap="square"/><text font-family="OpenSans-Semibold, Open Sans" font-size="18" font-weight="500" fill="#3685D6"><tspan x="101" y="154">API</tspan></text><text font-family="OpenSans, Open Sans" font-size="14" fill="#1F2228"><tspan x="291.031" y="152">Functions and procedures that allow you to create applications </tspan> <tspan x="291.031" y="171">that access data of an operating system or other service.</tspan></text><path d="M22.446 306.5h750" stroke="#E2E8F0" stroke-linecap="square"/><text font-family="OpenSans-Semibold, Open Sans" font-size="18" font-weight="500" fill="#3685D6"><tspan x="101" y="255">Backend</tspan></text><text font-family="OpenSans, Open Sans" font-size="14" fill="#1F2228"><tspan x="291.031" y="253">The backend consists of the server, the app and the database, this </tspan> <tspan x="291.031" y="272">technology is what enables the frontend to happen.</tspan></text><path d="M20 428h750" stroke="#E2E8F0" stroke-linecap="square"/><text font-family="OpenSans-Semibold, Open Sans" font-size="18" font-weight="500" fill="#3685D6"><tspan x="99" y="358">Database</tspan></text><text font-family="OpenSans, Open Sans" font-size="14" fill="#1F2228"><tspan x="289" y="356">A database is a collection of information that is organized in a way </tspan> <tspan x="289" y="375">that makes it quick and easy to access, manage, and update by a </tspan> <tspan x="289" y="394">computer program. Comes to getting the data needed.</tspan></text><path d="M20 571h750" stroke="#E2E8F0" stroke-linecap="square"/><text font-family="OpenSans-Semibold, Open Sans" font-size="18" font-weight="500" fill="#3685D6"><tspan x="99" y="476">Deployment</tspan></text><text font-family="OpenSans, Open Sans" font-size="14" fill="#1F2228"><tspan x="289" y="474">Deployment is the movement of new software or hardware from the </tspan> <tspan x="289" y="493">testing phase to the production phase, getting the system available </tspan> <tspan x="289" y="512">for use. This means the installation, the configuration, running, </tspan> <tspan x="289" y="531">testing and all the changes that has to be done.</tspan></text><path d="M20 705h750" stroke="#E2E8F0" stroke-linecap="square"/><text font-family="OpenSans-Semibold, Open Sans" font-size="18" font-weight="500" fill="#3685D6"><tspan x="99" y="619">Framework</tspan></text><text font-family="OpenSans, Open Sans" font-size="14" fill="#1F2228"><tspan x="289" y="617">Reusable software environment that provides particular functionality </tspan> <tspan x="289" y="636">as part of a larger software platform to facilitate development of </tspan> <tspan x="289" y="655">software applications, products and solutions.</tspan></text><path d="M20 785h750" stroke="#E2E8F0" stroke-linecap="square"/><text font-family="OpenSans-Semibold, Open Sans" font-size="18" font-weight="500" fill="#3685D6"><tspan x="99" y="753">Frontend</tspan></text><text font-family="OpenSans, Open Sans" font-size="14" fill="#1F2228"><tspan x="289" y="751">The frontend is the part of the web that users can see and interact </tspan> <tspan x="289" y="770">with.</tspan></text><path d="M20 902h750" stroke="#E2E8F0" stroke-linecap="square"/><text font-family="OpenSans-Semibold, Open Sans" font-size="18" font-weight="500" fill="#3685D6"><tspan x="99" y="830">Library</tspan></text><text font-family="OpenSans, Open Sans" font-size="14" fill="#1F2228"><tspan x="289" y="828">Libraries, in most programming languages, are resources which you </tspan> <tspan x="289" y="847">can reuse. They are sets of pre-written code that is stored to assist </tspan> <tspan x="289" y="866">programmers in the development of software.</tspan></text><path d="M21 1070h750" stroke="#E2E8F0" stroke-linecap="square"/><text font-family="OpenSans-Semibold, Open Sans" font-size="18" font-weight="500" fill="#3685D6"><tspan x="99" y="946">Programming</tspan></text><text font-family="OpenSans, Open Sans" font-size="14" fill="#1F2228"><tspan x="289" y="944">Computer programming is a bunch of instructions that tell a </tspan> <tspan x="289" y="963">computer/software program what to do in a language that the </tspan> <tspan x="289" y="982">computer understands. These instructions come in the form of </tspan> <tspan x="289" y="1001">many different languages such as C++, Java, JavaScript, HTML, </tspan> <tspan x="289" y="1020">Ruby, and Python. Using the appropiate language, you can </tspan> <tspan x="289" y="1039">program/create all sorts of software.</tspan></text><path d="M21 1183h750" stroke="#E2E8F0" stroke-linecap="square"/><text font-family="OpenSans-Semibold, Open Sans" font-size="18" font-weight="500" fill="#3685D6"><tspan x="100" y="1114">Server</tspan></text><text font-family="OpenSans, Open Sans" font-size="14" fill="#1F2228"><tspan x="290" y="1110">A server is a computer program or a device that provides </tspan> <tspan x="290" y="1129">functionality, that processes requests and delivers data, for other </tspan> <tspan x="290" y="1148">programs or devices.</tspan></text><path fill="#3685D6" d="M0 0h799v110H0z"/><text font-family="OpenSans-Bold, Open Sans" font-size="30" font-weight="bold" fill="#FFF"><tspan x="99" y="54">Honeypot&amp;apos;s Technical HR Cheat Sheet</tspan></text><text font-family="OpenSans, Open Sans" font-size="20" fill="#FFF"><tspan x="98" y="83">Glossary</tspan></text><g transform="translate(620 1314.537)"><mask id="b" fill="#fff"><use xlink:href="#a"/></mask><path d="M23.378 12.007a17.6 17.6 0 0 0-1.316-5.54 17.82 17.82 0 0 0-.62-1.347 2.682 2.682 0 0 0 1.345-2.317c0-1.488-1.225-2.694-2.737-2.694H3.352C1.84.109.614 1.315.614 2.803c0 .986.54 1.846 1.345 2.316-.228.438-.43.89-.621 1.347a17.604 17.604 0 0 0-1.316 5.541c-.01.232-.022.464-.022.699 0 1.685.279 3.306.786 4.824.15.427.442 1.163.798 1.655.039.05.075.1.12.152l.016.02c.158.186.35.387.58.585.232.199.502.398.808.564.304.165.657.298 1.006.343.366.051.75-.01 1.045-.214.3-.198.514-.545.639-.937.247-.795.22-1.695.144-2.509a17.916 17.916 0 0 0-.384-2.232c-.305-1.297-.604-2.14-.604-2.14s.357.82.755 2.1c.196.642.402 1.399.546 2.231.133.831.24 1.746.023 2.682-.11.46-.342.944-.764 1.272-.422.333-.95.436-1.424.448a3.709 3.709 0 0 1-1.343-.26c-.05-.018-.09-.042-.138-.062A15.623 15.623 0 0 0 5.2 24.18c.525.284 1.38.493 2.512-.085 1.975-1.01 3.95-1.121 3.95-1.121s1.974.112 3.948 1.12c1.327.679 2.273.275 2.752-.063a15.632 15.632 0 0 0 2.422-2.794c-.044.018-.083.04-.129.058-.401.15-.844.263-1.343.26-.474-.012-1.002-.115-1.424-.448-.422-.328-.653-.813-.764-1.272-.217-.936-.11-1.851.023-2.682.144-.833.35-1.59.546-2.23.398-1.282.755-2.1.755-2.1s-.3.842-.604 2.14a17.91 17.91 0 0 0-.384 2.231c-.076.814-.103 1.714.144 2.509.125.392.339.739.639.937.294.203.68.265 1.045.213a2.937 2.937 0 0 0 1.006-.343c.306-.166.576-.364.808-.563.313-.27.55-.54.733-.778.284-.398.525-.947.686-1.368a15.19 15.19 0 0 0 .878-5.095c0-.235-.012-.467-.022-.699" fill="#F6C823" mask="url(#b)"/></g><path d="M629.245 1319.265c0 1.358-1.118 2.458-2.498 2.458-1.38 0-2.498-1.1-2.498-2.458s1.119-2.459 2.498-2.459c1.38 0 2.498 1.1 2.498 2.459" fill="#FFF"/><path d="M623.352 1315.989c-.759 0-1.373.605-1.373 1.351 0 .484.26.906.649 1.145.475-.769 1.006-1.5 1.589-2.187a1.374 1.374 0 0 0-.865-.31m16.698.001c-.33 0-.63.12-.866.31a18.038 18.038 0 0 1 1.588 2.187c.39-.239.651-.66.651-1.146 0-.746-.614-1.351-1.373-1.351m-13.303 2.181c-.077 0-.152.008-.225.023a.59.59 0 0 1 .07.28c0 .331-.273.6-.61.6a.614.614 0 0 1-.31-.084c-.023.088-.036.18-.036.276 0 .604.497 1.094 1.111 1.094s1.112-.49 1.112-1.094c0-.604-.498-1.094-1.112-1.094" fill="#25282C"/><path d="M639.15 1319.265c0 1.358-1.118 2.458-2.498 2.458-1.38 0-2.498-1.1-2.498-2.458s1.119-2.459 2.498-2.459c1.38 0 2.498 1.1 2.498 2.459" fill="#FFF"/><path d="M636.652 1318.17c-.077 0-.152.008-.224.023a.59.59 0 0 1 .07.28c0 .331-.274.6-.61.6a.614.614 0 0 1-.31-.084c-.024.088-.037.18-.037.276 0 .604.497 1.094 1.111 1.094s1.112-.49 1.112-1.094c0-.604-.498-1.094-1.112-1.094" fill="#25282C"/><path d="M635.059 1324.012c0 1.846-1.52 3.343-3.397 3.343-1.875 0-3.396-1.497-3.396-3.343 0-1.846 1.52-3.343 3.396-3.343s3.397 1.497 3.397 3.343" fill="#FFF"/><path d="M633.425 1322.187a.45.45 0 0 0-.022-.132l-.01-.033a.464.464 0 0 0-.064-.114s-.2-.405-1.647-.409h-.02c-.841.002-1.26.14-1.464.255a.47.47 0 0 0-.266.268s-.006.014-.012.038a.455.455 0 0 0-.02.127l.001.012c-.008.21.062.58.546.959.442.347.787.475.995.524v3.662c.073.005.146.011.22.011.075 0 .148-.006.22-.01v-3.663c.209-.049.554-.178.996-.524.482-.378.553-.746.545-.957l.002-.014" fill="#25282C"/><path d="M626.197 1313.929h10.954a9.722 9.722 0 0 0-4.52-1.632l.67-1.798s-.427-.35-1.627-.35c-1.199 0-1.626.35-1.626.35l.67 1.798a9.72 9.72 0 0 0-4.52 1.632" fill="#F6C823"/><path d="M621.844 1332.608s-.182-.232-.382-.625a6.805 6.805 0 0 1-.535-1.512 8.385 8.385 0 0 1-.208-1.583c-.012-.436.016-.727.016-.727s.022.07.052.194l.12.51c.096.421.21.98.342 1.534.125.555.27 1.105.39 1.517l.146.5c.04.122.059.192.059.192m16.938-3.51s-.005.195-.035.48a12.21 12.21 0 0 1-.173 1.02c-.08.366-.17.73-.252 1.003-.038.137-.083.25-.106.33-.027.08-.047.126-.047.126s-.032-.193-.035-.482a5.22 5.22 0 0 1 .117-1.043c.08-.374.199-.737.313-1.002.116-.265.218-.432.218-.432m-15.474-14.125s-.204.077-.47.235a3.975 3.975 0 0 0-.434.285c-.15.112-.299.245-.435.388-.14.14-.258.3-.371.45-.102.158-.2.306-.272.443-.08.132-.137.25-.178.333a2.17 2.17 0 0 1-.071.13s0-.054.01-.147c.014-.091.013-.23.063-.384a2.37 2.37 0 0 1 .198-.522 2.307 2.307 0 0 1 1.417-1.148c.322-.086.543-.063.543-.063" fill="#FFF"/><path d="M676.97 1331.028c-.732.718-1.629 1.076-2.692 1.076-1.047 0-1.936-.358-2.667-1.076-.731-.715-1.096-1.638-1.096-2.765 0-1.111.365-2.028 1.096-2.753.731-.725 1.62-1.087 2.667-1.087 1.047 0 1.94.362 2.68 1.087.738.725 1.108 1.642 1.108 2.753 0 1.127-.365 2.05-1.096 2.765zm-2.692-9.213c-1.961 0-3.61.608-4.947 1.823-1.338 1.216-2.007 2.757-2.007 4.625 0 1.868.669 3.41 2.007 4.626 1.337 1.216 2.986 1.824 4.947 1.824 1.977 0 3.635-.608 4.972-1.824 1.338-1.216 2.006-2.758 2.006-4.626 0-1.868-.672-3.41-2.018-4.625-1.346-1.215-3-1.823-4.96-1.823zm27.939 4.854c.183-.772.543-1.38 1.084-1.823.54-.443 1.217-.665 2.031-.665.665 0 1.225.234 1.683.701.456.467.693 1.063.71 1.787h-5.508zm3.115-4.854c-1.91 0-3.464.6-4.66 1.8-1.197 1.199-1.795 2.749-1.795 4.648 0 1.804.627 3.33 1.882 4.578 1.254 1.247 2.903 1.872 4.947 1.872.598 0 1.184-.07 1.757-.207a8.332 8.332 0 0 0 1.408-.446c.366-.16.719-.347 1.06-.556.34-.209.56-.357.66-.446.1-.088.175-.157.223-.206l-1.32-2.126-.449.339c-.282.226-.722.455-1.32.689a4.894 4.894 0 0 1-1.795.35c-.997 0-1.853-.29-2.567-.87-.714-.58-1.13-1.392-1.246-2.44h8.774l.074-1.135c0-1.69-.498-3.087-1.496-4.19-.996-1.103-2.376-1.654-4.137-1.654zm30.979 9.286c-.615.685-1.38 1.027-2.292 1.027-.998 0-1.77-.374-2.318-1.123-.549-.749-.823-1.638-.823-2.67 0-1.287.307-2.257.922-2.91a2.996 2.996 0 0 1 2.268-.978c.947 0 1.71.355 2.293 1.063.582.708.872 1.642.872 2.802 0 1.175-.308 2.105-.922 2.789zm-1.545-9.286c-.549 0-1.068.072-1.559.217-.49.145-.871.302-1.145.47-.275.17-.528.367-.76.592-.234.226-.38.383-.437.471a8.904 8.904 0 0 1-.137.206h-.05v-.483c0-.789-.532-1.184-1.595-1.184h-5.782c-.864 0-1.429.387-1.694 1.16l-.072.203-2.52 7.101-2.991-7.305c-.166-.418-.374-.716-.624-.893-.248-.177-.597-.266-1.047-.266h-2.443l5.634 12.294-.424.942c-.448 1.047-1.146 1.57-2.094 1.57-.698 0-1.304-.281-1.82-.845l-1.22 2.173.374.314c.233.21.615.419 1.146.629a4.594 4.594 0 0 0 1.695.314 4.81 4.81 0 0 0 2.717-.81c.813-.54 1.437-1.34 1.87-2.403l4.56-11.134c.116-.29.357-.435.723-.435h2.193c.365 0 .548.177.548.53v14.01h3.14v-5.097a9.58 9.58 0 0 0-.05-1.062h.05l.35.41c.232.258.65.524 1.258.797.606.274 1.284.412 2.032.412 1.694 0 3.09-.593 4.187-1.776 1.096-1.183 1.644-2.741 1.644-4.674 0-1.915-.515-3.47-1.545-4.661-1.03-1.192-2.401-1.787-4.112-1.787zm16.898 9.213c-.731.718-1.628 1.076-2.69 1.076-1.048 0-1.938-.358-2.668-1.076-.731-.715-1.097-1.638-1.097-2.765 0-1.111.366-2.028 1.097-2.753.73-.725 1.62-1.087 2.667-1.087 1.046 0 1.94.362 2.679 1.087.74.725 1.109 1.642 1.109 2.753 0 1.127-.366 2.05-1.097 2.765zm-2.69-9.213c-1.962 0-3.61.608-4.949 1.823-1.337 1.216-2.006 2.757-2.006 4.625 0 1.868.669 3.41 2.006 4.626 1.338 1.216 2.987 1.824 4.948 1.824 1.977 0 3.634-.608 4.972-1.824 1.337-1.216 2.006-2.758 2.006-4.626 0-1.868-.673-3.41-2.018-4.625-1.347-1.215-3-1.823-4.96-1.823zm15.575 10.023a3.186 3.186 0 0 1-1.732-.495c-.524-.33-.786-.938-.786-1.824v-4.975h2.892v-2.44h-2.892v-3.357h-3.09v3.357h-1.72v2.44h1.645v5.362c0 .79.13 1.477.386 2.065.257.588.574 1.039.947 1.353.375.313.818.566 1.334.76.515.194.972.319 1.37.374.4.057.815.085 1.247.085.382 0 .706-.024.971-.073v-2.68l-.572.048m-102.942-12.921v5.627h-7.8v-5.627c0-.564-.134-.979-.4-1.245-.265-.266-.697-.399-1.295-.399h-1.57v17.15h3.264v-7.198h7.801v7.197h3.265v-17.149h-1.57c-1.13 0-1.695.549-1.695 1.644m30.043 2.898c-1.147 0-2.094.257-2.842.772-.748.516-1.296 1.111-1.645 1.788h-.05l.05-.532v-.362c0-.917-.557-1.377-1.67-1.377h-1.37v12.318h3.14v-5.652c0-.611.083-1.159.25-1.642a3.524 3.524 0 0 1 1.257-1.824c.607-.458 1.325-.688 2.156-.688.749 0 1.268.214 1.558.64.29.427.437 1.051.437 1.872v5.652c0 .58.132.998.398 1.256.266.257.698.386 1.296.386h1.47v-7.922c0-3.123-1.478-4.685-4.436-4.685" fill="#25282C"/><g transform="translate(32 237)"><path d="M44.141 5.5H.5V3C.5 1.617 1.615.5 2.998.5h38.645A2.501 2.501 0 0 1 44.14 3v2.5z" stroke="#3685D6"/><circle fill="#3685D6" cx="4" cy="3" r="1"/><circle fill="#3685D6" cx="7" cy="3" r="1"/><circle fill="#3685D6" cx="10" cy="3" r="1"/><path d="M.5 5.5h43.641v26.771c0 1.25-.857 2.229-1.884 2.229H2.384C1.362 34.5.5 33.515.5 32.271V5.5z" stroke="#3685D6"/><text font-family="ProximaNova-Semibold, Proxima Nova" font-size="16" font-weight="500" fill="#3685D6"><tspan x="5" y="21">&amp;gt;_</tspan></text></g><g fill-rule="nonzero"><path d="M71.822 148.676c.007-.167.012-.336.012-.505 0-6.17-4.948-11.171-11.052-11.171-4.42 0-8.233 2.624-10 6.414a5.98 5.98 0 0 0-3.509-1.128c-3.267 0-5.916 2.59-5.916 5.786 0 .474.06.934.17 1.375-3.727.803-6.527 4.214-6.527 8.3 0 4.682 3.676 8.253 8.212 8.253h26.93c4.34 0 7.858-3.75 7.858-8.652 0-4.251-2.646-7.802-6.178-8.672zm-1.68 15.874h-26.93c-3.801 0-6.779-2.988-6.779-6.803 0-3.315 2.268-6.208 5.393-6.882.38-.082.712-.317.918-.652a1.46 1.46 0 0 0 .172-1.121 4.214 4.214 0 0 1-.126-1.02c0-2.39 2.011-4.336 4.483-4.336.972 0 1.897.297 2.676.859a1.422 1.422 0 0 0 2.128-.562c1.582-3.392 5-5.583 8.705-5.583 5.304 0 9.62 4.361 9.62 9.721 0 .149-.005.296-.012.442a1.448 1.448 0 0 0 1.094 1.472c2.945.725 5.083 3.78 5.083 7.263 0 4.039-2.823 7.202-6.425 7.202z" stroke="#FFF" stroke-width=".5" fill="#3685D6"/><path d="M62.314 153.075l-.784-.043a.513.513 0 0 1-.424-.328l-.29-.71a.522.522 0 0 1 .07-.534l.524-.59a.393.393 0 0 0 .009-.494l-1.12-1.133a.383.383 0 0 0-.488.009l-.584.53a.505.505 0 0 1-.528.07l-.702-.293a.52.52 0 0 1-.324-.43l-.043-.792a.41.41 0 0 0-.337-.37s-.413-.056-.794-.056c-.38 0-.793.056-.793.056a.41.41 0 0 0-.338.37l-.043.793a.518.518 0 0 1-.324.429l-.7.293a.505.505 0 0 1-.53-.07l-.583-.53a.381.381 0 0 0-.488-.009l-1.12 1.133a.393.393 0 0 0 .009.493l.524.591a.52.52 0 0 1 .07.535l-.29.709a.514.514 0 0 1-.424.328l-.784.043a.409.409 0 0 0-.366.342s-.055.418-.055.802c0 .384.055.802.055.802a.41.41 0 0 0 .366.342l.784.043c.177.01.367.158.424.328l.29.709c.08.16.048.401-.07.535l-.524.59a.394.394 0 0 0-.009.495l1.12 1.132a.382.382 0 0 0 .488-.009l.584-.53a.506.506 0 0 1 .528-.07l.701.293c.169.056.315.25.324.43l.043.792a.41.41 0 0 0 .338.37s.413.057.793.057c.38 0 .794-.057.794-.057a.41.41 0 0 0 .337-.37l.043-.793a.52.52 0 0 1 .324-.43l.7-.292a.507.507 0 0 1 .53.07l.584.53c.132.12.352.124.488.01l1.12-1.133a.394.394 0 0 0-.01-.494l-.523-.59a.523.523 0 0 1-.07-.536l.29-.709a.514.514 0 0 1 .424-.328l.784-.043a.408.408 0 0 0 .365-.342s.056-.418.056-.802c0-.384-.056-.802-.056-.802a.408.408 0 0 0-.365-.342zm-5.814 2.746a1.593 1.593 0 0 1-1.584-1.602c0-.885.71-1.602 1.584-1.602.875 0 1.584.717 1.584 1.602 0 .884-.71 1.602-1.584 1.602z" stroke="#3685D6"/></g><g transform="translate(30 730)"><path d="M44.141 5.5H.5V3C.5 1.617 1.615.5 2.998.5h38.645A2.501 2.501 0 0 1 44.14 3v2.5z" stroke="#3685D6"/><circle fill="#3685D6" cx="4" cy="3" r="1"/><circle fill="#3685D6" cx="7" cy="3" r="1"/><circle fill="#3685D6" cx="10" cy="3" r="1"/><path d="M.5 5.5h43.641v26.771c0 1.25-.857 2.229-1.884 2.229H2.384C1.362 34.5.5 33.515.5 32.271V5.5z" stroke="#3685D6"/><path stroke="#3685D6" d="M5.5 9.5h33v21h-33z"/><path stroke="#3685D6" d="M6 30.488l7-10 5 6 10-12 10.5 13v3z"/><circle stroke="#3685D6" cx="12" cy="15" r="2"/></g><path d="M51 342c-5.956 0-16 .99-16 4.5v27c0 3.51 10.044 4.5 16 4.5 5.956 0 16-.99 16-4.5v-27c0-3.51-10.044-4.5-16-4.5zm0 1.8c8.889 0 14.044 1.8 14.222 2.7-.178.9-5.333 2.7-14.222 2.7s-14.044-1.8-14.222-2.7c.178-.9 5.333-2.7 14.222-2.7zm-14.222 4.95C39.888 350.46 46.556 351 51 351c4.444 0 11.111-.54 14.222-2.25v6.75c-.178.9-5.333 2.7-14.222 2.7s-14.044-1.8-14.222-2.7v-6.75zm0 9C39.888 359.46 46.556 360 51 360c4.444 0 11.111-.54 14.222-2.25v6.75c-.178.9-5.333 2.7-14.222 2.7s-14.044-1.8-14.222-2.7v-6.75zM51 376.2c-8.889 0-14.044-1.8-14.222-2.7v-6.75C39.888 368.46 46.556 369 51 369c4.444 0 11.111-.54 14.222-2.25v6.75c-.178.9-5.333 2.7-14.222 2.7z" stroke="#FFF" stroke-width=".6" fill="#3685D6" fill-rule="nonzero"/><path d="M30.5 605.5h12v12h-12zm16 0h12v12h-12zm16 0h12v12h-12zm-32 16h12v12h-12zm16 0h12v12h-12zm16 0h12v12h-12zm-32 15h12v12h-12zm16 0h12v12h-12zm16 0h12v12h-12z" stroke="#3685D6"/><path d="M36.586 815.38h-5.154c-.573 0-1.05.618-1.05 1.473v34.342c0 .855.43 1.472 1.05 1.472h5.154c.573 0 1.05-.617 1.05-1.472v-34.343c0-.855-.477-1.472-1.05-1.472zm-5.25 8.36h5.346v20.615h-5.346V823.74zm5.346-.95h-5.346v-2.09h5.346v2.09zm-5.346 22.515h5.346v2.09h-5.346v-2.09zm.144-28.975h5.01c.049.047.144.237.144.522v2.898h-5.298v-2.897c0-.285.096-.475.144-.523zm5.059 35.387h-5.06c-.047-.047-.143-.237-.143-.522v-2.85h5.346v2.85c0 .285-.096.475-.143.522zm6.013-36.337h-2.768c-.573 0-1.05.618-1.05 1.473v34.342c0 .855.43 1.472 1.05 1.472h2.768c.573 0 1.05-.617 1.05-1.472v-34.343c0-.855-.43-1.472-1.05-1.472zm.096 35.815c0 .285-.096.475-.143.522H39.88c-.048-.047-.144-.237-.144-.522v-34.343c0-.285.096-.475.144-.522h2.625c.047.047.143.237.143.522v34.343zm5.536-35.815h-2.768c-.573 0-1.05.618-1.05 1.473v34.342c0 .855.43 1.472 1.05 1.472h2.768c.573 0 1.05-.617 1.05-1.472v-34.343c-.048-.855-.477-1.472-1.05-1.472zm.048 35.815c0 .285-.096.475-.143.522h-2.625c-.048-.047-.144-.237-.144-.522v-34.343c0-.285.096-.475.144-.522h2.625c.047.047.143.237.143.522v34.343zm22.336-35.815H62.55c-.43 0-.764.333-.907.76-.143-.142-.286-.19-.477-.237l-5.06-.713c-.333-.048-.667.095-.906.427-.19.238-.286.57-.382.903l-4.82 34.01c-.096.855.238 1.52.811 1.615l5.107.713h.095c.525 0 1.003-.57 1.146-1.33l4.343-30.543v30.21c0 .855.43 1.472 1.05 1.472h8.018c.573 0 1.05-.617 1.05-1.472v-34.343c0-.854-.477-1.472-1.05-1.472zm-8.113 8.36h8.16v20.615h-8.16V823.74zm8.209-.95h-8.21v-2.09h8.162v2.09h.048zm-8.21 22.515h8.162v2.09h-8.161v-2.09zm.144-28.975h7.875c.047.047.143.237.143.522v2.898h-8.161v-2.897c0-.285.095-.475.143-.523zm-10.834 28.5l5.25.76-.287 2.042-5.25-.76.287-2.042zm5.393-.238l-5.25-.76 2.911-20.377 5.25.76-2.911 20.377zm-2.196-22.087l.287-2.042 5.25.76-.287 2.042-5.25-.76zm.86-5.842c.047-.285.143-.475.19-.523l5.012.713c.047.047.095.237.047.57l-.43 2.897-5.25-.76.43-2.897zm.143 35.245L51 851.195c-.048-.047-.095-.237-.048-.57l.43-2.85 5.25.76-.43 2.85c-.047.285-.143.475-.238.523zm14.556-.19h-7.922c-.048-.048-.143-.238-.143-.523v-2.85h8.16v2.85c.049.285-.047.475-.095.522z" fill-rule="nonzero" fill="#3685D6"/><g transform="translate(30 932)"><path d="M44.141 5.5H.5V3C.5 1.617 1.615.5 2.998.5h38.645A2.501 2.501 0 0 1 44.14 3v2.5z" stroke="#3685D6"/><circle fill="#3685D6" cx="4" cy="3" r="1"/><circle fill="#3685D6" cx="7" cy="3" r="1"/><circle fill="#3685D6" cx="10" cy="3" r="1"/><path d="M.5 5.5h43.641v26.771c0 1.25-.857 2.229-1.884 2.229H2.384C1.362 34.5.5 33.515.5 32.271V5.5z" stroke="#3685D6"/></g><path d="M33.5 941.5h36m-36 3h36m-36 3h36m-36 3h36m-36 3h36m-36 3h36m-36 3h36m-36 3h8" stroke="#3685D6" stroke-linecap="square"/><g transform="translate(30 460)"><path d="M44.141 5.5H.5V3C.5 1.617 1.615.5 2.998.5h38.645A2.501 2.501 0 0 1 44.14 3v2.5z" stroke="#3685D6"/><circle fill="#3685D6" cx="4" cy="3" r="1"/><circle fill="#3685D6" cx="7" cy="3" r="1"/><circle fill="#3685D6" cx="10" cy="3" r="1"/><path d="M.5 5.5h43.641v26.771c0 1.25-.857 2.229-1.884 2.229H2.384C1.362 34.5.5 33.515.5 32.271V5.5z" stroke="#3685D6"/></g><path d="M33.5 469.5h36m-36 3h36m-36 3h36m-36 3h36m-36 3h36m-36 3h36m-36 3h36m-36 3h8" stroke="#3685D6" stroke-linecap="square"/><g transform="translate(43 471)"><circle stroke="#3685D6" stroke-width="1.1" fill="#FFF" cx="9" cy="9" r="9"/><text font-family="material" font-size="15.4" fill="#3685D6"><tspan x="1.125" y="14.125"></tspan></text></g><path d="M72.363 1114.811h-33.6a2.767 2.767 0 0 0-2.763 2.764v7.35a2.767 2.767 0 0 0 2.763 2.764h33.6a2.767 2.767 0 0 0 2.764-2.764v-7.35a2.768 2.768 0 0 0-2.764-2.764zm.264 10.114a.268.268 0 0 1-.264.264h-33.6a.267.267 0 0 1-.263-.264v-7.35c0-.143.12-.264.263-.264h33.6c.144 0 .264.121.264.264v7.35zm-29.271-5.466a1.793 1.793 0 0 0 0 3.583c.988 0 1.791-.804 1.791-1.792s-.803-1.792-1.791-1.792zm5 0a1.793 1.793 0 0 0 0 3.583c.988 0 1.791-.804 1.791-1.792s-.803-1.792-1.791-1.792zm5 0a1.793 1.793 0 0 0 0 3.583c.988 0 1.791-.804 1.791-1.792s-.803-1.792-1.791-1.792zm19.007 10.163h-33.6a2.767 2.767 0 0 0-2.763 2.764v7.35a2.767 2.767 0 0 0 2.763 2.764h33.6a2.767 2.767 0 0 0 2.764-2.764v-7.35a2.768 2.768 0 0 0-2.764-2.764zm.264 10.114a.268.268 0 0 1-.264.264h-33.6a.267.267 0 0 1-.263-.264v-7.35c0-.143.12-.264.263-.264h33.6c.144 0 .264.121.264.264v7.35zm-29.271-5.466a1.793 1.793 0 0 0 0 3.583 1.792 1.792 0 0 0 0-3.583zm5 0a1.793 1.793 0 0 0 0 3.583 1.792 1.792 0 0 0 0-3.583zm5 0a1.793 1.793 0 0 0 0 3.583 1.792 1.792 0 0 0 0-3.583zM72.363 1100h-33.6a2.767 2.767 0 0 0-2.763 2.764v7.35a2.767 2.767 0 0 0 2.763 2.764h33.6a2.767 2.767 0 0 0 2.764-2.764v-7.35a2.768 2.768 0 0 0-2.764-2.764zm.264 10.114a.268.268 0 0 1-.264.264h-33.6a.267.267 0 0 1-.263-.264v-7.35c0-.143.12-.264.263-.264h33.6c.144 0 .264.121.264.264v7.35zm-29.271-5.467c-.989 0-1.792.803-1.792 1.792a1.793 1.793 0 1 0 1.792-1.792zm5 0c-.989 0-1.792.803-1.792 1.792a1.793 1.793 0 1 0 1.792-1.792zm5 0c-.989 0-1.792.803-1.792 1.792a1.793 1.793 0 1 0 1.792-1.792z" stroke="#FFF" stroke-width="1.4" fill="#3685D6" fill-rule="nonzero"/><path d="M20 1298h750" stroke="#E2E8F0" stroke-linecap="square"/><text font-family="ProximaNova-Semibold, Proxima Nova" font-size="18" font-weight="500" fill="#3685D6" transform="translate(20 1211)"><tspan x="79" y="18">Testing framework</tspan></text><text font-family="ProximaNova-Regular, Proxima Nova" font-size="14" fill="#1F2228" transform="translate(20 1211)"><tspan x="269" y="16">The use of software (under a setting of test preconditions) to execute </tspan> <tspan x="269" y="35">tests to determine whether the actual outcomes and the predicted </tspan> <tspan x="269" y="54">outcomes are the same.</tspan></text><g transform="translate(31 1213)"><path d="M28.342 3.428H.45V1.893C.45 1.096 1.095.45 1.89.45h25.013c.797 0 1.439.642 1.439 1.443v1.535z" stroke="#3685D6" stroke-width=".9"/><ellipse fill="#3685D6" cx="2.58" cy="1.939" rx="1" ry="1"/><ellipse fill="#3685D6" cx="4.515" cy="1.939" rx="1" ry="1"/><ellipse fill="#3685D6" cx="6.45" cy="1.939" rx="1" ry="1"/><path d="M.5 3.731h27.792v17.125c0 .715-.48 1.263-1.038 1.263H1.538C.982 22.119.5 21.567.5 20.856V3.73z" stroke="#3685D6"/></g><g transform="translate(53.977 1240.381)"><path d="M28.342 3.428H.45V1.893C.45 1.096 1.095.45 1.89.45h25.013c.797 0 1.439.642 1.439 1.443v1.535z" stroke="#3685D6" stroke-width=".9"/><ellipse fill="#3685D6" cx="2.58" cy="1.939" rx="1" ry="1"/><ellipse fill="#3685D6" cx="4.515" cy="1.939" rx="1" ry="1"/><ellipse fill="#3685D6" cx="6.45" cy="1.939" rx="1" ry="1"/><path d="M.505 3.575h27.791v17.124c0 .716-.479 1.264-1.037 1.264H1.542c-.555 0-1.037-.553-1.037-1.264V3.575z" stroke="#3685D6"/></g><g stroke="#3685D6" stroke-width="1.2"><path d="M63.047 1224.31h7.296a4.804 4.804 0 0 1 4.797 4.807v7.097" stroke-linecap="square"/><path d="M71.516 1234.429l3.628 2.38 3.628-2.38"/></g><g stroke="#3685D6" stroke-width="1.2"><path d="M50.953 1255.262h-7.296a4.804 4.804 0 0 1-4.797-4.808v-7.097" stroke-linecap="square"/><path d="M42.484 1245.143l-3.628-2.381-3.628 2.38"/></g><g transform="translate(34 38.075)"><mask id="d" fill="#fff"><use xlink:href="#c"/></mask><path d="M46.755 24.015a35.2 35.2 0 0 0-2.63-11.08 35.64 35.64 0 0 0-1.242-2.695c1.61-.938 2.692-2.66 2.692-4.635 0-2.975-2.451-5.388-5.475-5.388H6.704C3.68.217 1.229 2.63 1.229 5.605c0 1.974 1.08 3.694 2.688 4.633a35.61 35.61 0 0 0-1.241 2.694A35.207 35.207 0 0 0 .044 24.014c-.021.464-.044.928-.044 1.397 0 3.371.557 6.612 1.571 9.649.303.855.884 2.327 1.597 3.31.078.1.15.199.24.305l.031.038c.316.374.7.774 1.16 1.171a9.362 9.362 0 0 0 1.618 1.127c.606.33 1.314.597 2.011.686.731.103 1.502-.02 2.09-.427.6-.396 1.029-1.09 1.277-1.874.495-1.59.44-3.39.289-5.018-.166-1.642-.469-3.167-.768-4.463-.61-2.595-1.207-4.28-1.207-4.28s.714 1.638 1.508 4.2c.393 1.283.806 2.797 1.093 4.461.265 1.662.48 3.493.047 5.364-.222.92-.685 1.889-1.529 2.544-.844.666-1.9.873-2.847.895-.998.007-1.884-.217-2.687-.518-.098-.037-.182-.086-.277-.125a31.247 31.247 0 0 0 5.186 5.903c1.05.568 2.76.988 5.024-.17 3.949-2.018 7.898-2.242 7.898-2.242s3.949.224 7.898 2.242c2.653 1.356 4.545.55 5.503-.127a31.264 31.264 0 0 0 4.844-5.588c-.089.037-.167.082-.258.117-.803.3-1.689.525-2.687.518-.947-.023-2.003-.229-2.847-.895-.844-.656-1.307-1.625-1.529-2.544-.432-1.872-.219-3.702.047-5.364.287-1.665.7-3.179 1.093-4.46.795-2.563 1.508-4.2 1.508-4.2s-.597 1.684-1.207 4.278c-.3 1.297-.602 2.822-.768 4.464-.151 1.628-.206 3.429.289 5.018.248.784.677 1.478 1.277 1.874.588.407 1.36.53 2.09.427.698-.089 1.405-.356 2.011-.686a9.405 9.405 0 0 0 1.618-1.127c.626-.54 1.1-1.08 1.464-1.556.568-.796 1.05-1.894 1.373-2.735A30.38 30.38 0 0 0 46.8 25.41c0-.469-.023-.932-.044-1.396" fill="#F6C823" mask="url(#d)"/></g><path d="M52.49 47.53c0 2.715-2.236 4.917-4.996 4.917-2.759 0-4.996-2.202-4.996-4.917 0-2.716 2.237-4.918 4.996-4.918 2.76 0 4.996 2.202 4.996 4.918" fill="#FFF"/><path d="M40.704 40.977c-1.517 0-2.747 1.21-2.747 2.703 0 .969.522 1.812 1.299 2.29a36.042 36.042 0 0 1 3.178-4.373 2.749 2.749 0 0 0-1.73-.62m33.396 0c-.66 0-1.259.24-1.732.622a36.075 36.075 0 0 1 3.177 4.372 2.686 2.686 0 0 0 1.302-2.29c0-1.494-1.23-2.704-2.747-2.704m-26.606 4.364c-.154 0-.304.016-.45.045.09.167.141.357.141.559a1.21 1.21 0 0 1-1.22 1.2c-.227 0-.438-.06-.62-.167-.047.177-.074.36-.074.552 0 1.208.996 2.188 2.223 2.188 1.228 0 2.224-.98 2.224-2.188 0-1.209-.996-2.189-2.224-2.189" fill="#25282C"/><path d="M72.3 47.53c0 2.715-2.236 4.917-4.995 4.917-2.76 0-4.996-2.202-4.996-4.917 0-2.716 2.237-4.918 4.996-4.918 2.76 0 4.996 2.202 4.996 4.918" fill="#FFF"/><path d="M67.305 45.341a2.29 2.29 0 0 0-.45.045c.09.167.14.357.14.559a1.21 1.21 0 0 1-1.22 1.2c-.226 0-.438-.06-.62-.167-.046.177-.073.36-.073.552 0 1.208.995 2.188 2.223 2.188 1.228 0 2.223-.98 2.223-2.188 0-1.209-.995-2.189-2.223-2.189" fill="#25282C"/><path d="M64.117 57.025c0 3.692-3.04 6.685-6.792 6.685s-6.793-2.993-6.793-6.685c0-3.693 3.041-6.686 6.793-6.686 3.751 0 6.792 2.993 6.792 6.686" fill="#FFF"/><path d="M60.849 53.374a.902.902 0 0 0-.043-.264.746.746 0 0 0-.02-.066.928.928 0 0 0-.129-.227v-.001s-.398-.81-3.292-.818h-.04c-1.684.005-2.521.28-2.928.51a.942.942 0 0 0-.533.536h-.001s-.01.029-.023.077a.91.91 0 0 0-.04.253c0 .008.002.015.003.023-.018.42.122 1.16 1.09 1.919.884.693 1.574.95 1.99 1.049v7.323c.147.01.293.022.441.022.15 0 .295-.013.441-.022v-7.323c.417-.099 1.107-.356 1.99-1.05.964-.755 1.107-1.492 1.091-1.913 0-.01.003-.018.003-.028" fill="#25282C"/><path d="M46.395 36.858h21.908a19.444 19.444 0 0 0-9.043-3.265l1.342-3.594s-.854-.7-3.253-.7-3.253.7-3.253.7l1.342 3.594a19.44 19.44 0 0 0-9.043 3.265" fill="#F6C823"/><path d="M37.687 74.217s-.363-.465-.763-1.25c-.402-.782-.81-1.887-1.07-3.024a16.77 16.77 0 0 1-.417-3.167c-.023-.872.033-1.454.033-1.454s.043.141.103.388l.241 1.02c.192.842.422 1.96.684 3.068.25 1.11.54 2.21.779 3.034l.294 1c.079.243.116.385.116.385m33.878-7.021s-.01.391-.072.958a24.42 24.42 0 0 1-.345 2.042c-.16.733-.34 1.46-.504 2.007-.076.273-.167.499-.213.66-.053.16-.093.25-.093.25s-.065-.385-.07-.963a10.44 10.44 0 0 1 .233-2.087c.16-.746.398-1.474.627-2.003.231-.53.437-.864.437-.864m-30.949-28.25s-.409.154-.942.47a7.95 7.95 0 0 0-.866.57 6.86 6.86 0 0 0-.87.777c-.282.28-.517.6-.743.9-.202.316-.4.612-.542.885-.162.265-.274.5-.357.666a4.34 4.34 0 0 1-.143.26s0-.107.02-.294c.028-.182.027-.46.126-.769.07-.319.215-.672.397-1.042.198-.363.455-.726.76-1.052.621-.645 1.43-1.086 2.073-1.245.644-.173 1.087-.126 1.087-.126" fill="#FFF"/></g></svg>