<svg width="798" height="4306" viewBox="0 0 798 4306" xmlns="http://www.w3.org/2000/svg" xmlns:xlink="http://www.w3.org/1999/xlink" style="background:#f7f7f7"><title>frotend-developer-tools</title><defs><path id="f" d="M.036.329v73.848h69.131V.33H.036z"/><path d="M111.6 222.4c61.304 0 111-49.696 111-111S172.904.4 111.6.4.6 50.096.6 111.4s49.696 111 111 111z" id="h"/><ellipse id="a" cx="218.8" cy="905.794" rx="4.8" ry="4.794"/><mask id="j" x="-2.4" y="-2.4" width="14.4" height="14.388"><path fill="#fff" d="M211.6 898.6H226v14.388h-14.4z"/><use xlink:href="#a"/></mask><path d="M651.4 943.388c2.651 0 4.8-2.146 4.8-4.794a4.797 4.797 0 0 0-4.8-4.794 4.797 4.797 0 0 0-4.8 4.794 4.797 4.797 0 0 0 4.8 4.794z" id="b"/><mask id="k" x="-2.4" y="-2.4" width="14.4" height="14.388"><path fill="#fff" d="M644.2 931.4h14.4v14.388h-14.4z"/><use xlink:href="#b"/></mask><ellipse id="c" cx="648.2" cy="811.594" rx="4.8" ry="4.794"/><mask id="l" x="-2.4" y="-2.4" width="14.4" height="14.388"><path fill="#fff" d="M641 804.4h14.4v14.388H641z"/><use xlink:href="#c"/></mask><ellipse id="d" cx="481.8" cy="1037.794" rx="4.8" ry="4.794"/><mask id="m" x="-2.4" y="-2.4" width="14.4" height="14.388"><path fill="#fff" d="M474.6 1030.6H489v14.388h-14.4z"/><use xlink:href="#d"/></mask><ellipse id="e" cx="218.8" cy="984.794" rx="4.8" ry="4.794"/><mask id="n" x="-2.4" y="-2.4" width="14.4" height="14.388"><path fill="#fff" d="M211.6 977.6H226v14.388h-14.4z"/><use xlink:href="#e"/></mask><path d="M111.6 222.4c61.304 0 111-49.696 111-111S172.904.4 111.6.4.6 50.096.6 111.4s49.696 111 111 111z" id="o"/><path id="q" d="M.03.27v60.418h58.255V.269H.03z"/></defs><g fill="none" fill-rule="evenodd"><text font-family="OpenSans, Open Sans" font-size="45" fill="#000"><tspan x="124.099" y="222">Frontend Developer Tools</tspan></text><g transform="translate(364 51.559)"><mask id="g" fill="#fff"><use xlink:href="#f"/></mask><path d="M69.102 36.41a54.512 54.512 0 0 0-3.888-16.798 54.71 54.71 0 0 0-1.835-4.087A8.172 8.172 0 0 0 67.358 8.5c0-4.512-3.623-8.17-8.092-8.17H9.908C5.439.33 1.816 3.988 1.816 8.5c0 2.991 1.597 5.6 3.973 7.023a54.663 54.663 0 0 0-1.834 4.085A54.523 54.523 0 0 0 .065 36.41C.034 37.113 0 37.816 0 38.527c0 5.11.824 10.024 2.323 14.629.446 1.296 1.306 3.527 2.359 5.018.115.153.223.302.355.463.015.018.03.04.046.058a15.63 15.63 0 0 0 1.715 1.775 13.837 13.837 0 0 0 2.39 1.709c.897.5 1.942.905 2.973 1.04 1.08.156 2.22-.031 3.089-.647.886-.601 1.52-1.653 1.887-2.842.732-2.41.65-5.14.427-7.608-.246-2.489-.692-4.802-1.136-6.767-.9-3.934-1.784-6.488-1.784-6.488s1.056 2.483 2.23 6.368c.58 1.944 1.19 4.239 1.615 6.763.392 2.52.709 5.295.07 8.132-.329 1.394-1.013 2.864-2.26 3.857-1.248 1.01-2.808 1.323-4.208 1.357-1.475.01-2.784-.33-3.972-.786-.144-.056-.267-.129-.408-.189a47.026 47.026 0 0 0 7.664 8.95c1.551.861 4.078 1.498 7.425-.257 5.837-3.06 11.673-3.4 11.673-3.4s5.836.34 11.673 3.4c3.92 2.056 6.717.832 8.134-.193a47.077 47.077 0 0 0 7.158-8.472c-.13.055-.246.124-.38.176-1.187.457-2.497.796-3.972.786-1.4-.034-2.96-.347-4.208-1.357-1.247-.994-1.93-2.464-2.26-3.857-.638-2.838-.323-5.613.07-8.132.424-2.525 1.035-4.82 1.615-6.763 1.175-3.885 2.23-6.369 2.23-6.369s-.884 2.555-1.784 6.489c-.443 1.965-.89 4.278-1.135 6.767-.224 2.469-.305 5.199.426 7.607.367 1.19 1.001 2.241 1.887 2.843.87.616 2.01.803 3.089.646 1.031-.134 2.077-.539 2.973-1.04a13.901 13.901 0 0 0 2.39-1.708 15.367 15.367 0 0 0 2.165-2.36c.84-1.206 1.553-2.871 2.03-4.146a47.13 47.13 0 0 0 2.593-15.452c0-.71-.034-1.414-.065-2.117" fill="#F6C823" mask="url(#g)"/></g><path d="M391.328 65.893c0 4.118-3.306 7.456-7.384 7.456s-7.384-3.338-7.384-7.456c0-4.117 3.306-7.455 7.384-7.455s7.384 3.338 7.384 7.455" fill="#FFF"/><path d="M373.908 55.96c-2.242 0-4.06 1.834-4.06 4.097 0 1.468.771 2.747 1.92 3.47a54.617 54.617 0 0 1 4.697-6.629 4 4 0 0 0-2.557-.939m49.358.001c-.976 0-1.86.362-2.56.942a54.666 54.666 0 0 1 4.695 6.629 4.093 4.093 0 0 0 1.925-3.474c0-2.263-1.818-4.098-4.06-4.098m-39.322 6.617c-.228 0-.45.023-.665.068.132.253.208.54.208.846a1.813 1.813 0 0 1-1.804 1.821c-.334 0-.647-.093-.916-.253a3.347 3.347 0 0 0-.109.835c0 1.833 1.471 3.318 3.286 3.318s3.286-1.485 3.286-3.318c0-1.832-1.471-3.317-3.286-3.317" fill="#25282C"/><path d="M420.607 65.893c0 4.118-3.306 7.456-7.384 7.456s-7.384-3.338-7.384-7.456c0-4.117 3.306-7.455 7.384-7.455s7.384 3.338 7.384 7.455" fill="#FFF"/><path d="M413.223 62.576c-.228 0-.45.023-.665.068.132.253.208.54.208.846a1.813 1.813 0 0 1-1.805 1.821c-.334 0-.646-.093-.915-.253a3.347 3.347 0 0 0-.109.835c0 1.833 1.471 3.318 3.286 3.318s3.286-1.485 3.286-3.318c0-1.832-1.471-3.317-3.286-3.317" fill="#25282C"/><path d="M408.512 80.29c0 5.597-4.494 10.136-10.039 10.136s-10.04-4.539-10.04-10.137c0-5.598 4.495-10.136 10.04-10.136 5.545 0 10.04 4.538 10.04 10.136" fill="#FFF"/><path d="M403.682 74.754a1.4 1.4 0 0 0-.064-.4c-.016-.063-.03-.1-.03-.1a1.417 1.417 0 0 0-.19-.345h.001s-.59-1.229-4.867-1.24v-.001h-.059c-2.488.007-3.726.424-4.327.774a1.41 1.41 0 0 0-.788.812h-.002s-.015.044-.033.117c-.035.122-.059.25-.059.383 0 .012.003.023.004.035-.026.637.18 1.76 1.611 2.91 1.307 1.05 2.327 1.441 2.942 1.59v11.103c.217.014.432.034.652.034.22 0 .435-.02.651-.034V79.288c.616-.148 1.636-.54 2.941-1.59 1.425-1.145 1.636-2.263 1.612-2.9.001-.015.005-.029.005-.044" fill="#25282C"/><path d="M382.319 49.713h32.38c-3.878-2.692-8.432-4.46-13.365-4.95l1.982-5.449s-1.262-1.062-4.807-1.062c-3.546 0-4.808 1.062-4.808 1.062l1.983 5.45c-4.934.488-9.488 2.257-13.365 4.95" fill="#F6C823"/><path d="M369.45 106.355s-.537-.704-1.128-1.895c-.594-1.186-1.197-2.861-1.582-4.585a26.049 26.049 0 0 1-.616-4.801c-.034-1.322.048-2.204.048-2.204s.065.213.153.587c.086.373.21.906.356 1.546.283 1.277.623 2.973 1.01 4.653.37 1.683.798 3.349 1.152 4.6l.434 1.517c.118.367.173.582.173.582m50.07-10.645s-.015.593-.107 1.453c-.096.86-.285 1.983-.51 3.096a43.914 43.914 0 0 1-.745 3.042c-.112.415-.246.757-.314 1.001-.08.243-.138.38-.138.38s-.096-.585-.103-1.46c-.003-.875.11-2.032.344-3.164a17.44 17.44 0 0 1 .926-3.038c.342-.802.646-1.31.646-1.31m-45.741-42.83s-.604.233-1.391.71c-.397.232-.84.524-1.281.868-.446.339-.884.742-1.287 1.176-.415.426-.763.909-1.096 1.365-.3.478-.591.927-.803 1.342-.238.4-.404.759-.526 1.01-.126.25-.212.392-.212.392s.001-.161.029-.444c.042-.277.04-.698.187-1.165.102-.484.317-1.02.586-1.581a7.93 7.93 0 0 1 1.124-1.595c.918-.978 2.114-1.646 3.064-1.888.952-.262 1.606-.19 1.606-.19" fill="#FFF"/><text font-family="OpenSans, Open Sans" font-size="30" fill="#000"><tspan x="245" y="164.2">A Honeypot Infographic</tspan></text><text font-family="OpenSans, Open Sans" font-size="20" fill="#000"><tspan x="257" y="318">Most popular CSS Preprocessor</tspan></text><text font-family="OpenSans, Open Sans" font-size="20" fill="#000"><tspan x="257" y="739">Popularity of PostCSS &amp; Rework</tspan></text><g transform="translate(296 389.8)"><mask id="i" fill="#fff"><use xlink:href="#h"/></mask><use fill="#D8D8D8" xlink:href="#h"/><path d="M111.793 111.893L10.842 53.442c-21.328 0-18.485 26.325-18.485 26.325l119.436 32.126z" fill="#8FC8D4" mask="url(#i)"/><path d="M111.793 111.893L.147 48.311c-21.328 0 111.378-91.175 93.347-79.772l18.299 143.354z" fill="#81A2CC" mask="url(#i)"/><path d="M111.793 111.893V-38.542c-21.328 0-.268-4.322-18.299 7.081l18.299 143.354z" fill="#BCCED8" mask="url(#i)"/><path d="M111.793 111.893L-.576 80.741s-4.796 27.741-3.506 45.218c1.636 22.177 15.784 66.558 15.784 66.558l100.091-80.624z" fill="#CD5B55" mask="url(#i)"/><path d="M111.793 110.605L-2.631 204.673s96.975 46.554 165.084 26.994c38.17-10.961 63.273-81.51 66.875-98.355 9.493-44.395-26.872-96.05-35.562-103.954C170.426 8.134 134.829-1 111.793-1v111.605z" fill="#FCD435" mask="url(#i)"/></g><ellipse cx="71.89" cy="71.67" rx="71.45" ry="71.45" transform="translate(335 429)" fill="#F3F3F3"/><text font-family="OpenSans, Open Sans" font-size="14" fill="#1F2228"><tspan x="540.8" y="475.2">Sass</tspan></text><circle fill="#1F2228" cx="511.8" cy="482.6" r="2"/><circle fill="#FCD435" cx="613" cy="481.8" r="20"/><text font-family="OpenSans, Open Sans" font-size="15" fill="#1F2228"><tspan x="599" y="485.8">64%</tspan></text><text font-family="OpenSans, Open Sans" font-size="14" fill="#1F2228"><tspan x="448" y="365.8">Other</tspan></text><path stroke="#1F2228" d="M401.4 391.417l23.126-18.817h76.37"/><circle fill="#BCCED8" cx="519.4" cy="371.8" r="20"/><text font-family="OpenSans, Open Sans" font-size="15" fill="#1F2228"><tspan x="509.4" y="375.8">2%</tspan></text><text font-family="OpenSans, Open Sans" font-size="14" fill="#1F2228"><tspan x="254.2" y="387.8">No Preprocessor</tspan></text><circle fill="#1F2228" transform="matrix(-1 0 0 1 686 0)" cx="343" cy="415.2" r="2"/><circle fill="#1F2228" transform="matrix(-1 0 0 1 802.4 0)" cx="401.2" cy="391.8" r="2"/><path stroke="#1F2228" d="M343.4 415.017L320.274 396.2h-76.37"/><circle fill="#81A2CC" transform="matrix(-1 0 0 1 450.8 0)" cx="225.4" cy="396.2" r="20"/><text font-family="OpenSans, Open Sans" font-size="15" fill="#1F2228"><tspan x="211.4" y="400.2">15%</tspan></text><text font-family="OpenSans, Open Sans" font-size="14" fill="#1F2228"><tspan x="228.8" y="545">Less</tspan></text><circle fill="#1F2228" transform="rotate(180 304.2 534.4)" cx="304.2" cy="534.4" r="2"/><path stroke="#1F2228" d="M303.4 534.983L280.274 553.8h-76.37"/><circle fill="#CD5B55" transform="rotate(180 185.4 553.8)" cx="185.4" cy="553.8" r="20"/><text font-family="OpenSans, Open Sans" font-size="15" fill="#1F2228"><tspan x="170.6" y="558.2">15%</tspan></text><path d="M513.5 482.5h79" stroke="#1F2228" stroke-linecap="square"/><text font-family="OpenSans, Open Sans" font-size="14" fill="#1F2228"><tspan x="240.6" y="451.8">Stylus</tspan></text><circle fill="#1F2228" transform="matrix(-1 0 0 1 610.8 0)" cx="305.4" cy="462" r="2"/><circle fill="#8FC8D4" transform="matrix(-1 0 0 1 408 0)" cx="204" cy="460.8" r="20"/><text font-family="OpenSans, Open Sans" font-size="15" fill="#1F2228"><tspan x="192.4" y="464">4%</tspan></text><path d="M303.5 461.5h-79" stroke="#1F2228" stroke-linecap="square"/><path d="M-.5 666.5h798" stroke="#E2E8F0" stroke-linecap="square"/><text font-family="OpenSans, Open Sans" font-size="20" fill="#000"><tspan x="231" y="1225">Preferred Task Runner: Gulp vs. Grunt</tspan></text><path d="M-.5 1153.5h798" stroke="#E2E8F0" stroke-linecap="square"/><path fill="#DDD" d="M144 981h511v59H144z"/><path fill="#EEF0EF" d="M144 922.4h511v59H144z"/><path fill="#DDD" d="M144 864h511v59H144z"/><path fill="#EEF0EF" d="M144 805.4h511v59H144z"/><g stroke-width="3"><path stroke="#FAD231" d="M219 984.095l144.624 50.098 123.61 4.644L648 813"/><path stroke="#8FC9D6" d="M219 906l143.91 99.947 119.629 7.379L646 942.082"/></g><use fill="#DDD" xlink:href="#a"/><use stroke="#8FC9D6" mask="url(#j)" stroke-width="4.8" xlink:href="#a"/><use stroke="#8FC9D6" mask="url(#k)" stroke-width="4.8" xlink:href="#b"/><use fill="#EEF0EF" xlink:href="#c"/><use stroke="#B394C0" mask="url(#l)" stroke-width="4.8" xlink:href="#c"/><text transform="rotate(45 221.705 1078.105)" font-family="OpenSans, Open Sans" font-size="13" fill="#000"><tspan x="192.938" y="1074.105">Heard of/</tspan> <tspan x="186.945" y="1092.105">Read about</tspan></text><text transform="rotate(45 366.248 1076.048)" font-family="OpenSans, Open Sans" font-size="13" fill="#000"><tspan x="330.625" y="1081.048">Used a little</tspan></text><use fill="#DDD" xlink:href="#d"/><use stroke="#B394C0" mask="url(#m)" stroke-width="4.8" xlink:href="#d"/><use fill="#DDD" xlink:href="#e"/><use stroke="#B394C0" mask="url(#n)" stroke-width="4.8" xlink:href="#e"/><text font-family="OpenSans, Open Sans" font-size="13" fill="#000"><tspan x="149" y="820">1600</tspan></text><text font-family="OpenSans, Open Sans" font-size="13" fill="#000"><tspan x="147" y="879.4">1200</tspan></text><text font-family="OpenSans, Open Sans" font-size="13" fill="#000"><tspan x="147" y="934.6">800</tspan></text><text font-family="OpenSans, Open Sans" font-size="13" fill="#000"><tspan x="147" y="993.6">400</tspan></text><text transform="rotate(45 485.19 1078.79)" font-family="OpenSans, Open Sans" font-size="13" fill="#000"><tspan x="472.898" y="1065.79">Feel </tspan> <tspan x="447.152" y="1083.79">Comfortable </tspan> <tspan x="468.905" y="1101.79">using</tspan></text><text transform="rotate(45 656.305 1072.305)" font-family="OpenSans, Open Sans" font-size="13" fill="#000"><tspan x="638.332" y="1068.305">Never </tspan> <tspan x="629.924" y="1086.305">Heard of</tspan></text><text font-family="OpenSans, Open Sans" font-size="14" fill="#1F2228"><tspan x="472" y="782.6">Rework</tspan></text><circle fill="#FCD435" transform="matrix(-1 0 0 1 908 0)" cx="454" cy="776.8" r="10"/><text font-family="OpenSans, Open Sans" font-size="14" fill="#1F2228"><tspan x="321" y="782.8">PostCSS</tspan></text><circle fill="#8FC8D4" transform="matrix(-1 0 0 1 598 0)" cx="299" cy="776.8" r="10"/><g transform="translate(631 794)"><ellipse fill="#FCD435" cx="17" cy="16.5" rx="17" ry="16.5"/><text font-family="OpenSans, Open Sans" font-size="14" fill="#000"><tspan x="3.732" y="20.788">79%</tspan></text></g><g transform="translate(636 924)"><ellipse fill="#8FC9D6" cx="15.5" cy="15" rx="15.5" ry="15"/><text font-family="OpenSans, Open Sans" font-size="12.6" fill="#000"><tspan x="4.294" y="19.08">36%</tspan></text></g><g transform="translate(470 997.988)"><ellipse fill="#8FC9D6" cx="12" cy="11.5" rx="12" ry="11.5"/><text font-family="OpenSans, Open Sans" font-size="9.8" fill="#000"><tspan x="5.517" y="14.428">7%</tspan></text></g><g transform="translate(470 1025)"><ellipse fill="#FCD435" cx="12" cy="11.5" rx="12" ry="11.5"/><text font-family="OpenSans, Open Sans" font-size="9.8" fill="#000"><tspan x="1.412" y="14.428">0.7%</tspan></text></g><g transform="translate(352 1018.8)"><ellipse fill="#FCD435" cx="12" cy="11.5" rx="12" ry="11.5"/><text font-family="OpenSans, Open Sans" font-size="9.8" fill="#000"><tspan x="1.412" y="14.428">1.5%</tspan></text></g><g transform="translate(352 990.8)"><ellipse fill="#8FC9D6" cx="12" cy="11.5" rx="12" ry="11.5"/><text font-family="OpenSans, Open Sans" font-size="9.8" fill="#000"><tspan x="5.517" y="14.428">9%</tspan></text></g><g transform="translate(205 969)"><ellipse fill="#FCD435" cx="14.5" cy="14" rx="14.5" ry="14"/><text font-family="OpenSans, Open Sans" font-size="11.76" fill="#000"><tspan x="3.362" y="15.608">19%</tspan></text></g><g transform="translate(207 888)"><ellipse fill="#8FC9D6" cx="17.5" cy="17" rx="17.5" ry="17"/><text font-family="OpenSans, Open Sans" font-size="14.23" fill="#000"><tspan x="4.021" y="21.024">48%</tspan></text></g><path fill="#000" d="M212.8 1265.6h77v53h-27.122v8.994l-10.388-8.994H212.8z"/><text font-family="OpenSans-Semibold, Open Sans" font-size="14" font-weight="500" fill="#FFF" transform="translate(212.8 1265.6)"><tspan x="23.661" y="18">Gulp</tspan> <tspan x="11.009" y="37" font-size="20">43.8%</tspan></text><path fill="#DDD" d="M143.8 1510.6h511v59h-511z"/><path fill="#EEF0EF" d="M143.8 1452h511v59h-511z"/><path fill="#DDD" d="M143.8 1393.6h511v59h-511z"/><path fill="#EEF0EF" d="M143.8 1335h511v59h-511z"/><path fill="#000" d="M372.4 1353.6h-77v53h27.122v8.994l10.388-8.994h39.49z"/><text font-family="OpenSans-Semibold, Open Sans" font-size="14" font-weight="500" fill="#FFF" transform="translate(295.4 1353.6)"><tspan x="20.761" y="18">Grunt</tspan> <tspan x="12.009" y="37" font-size="20">27.6%</tspan></text><text font-family="OpenSans, Open Sans" font-size="13" fill="#000"><tspan x="148.8" y="1349.6">900</tspan></text><text font-family="OpenSans, Open Sans" font-size="13" fill="#000"><tspan x="146.8" y="1408.6">675</tspan></text><text font-family="OpenSans, Open Sans" font-size="13" fill="#000"><tspan x="146.8" y="1463.6">450</tspan></text><text font-family="OpenSans, Open Sans" font-size="13" fill="#000"><tspan x="146.8" y="1522.6">225</tspan></text><path fill="#B094BF" d="M240.8 1334.6h40v235h-40z"/><path fill="#8FC8D4" d="M299.4 1423.6h40v146.2h-40z"/><path fill="#81A2CC" d="M359.8 1553.4h40v16h-40z"/><path fill="#ABBEC9" d="M420.8 1562.8h40v7h-40z"/><path fill="#CD5B55" d="M478.8 1542.4h40v27h-40z"/><path fill="#FCD435" d="M538.8 1464.4h40v105h-40z"/><text transform="rotate(45 388.156 1588.156)" font-family="OpenSans, Open Sans" font-size="13" fill="#000"><tspan x="373.156" y="1593.156">NPM</tspan></text><text transform="rotate(45 332.156 1589.924)" font-family="OpenSans, Open Sans" font-size="13" fill="#000"><tspan x="314.156" y="1594.924">Grunt</tspan></text><text transform="rotate(45 266.324 1588.156)" font-family="OpenSans, Open Sans" font-size="13" fill="#000"><tspan x="251.824" y="1593.156">Gulp</tspan></text><text transform="rotate(45 453.674 1594.874)" font-family="OpenSans, Open Sans" font-size="13" fill="#000"><tspan x="429.174" y="1599.874">Broccoli</tspan></text><text transform="rotate(45 507.224 1589.924)" font-family="OpenSans, Open Sans" font-size="13" fill="#000"><tspan x="489.224" y="1594.924">Other</tspan></text><text transform="rotate(45 580.616 1607.816)" font-family="OpenSans, Open Sans" font-size="13" fill="#000"><tspan x="543.116" y="1603.816">Use no </tspan> <tspan x="543.116" y="1621.816">Task Runner</tspan></text><path d="M533.801 1469.045c.139-14.182 10.463-26.045 25.637-26.045 15.174 0 24.284 12.724 24.146 26.045-.138 13.32-11.967 23.923-24.513 23.955-12.545.032-25.408-9.773-25.27-23.955z" stroke="#999" stroke-dasharray="1.534825156739913,1.534825156739913"/><path d="M533.003 2345.717c.361-36.874 27.322-67.717 66.944-67.717s63.409 33.082 63.049 67.717c-.36 34.634-31.25 62.2-64.007 62.283-32.758.083-66.348-25.41-65.986-62.283z" stroke="#999" stroke-width="2" stroke-dasharray="1.534825156739913,1.534825156739913"/><path d="M559.271 1440.8v-38.7m-40.471.3h38.7" stroke="#999" stroke-dasharray="1.534825156739913,1.534825156739913"/><text font-family="OpenSans, Open Sans" font-size="20" fill="#000"><tspan x="455.453" y="1407.4">19.5%</tspan></text><text font-family="OpenSans, Open Sans" font-size="20" fill="#000"><tspan x="220" y="1734">Popular JS Libraries &amp; Frameworks</tspan></text><path d="M-11.5 1662.5h798" stroke="#E2E8F0" stroke-linecap="square"/><text font-family="OpenSans, Open Sans" font-size="20" fill="#000"><tspan x="231" y="2236">Most used JS Libraries &amp; Frameworks</tspan></text><path d="M-.5 2164.5h798" stroke="#E2E8F0" stroke-linecap="square"/><text font-family="OpenSans, Open Sans" font-size="20" fill="#000"><tspan x="214" y="2640.147">Module Bundlers for JavaScript - or not?</tspan></text><path d="M-.5 2573.5h798" stroke="#E2E8F0" stroke-linecap="square"/><path fill="#DDD" d="M145 2002.4h511v59H145z"/><path fill="#EEF0EF" d="M145 1943.8h511v59H145z"/><path fill="#DDD" d="M145 1885.4h511v59H145z"/><path fill="#EEF0EF" d="M145 1826.8h511v59H145z"/><text font-family="OpenSans, Open Sans" font-size="13" fill="#000"><tspan x="150" y="1841.4">3000</tspan></text><text font-family="OpenSans, Open Sans" font-size="13" fill="#000"><tspan x="148" y="1900.4">2250</tspan></text><text font-family="OpenSans, Open Sans" font-size="13" fill="#000"><tspan x="148" y="1955.4">1500</tspan></text><text font-family="OpenSans, Open Sans" font-size="13" fill="#000"><tspan x="148" y="2014.4">750</tspan></text><path fill="#FCD435" d="M321.6 1963.6h30v97h-30z"/><path fill="#8FC8D4" d="M321.6 1963.6h30v-34h-30z"/><path fill="#81A2CC" d="M321.6 1903.6h30v26h-30z"/><path fill="#CD5B55" d="M321.6 1903.6h30v-3h-30z"/><text transform="rotate(45 354.377 2091.177)" font-family="OpenSans, Open Sans" font-size="13" fill="#000"><tspan x="324.377" y="2096.177">Backbone</tspan></text><path fill="#FCD435" d="M272.8 2004.6h30v56h-30z"/><path fill="#8FC8D4" d="M272.8 2004.6h30v-31h-30z"/><path fill="#81A2CC" d="M272.8 1916.6h30v57h-30z"/><path fill="#CD5B55" d="M272.8 1916.6h30v-16h-30z"/><text transform="rotate(45 309.866 2095.066)" font-family="OpenSans, Open Sans" font-size="13" fill="#000"><tspan x="274.366" y="2100.066">Underscore</tspan></text><path fill="#FCD435" d="M222.6 2056.6h30v4h-30z"/><path fill="#8FC8D4" d="M222.6 2056.6h30v-11h-30z"/><path fill="#81A2CC" d="M222.6 1900.6h30v145h-30z"/><text transform="rotate(45 249.617 2084.46)" font-family="OpenSans, Open Sans" font-size="13" fill="#000"><tspan x="229.117" y="2089.46">jQuery</tspan></text><path fill="#FCD435" d="M369.6 2001.6h30v59h-30z"/><path fill="#8FC8D4" d="M369.6 2001.6h30v-53h-30z"/><path fill="#81A2CC" d="M369.6 1902.6h30v46h-30z"/><path fill="#CD5B55" d="M369.6 1902.6h30v-1h-30z"/><text transform="rotate(45 402.67 2090.47)" font-family="OpenSans, Open Sans" font-size="13" fill="#000"><tspan x="373.67" y="2095.47">AngularJS</tspan></text><text transform="rotate(45 445.306 2084.106)" font-family="OpenSans, Open Sans" font-size="13" fill="#000"><tspan x="425.306" y="2089.106">Ember</tspan></text><path fill="#FCD435" d="M419.2 1934.6h30v126h-30z"/><path fill="#8FC8D4" d="M419.2 1934.6h30v-21h-30z"/><path fill="#81A2CC" d="M419.2 1907.6h30v6h-30z"/><path fill="#CD5B55" d="M419.2 1907.6h30v-7h-30z"/><text transform="rotate(45 492.385 2081.985)" font-family="OpenSans, Open Sans" font-size="13" fill="#000"><tspan x="475.385" y="2086.985">React</tspan></text><path fill="#FCD435" d="M468 1961.6h30v99h-30z"/><path fill="#8FC8D4" d="M468 1961.6h30v-32h-30z"/><path fill="#81A2CC" d="M468 1907.6h30v23h-30z"/><path fill="#CD5B55" d="M468 1907.6h30v-6h-30z"/><text transform="rotate(45 545.837 2087.995)" font-family="OpenSans, Open Sans" font-size="13" fill="#000"><tspan x="520.337" y="2092.995">Polymer</tspan></text><path fill="#FCD435" d="M516 1947.6h30v113h-30z"/><path fill="#8FC8D4" d="M516 1947.6h30v-18h-30z"/><path fill="#81A2CC" d="M516 1925.6h30v4h-30z"/><path fill="#CD5B55" d="M516 1926.6h30v-25h-30z"/><text transform="rotate(45 597.316 2090.117)" font-family="OpenSans, Open Sans" font-size="13" fill="#000"><tspan x="568.816" y="2095.117">Knockout</tspan></text><path fill="#FCD435" d="M564.6 1956.6h30v104h-30z"/><path fill="#8FC8D4" d="M564.6 1956.6h30v-16h-30z"/><path fill="#81A2CC" d="M564.6 1931.6h30v9h-30z"/><path fill="#CD5B55" d="M564.6 1931.6h30v-31h-30z"/><text font-family="OpenSans, Open Sans" font-size="14" fill="#1F2228"><tspan x="289.2" y="1789.8">Used a little</tspan></text><ellipse fill="#8FC8D4" transform="matrix(-1 0 0 1 542.4 0)" cx="271.2" cy="1786.8" rx="10" ry="10"/><text font-family="OpenSans, Open Sans" font-size="14" fill="#1F2228"><tspan x="175" y="1788.8">Heard of/</tspan> <tspan x="175" y="1807.8">Read about</tspan></text><circle fill="#FCD435" transform="matrix(-1 0 0 1 306 0)" cx="153" cy="1786.8" r="10"/><text font-family="OpenSans, Open Sans" font-size="14" fill="#1F2228"><tspan x="573.6" y="1789.6">Never heard</tspan> <tspan x="573.6" y="1808.6">of</tspan></text><ellipse fill="#CD5B55" transform="matrix(-1 0 0 1 1116.2 0)" cx="558.1" cy="1785.6" rx="10" ry="10"/><text font-family="OpenSans, Open Sans" font-size="14" fill="#1F2228"><tspan x="418.2" y="1789">Feel comfortable </tspan> <tspan x="418.2" y="1808">using</tspan></text><circle fill="#81A2CC" transform="matrix(-1 0 0 1 794 0)" cx="397" cy="1787" r="10"/><path d="M146.58 2379.723s5.922 15.294 29.873 15.294c23.95 0 29.873-15.294 29.873-15.294v-54.35c0-10.754-13.374-19.473-29.873-19.473-16.499 0-29.874 8.719-29.874 19.474v54.35z" fill="#E5C235"/><ellipse fill="#FCD435" cx="176.453" cy="2325.374" rx="29.874" ry="19.474"/><text font-family="OpenSans, Open Sans" font-size="20" fill="#000"><tspan x="164.6" y="2373.5">#1</tspan></text><path fill="#000" d="M222.2 2264.5h-77v53h27.122v8.994l10.388-8.994h39.49z"/><text font-family="OpenSans, Open Sans" font-size="14" fill="#FFF" transform="translate(145.2 2264.5)"><tspan x="17.869" y="17">jQuery</tspan> <tspan x="11.653" y="36" font-size="20">56.5%</tspan></text><path d="M269.733 2382.51s5.923 12.149 29.874 12.149 29.873-12.149 29.873-12.149v-43.174c0-8.544-13.374-15.47-29.873-15.47-16.499 0-29.874 6.926-29.874 15.47v43.174z" fill="#7EB7C2"/><ellipse fill="#8FC8D4" cx="299.607" cy="2339.336" rx="29.874" ry="15.47"/><text font-family="OpenSans, Open Sans" font-size="20" fill="#000"><tspan x="287.6" y="2378.5">#2</tspan></text><path fill="#000" d="M347 2277.1h-77v53h27.122v8.994l10.388-8.994H347z"/><text font-family="OpenSans, Open Sans" font-size="14" fill="#FFF" transform="translate(270 2277.1)"><tspan x="14.322" y="17">Angular</tspan> <tspan x="11.653" y="36" font-size="20">17.8%</tspan></text><path d="M396.2 2385.19s5.922 9.88 29.874 9.88c23.95 0 29.873-9.88 29.873-9.88v-35.11c0-6.948-13.375-12.58-29.873-12.58-16.5 0-29.874 5.632-29.874 12.58v35.11z" fill="#997DA7"/><ellipse fill="#B094BF" cx="426.074" cy="2350.08" rx="29.874" ry="12.58"/><text font-family="OpenSans, Open Sans" font-size="20" fill="#000"><tspan x="414.4" y="2382.5">#3</tspan></text><path fill="#000" d="M472.2 2288.5h-77v53h27.122v8.994l10.388-8.994h39.49z"/><text font-family="OpenSans, Open Sans" font-size="14" fill="#FFF" transform="translate(395.2 2288.5)"><tspan x="20.949" y="17">React</tspan> <tspan x="16.571" y="36" font-size="20">8.7%</tspan></text><path d="M134 2429.986s7.306 11.507 21.441 12.335c56.068 3.284 213.711-1.304 220.428-.035 11.425 2.157 23.631 21.274 23.631 21.274s8.684-19.254 18.06-21.057c8.502-1.635 193.959 0 193.959 0s27.683.684 37.634-1.903c7.876-2.048 15.847-12 15.847-12" stroke="#D6D6D6" stroke-width="1.5"/><text font-family="OpenSans, Open Sans" font-size="16" fill="#000"><tspan x="546.082" y="2339.4">Only 8.5% use </tspan> <tspan x="567.203" y="2361.4">native JS</tspan></text><text font-family="OpenSans, Open Sans" font-size="18" fill="#999"><tspan x="208.751" y="2498.36">The rest is evenly scattered across 0.28-2.97%</tspan> <tspan x="232.296" y="2522.36" font-size="14">; Backbone, Ember, Knockout, Underscore, Polymer</tspan></text><path fill="#ABBEC9" d="M391 2712.342l7 1.614v-15z"/><path fill="#B094BF" d="M371.14 2758.956l26.86 9.785v45.215l-45-21.09z"/><path fill="#8FC8D4" d="M351.04 2796.956l46.96 21.655v54.345l-70-30.548z"/><path fill="#FCD435" d="M398 2880.98v191.976l-150-74.197 76.622-149.803z"/><path fill="#CD5B55" d="M398 2717.89l-7.772-1.934-3.228 7.442 11 3.558z"/><path fill="#81A2CC" d="M385.5 2726.956l12.5 4.4v32.6l-25-8.236z"/><path fill="#94ABB8" d="M405 2712.342l-7 1.614v-15z"/><path fill="#9A7EA9" d="M424.86 2758.956l-26.86 9.785v45.215l45-21.09z"/><path fill="#7CB4C0" d="M444.96 2796.956L398 2818.611v54.345l70-30.548z"/><path fill="#E5BE25" d="M398 2880.98v191.976l150-74.197-76.622-149.803z"/><path fill="#BF4E48" d="M398 2717.89l7.772-1.934 3.228 7.442-11 3.558z"/><path fill="#7194C0" d="M410.5 2726.956l-12.5 4.4v32.6l25-8.236z"/><text font-family="OpenSans, Open Sans" font-size="13" fill="#000"><tspan x="134.672" y="2911.756">I don’t use a </tspan> <tspan x="109.973" y="2929.756">module bundler</tspan></text><text font-family="OpenSans, Open Sans" font-size="13" fill="#000"><tspan x="217.29" y="2777.956">RequireJS</tspan></text><text font-family="OpenSans, Open Sans" font-size="13" fill="#000"><tspan x="272.83" y="2722.156">JSPM</tspan></text><text font-family="OpenSans, Open Sans" font-size="13" fill="#000"><tspan x="488.6" y="2699.356">Other</tspan></text><text font-family="OpenSans, Open Sans" font-size="13" fill="#000"><tspan x="531.2" y="2751.156">Webpack</tspan></text><text font-family="OpenSans, Open Sans" font-size="13" fill="#000"><tspan x="541.6" y="2820.356">Browserify</tspan></text><path d="M472.201 2750.001c.139-14.182 10.463-26.045 25.637-26.045 15.174 0 24.284 12.724 24.146 26.045-.138 13.321-11.967 23.923-24.513 23.955-12.545.032-25.408-9.773-25.27-23.955zm-55.701-.045h54" stroke="#999" stroke-dasharray="1.534825156739913,1.534825156739913"/><text font-family="OpenSans, Open Sans" font-size="20" fill="#000" transform="translate(416 2723.956)"><tspan x="61.032" y="32">11%</tspan></text><path d="M481.201 2820.001c.139-14.182 10.463-26.045 25.637-26.045 15.174 0 24.284 12.724 24.146 26.045-.138 13.321-11.967 23.923-24.513 23.955-12.545.032-25.408-9.773-25.27-23.955zm-33.101-.045h31.4" stroke="#999" stroke-dasharray="1.534825156739913,1.534825156739913"/><text font-family="OpenSans, Open Sans" font-size="20" fill="#000" transform="translate(448 2793.956)"><tspan x="38.832" y="32">16%</tspan></text><path d="M215.201 2920.001c.139-14.182 10.463-26.045 25.637-26.045 15.174 0 24.284 12.724 24.146 26.045-.138 13.321-11.967 23.923-24.513 23.955-12.545.032-25.408-9.773-25.27-23.955zm52.099-.445h31.4" stroke="#999" stroke-dasharray="1.534825156739913,1.534825156739913"/><text font-family="OpenSans, Open Sans" font-size="20" fill="#000" transform="translate(215 2893.956)"><tspan x="5.032" y="32">54%</tspan></text><path d="M282.801 2776.201c.139-14.182 10.463-26.045 25.637-26.045 15.174 0 24.284 12.724 24.146 26.045-.138 13.321-11.967 23.923-24.513 23.955-12.545.032-25.408-9.773-25.27-23.955zm52.099-.445h31.4" stroke="#999" stroke-dasharray="1.534825156739913,1.534825156739913"/><text font-family="OpenSans, Open Sans" font-size="20" fill="#000" transform="translate(282.6 2750.156)"><tspan x="5.032" y="31">13%</tspan></text><path d="M308.601 2721.001c.139-14.182 10.463-26.045 25.637-26.045 15.174 0 24.284 12.724 24.146 26.045-.138 13.321-11.967 23.923-24.513 23.955-12.545.032-25.408-9.773-25.27-23.955zm52.099-.445h31.4" stroke="#999" stroke-dasharray="1.534825156739913,1.534825156739913"/><text font-family="OpenSans, Open Sans" font-size="20" fill="#000" transform="translate(308.4 2694.956)"><tspan x="10.75" y="32">2%</tspan></text><path d="M431.401 2700.001c.139-14.182 10.463-26.045 25.637-26.045 15.174 0 24.284 12.724 24.146 26.045-.138 13.321-11.967 23.923-24.513 23.955-12.545.032-25.408-9.773-25.27-23.955zm-33.101-.045h31.4" stroke="#999" stroke-dasharray="1.534825156739913,1.534825156739913"/><text font-family="OpenSans, Open Sans" font-size="20" fill="#000" transform="translate(398.2 2673.956)"><tspan x="43.75" y="32">4%</tspan></text><text font-family="OpenSans, Open Sans" font-size="20" fill="#000"><tspan x="252" y="3169.2">Popular JavaScript Testing Tools</tspan></text><path d="M.5 3112.5h798" stroke="#E2E8F0" stroke-linecap="square"/><text font-family="OpenSans, Open Sans" font-size="20" fill="#000"><tspan x="99" y="3631.6">Useful JavaScript Tools for Packaging and Workflow Management</tspan></text><path d="M.5 3564.7h798m-799 510.8h798" stroke="#E2E8F0" stroke-linecap="square"/><g transform="translate(296 3289.6)"><mask id="p" fill="#fff"><use xlink:href="#o"/></mask><use fill="#D8D8D8" xlink:href="#o"/><path d="M111.793 111.893L13.398 56.232c-21.328 0-19.71 46.381-19.71 46.381l118.105 9.28z" fill="#B094BF" mask="url(#p)"/><path d="M111.793 111.893L.178 49.188c-21.328 0 61.282-56.591 43.252-45.189l68.363 107.894z" fill="#81A2CC" mask="url(#p)"/><path d="M111.793 111.893l-48.53-127.28c-21.328 0-8.876-2.532-26.907 8.87l75.437 118.41z" fill="#CD5B55" mask="url(#p)"/><path fill="#ABBEC9" mask="url(#p)" d="M111.793 111.893L63.398-11.868h15.597z"/><path fill="#DDB40E" mask="url(#p)" d="M111.793 111.893L85.311-17.277l-7.099 4.906z"/><path fill="#56929E" mask="url(#p)" d="M111.793 111.893L84.938-16.603l6.22 2.595z"/><path d="M111.793 111.893S90.459-13.233 90.556-13.22c4.526.555 20.444-1.467 20.444-1.467l.793 126.581z" fill="#668AB9" mask="url(#p)"/><path d="M111.793 111.893l-112.972-8.799s-4.193 5.388-2.903 22.865c1.636 22.177 41.648 91.04 41.648 91.04l74.227-105.106z" fill="#8FC8D4" mask="url(#p)"/><path d="M111.793 110.605l-81.216 116.08s63.767 24.542 131.876 4.982c38.17-10.961 63.273-81.51 66.875-98.355 9.493-44.395-26.872-96.05-35.562-103.954C170.426 8.134 134.036-1.256 111-1.256l.793 111.861z" fill="#FCD435" mask="url(#p)"/></g><ellipse cx="71.89" cy="71.67" rx="71.45" ry="71.45" transform="translate(335 3328.8)" fill="#F3F3F3"/><text font-family="OpenSans, Open Sans" font-size="14" fill="#1F2228"><tspan x="535" y="3377.8">I don’t use a tool </tspan> <tspan x="535" y="3396.8">to test my JS</tspan></text><circle fill="#1F2228" cx="509" cy="3403.8" r="2"/><circle fill="#FCD435" cx="673" cy="3401.8" r="20"/><text font-family="OpenSans, Open Sans" font-size="15" fill="#1F2228"><tspan x="657.8" y="3405.6">60%</tspan></text><path d="M511.5 3403.3h145" stroke="#1F2228" stroke-linecap="square"/><text font-family="OpenSans, Open Sans" font-size="14" fill="#1F2228"><tspan x="240.4" y="3463.8">Jasmine</tspan></text><text font-family="OpenSans, Open Sans" font-size="14" fill="#1F2228"><tspan x="220" y="3393.8">Mocha</tspan></text><text font-family="OpenSans, Open Sans" font-size="14" fill="#1F2228"><tspan x="239" y="3343.8">QUnit</tspan></text><text font-family="OpenSans, Open Sans" font-size="14" fill="#1F2228"><tspan x="265" y="3302.4">Tape</tspan></text><text font-family="OpenSans, Open Sans" font-size="14" fill="#1F2228"><tspan x="308" y="3265.8">Jest</tspan></text><text font-family="OpenSans, Open Sans" font-size="14" fill="#1F2228"><tspan x="332" y="3226.8">Karma</tspan></text><text font-family="OpenSans, Open Sans" font-size="14" fill="#1F2228"><tspan x="425.4" y="3253">Intern</tspan></text><circle fill="#1F2228" transform="rotate(180 325 3452.8)" cx="325" cy="3452.8" r="2"/><path stroke="#1F2228" d="M324.497 3453.8l-23.126 18.817H225"/><circle fill="#8FC8D4" transform="rotate(180 207 3471.8)" cx="207" cy="3471.8" r="20"/><text font-family="OpenSans, Open Sans" font-size="15" fill="#1F2228"><tspan x="192" y="3476.8">16%</tspan></text><text font-family="OpenSans, Open Sans" font-size="14" fill="#1F2228"><tspan x="463" y="3297.8">Other</tspan></text><circle fill="#1F2228" cx="403.4" cy="3291.6" r="2"/><path stroke="#1F2228" d="M402.303 3290.6l22.31 11.952h92.928"/><circle fill="#668AB9" cx="536.8" cy="3302.4" r="20"/><text font-family="OpenSans, Open Sans" font-size="15" fill="#1F2228"><tspan x="520.8" y="3307.4">1.7%</tspan></text><circle fill="#1F2228" cx="389" cy="3291.444" r="2"/><circle fill="#1F2228" cx="384.2" cy="3292.244" r="2"/><circle fill="#1F2228" cx="377" cy="3294.644" r="2"/><circle fill="#1F2228" cx="360" cy="3301" r="2"/><path stroke="#1F2228" d="M389.8 3290.286l30.123-30.263h59.208m-95.331 31.063l-10.4-54.565h-61.771"/><circle fill="#56929E" cx="498" cy="3260" r="20"/><text font-family="OpenSans, Open Sans" font-size="15" fill="#1F2228"><tspan x="482" y="3265">0.4%</tspan></text><path stroke="#1F2228" d="M376.497 3294.617L357 3273.597h-89.37m92.467 27.003l-28.388 8.39h-82.624"/><path d="M184 3421.4c-11.046 0-20-8.954-20-20s8.954-20 20-20 20 8.954 20 20-8.954 20-20 20z" fill="#B094BF"/><text font-family="OpenSans, Open Sans" font-size="15" fill="#1F2228"><tspan x="169" y="3404.4">15%</tspan></text><path d="M203 3369.8c-11.046 0-20-8.954-20-20s8.954-20 20-20 20 8.954 20 20-8.954 20-20 20z" fill="#81A2CC"/><text font-family="OpenSans, Open Sans" font-size="15" fill="#1F2228"><tspan x="192" y="3352.8">4%</tspan></text><path d="M229.8 3324.6c-11.046 0-20-8.954-20-20s8.954-20 20-20 20 8.954 20 20-8.954 20-20 20z" fill="#CD5B55"/><text font-family="OpenSans, Open Sans" font-size="15" fill="#1F2228"><tspan x="214" y="3308.4">1.5%</tspan></text><path d="M297.2 3252.6c-11.046 0-20-8.954-20-20s8.954-20 20-20 20 8.954 20 20-8.954 20-20 20z" fill="#DDB30E"/><text font-family="OpenSans, Open Sans" font-size="15" fill="#1F2228"><tspan x="281.2" y="3235.6">0.7%</tspan></text><path d="M249.8 3284.6c-11.046 0-20-8.954-20-20s8.954-20 20-20 20 8.954 20 20-8.954 20-20 20z" fill="#ABBEC9"/><text font-family="OpenSans, Open Sans" font-size="15" fill="#1F2228"><tspan x="233.8" y="3267.6">0.8%</tspan></text><circle fill="#1F2228" transform="rotate(180 303 3381.8)" cx="303" cy="3381.8" r="2"/><path stroke="#1F2228" d="M302.497 3382.8l-23.126 18.817H203"/><circle fill="#1F2228" transform="rotate(180 322 3331.8)" cx="322" cy="3331.8" r="2"/><path stroke="#1F2228" d="M321.497 3332.8l-23.126 18.817H222"/><path fill="#000" d="M764 3280.008H618v75.79h63.374v8.994l9.629-8.994H764z"/><text font-family="OpenSans-Bold, Open Sans" font-size="30" font-weight="bold" fill="#FFF"><tspan x="661.663" y="3313.176">60%</tspan></text><text font-family="OpenSans, Open Sans" font-size="10" fill="#FFF"><tspan x="633.577" y="3332">of respondents don’t test </tspan> <tspan x="657.095" y="3346">their JavaScript</tspan></text><path fill="#DDD" d="M145 3914.044h511v59H145z"/><path fill="#EEF0EF" d="M145 3855.444h511v59H145z"/><path fill="#DDD" d="M145 3797.044h511v59H145z"/><path fill="#EEF0EF" d="M145 3738.444h511v59H145z"/><text font-family="OpenSans, Open Sans" font-size="13" fill="#000"><tspan x="150" y="3753.044">3000</tspan></text><text font-family="OpenSans, Open Sans" font-size="13" fill="#000"><tspan x="148" y="3812.044">2250</tspan></text><text font-family="OpenSans, Open Sans" font-size="13" fill="#000"><tspan x="148" y="3867.044">1500</tspan></text><text font-family="OpenSans, Open Sans" font-size="13" fill="#000"><tspan x="148" y="3926.044">750</tspan></text><text transform="rotate(45 459.777 3997.292)" font-family="OpenSans, Open Sans" font-size="13" fill="#000"><tspan x="441.777" y="4002.292">Ender</tspan></text><text transform="rotate(45 359.366 4002.242)" font-family="OpenSans, Open Sans" font-size="13" fill="#000"><tspan x="334.366" y="4007.242">Yeoman</tspan></text><text transform="rotate(45 253.417 3998.353)" font-family="OpenSans, Open Sans" font-size="13" fill="#000"><tspan x="233.917" y="4003.353">Bower</tspan></text><path fill="#FCD435" d="M428 3902.2h50v70h-50z"/><path fill="#8FC8D4" d="M428 3902.2h50v-33h-50z"/><path fill="#81A2CC" d="M428 3867.8h50v2h-50z"/><path fill="#CD5B55" d="M428 3868h50v-107h-50z"/><path fill="#FCD435" d="M328 3928.4h50v44h-50z"/><path fill="#8FC8D4" d="M328 3928.4h50v-49h-50z"/><path fill="#81A2CC" d="M328 3877.4h50v3h-50z"/><path fill="#CD5B55" d="M328 3877.4h50v-32h-50zm-104-46h50v-10h-50z"/><path fill="#FCD435" d="M224 3933.4h50v39h-50z"/><path fill="#8FC8D4" d="M224 3935.4h50v-59h-50z"/><path fill="#81A2CC" d="M224 3831.4h50v46h-50z"/><path fill="#FCD435" d="M547 3966.6h50v6h-50z"/><path fill="#8FC8D4" d="M547 3966.6h50v-19h-50z"/><path fill="#81A2CC" d="M547 3836.6h50v111h-50z"/><path fill="#CD5B55" d="M547 3836.6h50v-8h-50z"/><text transform="rotate(45 577.97 3995.17)" font-family="OpenSans, Open Sans" font-size="13" fill="#000"><tspan x="562.971" y="4000.171">NPM</tspan></text><text font-family="OpenSans, Open Sans" font-size="14" fill="#1F2228"><tspan x="291.2" y="3701.444">Used a little</tspan></text><ellipse fill="#8FC8D4" transform="matrix(-1 0 0 1 546.4 0)" cx="273.2" cy="3698.444" rx="10" ry="10"/><text font-family="OpenSans, Open Sans" font-size="14" fill="#1F2228"><tspan x="177" y="3700.444">Heard of/</tspan> <tspan x="177" y="3719.444">Read about</tspan></text><circle fill="#FCD435" transform="matrix(-1 0 0 1 310 0)" cx="155" cy="3698.444" r="10"/><text font-family="OpenSans, Open Sans" font-size="14" fill="#1F2228"><tspan x="574.6" y="3701.244">Never heard </tspan> <tspan x="574.6" y="3720.244">of</tspan></text><ellipse fill="#CD5B55" transform="matrix(-1 0 0 1 1118.2 0)" cx="559.1" cy="3697.244" rx="10" ry="10"/><text font-family="OpenSans, Open Sans" font-size="14" fill="#1F2228"><tspan x="420.2" y="3700.644">Feel comfortable </tspan> <tspan x="420.2" y="3719.644">using</tspan></text><circle fill="#81A2CC" transform="matrix(-1 0 0 1 798 0)" cx="399" cy="3698.644" r="10"/><text font-family="OpenSans, Open Sans" font-size="18" fill="#000" transform="translate(263 4116)"><tspan x="163.093" y="20.4">in Berlin</tspan></text><g transform="translate(291 4175.257)"><mask id="r" fill="#fff"><use xlink:href="#q"/></mask><path d="M58.23 29.788a43.518 43.518 0 0 0-3.276-13.742 44.126 44.126 0 0 0-1.547-3.344c2.005-1.164 3.353-3.3 3.353-5.749 0-3.691-3.053-6.683-6.82-6.683H8.35c-3.767 0-6.82 2.992-6.82 6.683 0 2.448 1.346 4.582 3.348 5.746a44.089 44.089 0 0 0-1.545 3.343A43.527 43.527 0 0 0 .054 29.788C.028 30.363 0 30.939 0 31.52c0 4.181.694 8.201 1.957 11.968.377 1.06 1.101 2.886 1.988 4.105.097.126.188.248.3.38l.038.047c.394.463.87.96 1.445 1.452.58.494 1.25.986 2.015 1.398.755.41 1.636.741 2.505.851.91.128 1.87-.025 2.603-.53.746-.49 1.28-1.352 1.59-2.324.616-1.971.548-4.205.36-6.225-.207-2.036-.584-3.928-.957-5.536-.76-3.218-1.504-5.308-1.504-5.308s.89 2.032 1.88 5.21c.488 1.59 1.003 3.468 1.36 5.533.33 2.061.597 4.332.058 6.653-.276 1.14-.853 2.343-1.903 3.156-1.052.826-2.366 1.082-3.547 1.11-1.242.008-2.346-.27-3.346-.643-.122-.046-.226-.106-.345-.155a38.807 38.807 0 0 0 6.459 7.323c1.307.704 3.436 1.225 6.257-.21 4.918-2.504 9.836-2.782 9.836-2.782s4.918.278 9.836 2.781c3.304 1.682 5.66.68 6.855-.158a38.826 38.826 0 0 0 6.032-6.931c-.11.045-.207.101-.32.144-1.001.374-2.105.652-3.347.643-1.18-.028-2.495-.284-3.547-1.11-1.05-.813-1.627-2.016-1.903-3.156-.539-2.321-.273-4.592.058-6.653.358-2.065.872-3.943 1.361-5.533.99-3.179 1.879-5.21 1.879-5.21s-.745 2.09-1.503 5.308c-.374 1.608-.75 3.5-.957 5.537-.189 2.02-.257 4.253.36 6.224.308.973.843 1.833 1.59 2.325.733.504 1.693.657 2.602.529.87-.11 1.75-.441 2.506-.85a11.714 11.714 0 0 0 2.014-1.398c.78-.67 1.37-1.34 1.824-1.931.707-.987 1.308-2.35 1.71-3.392a37.547 37.547 0 0 0 2.186-12.642c0-.582-.029-1.157-.055-1.733" fill="#F6C823" mask="url(#r)"/></g><path d="M314.028 4186.985c0 3.368-2.785 6.1-6.222 6.1-3.436 0-6.222-2.732-6.222-6.1 0-3.37 2.786-6.1 6.222-6.1 3.437 0 6.222 2.73 6.222 6.1" fill="#FFF"/><path d="M299.349 4178.857c-1.89 0-3.42 1.5-3.42 3.353 0 1.2.649 2.247 1.617 2.839a44.715 44.715 0 0 1 3.958-5.424 3.432 3.432 0 0 0-2.155-.768m41.592 0a3.43 3.43 0 0 0-2.157.771 44.756 44.756 0 0 1 3.956 5.423c.97-.591 1.622-1.638 1.622-2.841 0-1.852-1.531-3.353-3.42-3.353m-33.136 5.413c-.192 0-.38.02-.56.056.11.207.175.442.175.693 0 .822-.68 1.49-1.52 1.49a1.54 1.54 0 0 1-.772-.208 2.663 2.663 0 0 0-.092.684c0 1.499 1.24 2.714 2.77 2.714 1.529 0 2.768-1.215 2.768-2.714 0-1.5-1.24-2.715-2.769-2.715" fill="#25282C"/><path d="M338.7 4186.985c0 3.368-2.785 6.1-6.222 6.1-3.436 0-6.222-2.732-6.222-6.1 0-3.37 2.786-6.1 6.222-6.1 3.437 0 6.222 2.73 6.222 6.1" fill="#FFF"/><path d="M332.478 4184.27c-.192 0-.379.02-.56.056.112.207.175.442.175.693 0 .822-.68 1.49-1.52 1.49a1.54 1.54 0 0 1-.772-.208 2.663 2.663 0 0 0-.091.684c0 1.499 1.24 2.714 2.768 2.714 1.53 0 2.77-1.215 2.77-2.714 0-1.5-1.24-2.715-2.77-2.715" fill="#25282C"/><path d="M328.509 4198.762c0 4.58-3.788 8.294-8.46 8.294-4.672 0-8.46-3.714-8.46-8.294s3.788-8.293 8.46-8.293c4.672 0 8.46 3.713 8.46 8.293" fill="#FFF"/><path d="M324.438 4194.234c0-.115-.022-.223-.054-.328-.013-.051-.024-.081-.024-.081h-.001a1.15 1.15 0 0 0-.16-.282l.001-.001s-.497-1.005-4.1-1.014v-.001h-.052c-2.097.006-3.14.347-3.646.633a1.17 1.17 0 0 0-.664.665h-.001s-.013.035-.029.095c-.029.1-.05.204-.05.314 0 .01.003.019.004.029-.022.52.152 1.439 1.358 2.38 1.101.86 1.96 1.18 2.479 1.3v9.085c.182.011.364.028.549.028.185 0 .367-.017.549-.028v-9.084c.519-.122 1.378-.442 2.478-1.301 1.2-.938 1.378-1.852 1.359-2.374 0-.012.003-.023.003-.035" fill="#25282C"/><path d="M306.437 4173.747h27.285a24.278 24.278 0 0 0-11.262-4.05l1.67-4.458s-1.063-.869-4.05-.869c-2.988 0-4.052.869-4.052.869l1.67 4.458a24.272 24.272 0 0 0-11.261 4.05" fill="#F6C823"/><path d="M295.592 4220.088s-.452-.576-.95-1.55c-.5-.97-1.009-2.342-1.333-3.752a20.724 20.724 0 0 1-.52-3.928c-.028-1.081.041-1.803.041-1.803s.055.175.13.48l.3 1.266c.238 1.045.524 2.432.85 3.806.312 1.377.673 2.74.971 3.763l.366 1.242c.099.3.145.476.145.476m42.192-8.708s-.012.484-.09 1.188a30.18 30.18 0 0 1-.43 2.533 35.064 35.064 0 0 1-.627 2.488c-.094.34-.207.62-.265.82-.067.198-.116.31-.116.31s-.08-.478-.087-1.195a12.9 12.9 0 0 1 .29-2.588c.2-.926.496-1.829.78-2.486.289-.656.545-1.07.545-1.07m-38.544-35.042s-.51.19-1.173.581c-.334.19-.707.428-1.08.71a8.552 8.552 0 0 0-1.083.962c-.35.348-.643.743-.924 1.117-.253.39-.498.758-.676 1.097-.201.329-.341.621-.444.827-.106.204-.178.32-.178.32s0-.131.024-.362c.035-.227.034-.571.157-.954.087-.396.267-.835.495-1.294.246-.45.567-.9.947-1.304.773-.8 1.78-1.347 2.581-1.545.802-.214 1.354-.155 1.354-.155" fill="#FFF"/><path d="M289.554 4255.048c-.728.726-1.622 1.089-2.68 1.089-1.043 0-1.928-.363-2.657-1.09-.728-.724-1.091-1.658-1.091-2.8 0-1.125.363-2.053 1.091-2.788.729-.734 1.614-1.1 2.657-1.1 1.042 0 1.931.366 2.668 1.1.736.735 1.104 1.663 1.104 2.789 0 1.14-.364 2.075-1.092 2.8zm-2.68-9.33c-1.953 0-3.596.615-4.927 1.845-1.333 1.232-1.999 2.793-1.999 4.685 0 1.891.666 3.452 1.999 4.684 1.331 1.231 2.974 1.847 4.927 1.847 1.969 0 3.62-.616 4.952-1.847 1.331-1.232 1.997-2.793 1.997-4.684 0-1.892-.67-3.453-2.01-4.685-1.34-1.23-2.987-1.846-4.94-1.846zm27.825 4.915c.182-.782.541-1.398 1.08-1.846.536-.449 1.211-.673 2.022-.673.662 0 1.22.236 1.676.71.455.473.69 1.076.707 1.809h-5.485zm3.102-4.916c-1.903 0-3.45.608-4.641 1.823-1.192 1.214-1.788 2.784-1.788 4.708 0 1.826.625 3.37 1.875 4.635 1.249 1.263 2.891 1.896 4.927 1.896.595 0 1.179-.07 1.75-.21a8.2 8.2 0 0 0 1.402-.452c.364-.162.715-.35 1.055-.562.34-.212.559-.362.657-.452.1-.09.175-.16.223-.208l-1.314-2.153-.448.342c-.281.23-.72.462-1.315.698a4.804 4.804 0 0 1-1.787.355c-.993 0-1.846-.294-2.556-.882-.712-.586-1.126-1.409-1.242-2.47h8.738l.075-1.15c0-1.71-.496-3.125-1.491-4.243-.992-1.116-2.366-1.675-4.12-1.675zm30.853 9.404c-.613.694-1.374 1.04-2.283 1.04-.994 0-1.763-.379-2.309-1.137-.546-.758-.82-1.66-.82-2.703 0-1.304.307-2.287.919-2.947.613-.66 1.365-.991 2.26-.991.942 0 1.703.36 2.283 1.076.58.718.868 1.663.868 2.838 0 1.19-.306 2.131-.918 2.824zm-1.539-9.404a5.38 5.38 0 0 0-1.552.22c-.488.147-.868.306-1.14.477a4.474 4.474 0 0 0-.758.599c-.233.229-.377.388-.434.477-.059.09-.104.16-.137.208h-.05v-.489c0-.799-.53-1.199-1.588-1.199h-5.759c-.86 0-1.423.393-1.687 1.174l-.072.206-2.51 7.191-2.978-7.397c-.166-.423-.373-.725-.621-.904-.248-.18-.596-.27-1.043-.27h-2.434l5.612 12.45-.423.954c-.446 1.06-1.142 1.59-2.085 1.59-.695 0-1.299-.285-1.812-.856l-1.215 2.2.371.319c.232.212.613.423 1.142.636a4.5 4.5 0 0 0 1.688.318 4.73 4.73 0 0 0 2.706-.82c.81-.546 1.43-1.357 1.862-2.433l4.542-11.275c.116-.294.356-.44.72-.44h2.184c.363 0 .546.178.546.537v14.186h3.127v-5.16c0-.424-.016-.784-.05-1.077h.05l.348.416c.232.261.648.53 1.253.807.604.277 1.279.417 2.024.417 1.687 0 3.077-.6 4.17-1.799 1.091-1.198 1.638-2.776 1.638-4.732 0-1.94-.514-3.514-1.54-4.721-1.026-1.207-2.39-1.81-4.095-1.81zm16.829 9.331c-.728.726-1.62 1.089-2.68 1.089-1.042 0-1.928-.363-2.656-1.09-.728-.724-1.093-1.658-1.093-2.8 0-1.125.365-2.053 1.093-2.788.728-.734 1.614-1.1 2.657-1.1 1.041 0 1.931.366 2.668 1.1.736.735 1.104 1.663 1.104 2.789 0 1.14-.364 2.075-1.093 2.8zm-2.68-9.33c-1.953 0-3.595.615-4.927 1.845-1.332 1.232-1.998 2.793-1.998 4.685 0 1.891.666 3.452 1.998 4.684 1.332 1.231 2.974 1.847 4.928 1.847 1.968 0 3.619-.616 4.951-1.847 1.332-1.232 1.998-2.793 1.998-4.684 0-1.892-.67-3.453-2.01-4.685-1.341-1.23-2.988-1.846-4.94-1.846zm15.513 10.149c-.63 0-1.204-.167-1.725-.5-.521-.335-.783-.95-.783-1.848v-5.038h2.88v-2.47h-2.88v-3.4h-3.077v3.4h-1.713v2.47h1.638v5.43c0 .8.129 1.496.385 2.09.256.597.571 1.053.943 1.37a4.5 4.5 0 0 0 1.328.771c.513.196.969.323 1.365.379a8.6 8.6 0 0 0 1.242.086c.38 0 .703-.024.967-.074v-2.714l-.57.048m-102.522-13.085v5.7h-7.77v-5.7c0-.57-.132-.99-.397-1.26-.265-.269-.695-.404-1.29-.404h-1.564v17.367h3.251v-7.289h7.77v7.289h3.251v-17.367h-1.563c-1.126 0-1.688.556-1.688 1.664m29.919 2.935c-1.142 0-2.085.26-2.83.782-.744.523-1.29 1.126-1.638 1.81h-.05l.05-.538v-.366c0-.93-.554-1.395-1.663-1.395h-1.365v12.475h3.128v-5.724c0-.62.082-1.174.248-1.663.231-.766.649-1.382 1.253-1.847.604-.464 1.32-.697 2.147-.697.745 0 1.262.217 1.552.649.29.431.434 1.064.434 1.895v5.724c0 .587.132 1.01.397 1.272.265.26.695.39 1.291.39h1.465v-8.022c0-3.163-1.474-4.745-4.419-4.745" fill="#000"/><text font-family="OpenSans, Open Sans" font-size="18" fill="#000" transform="translate(263 4116)"><tspan x="29.989" y="19.6">Made with</tspan></text><path d="M401.79 4138.46a3.77 3.77 0 0 0 2.757 1.14 3.77 3.77 0 0 0 2.759-1.14l8.187-8.32c2.81-2.869 2.81-7.52 0-10.39a7.086 7.086 0 0 0-10.169 0l-.728.733-.72-.732a7.086 7.086 0 0 0-10.17 0c-2.808 2.869-2.808 7.519 0 10.388l8.084 8.321z" fill="#D64E41"/><g fill="#000"><path d="M486.354 4183.215c-6.426 1.735-11.36 5.328-12.347 13.833-7.494-5.562 1.925-20.63 12.343-13.833h.004zm9.646-2.799c4.038-1.29 0 5.477 2.755 5.477-2.905 1.947-6.299-3.432-10.984-2.745 1.656-1.981 7.129-.177 8.237-2.732H496z"/><path d="M469.101 4190.913c.517 1.33 1.172 2.754 1.963 3.957.826 1.235 1.932 2.343 3.547 2.266-3.86 1.102-7.504 2.616-10.184 5.726-2.667 3.096-4.262 6.972-5.366 10.857-2.87-2.21-4.685 2.72-5.526 4.711-.744 1.76-1.577 6.806 2.09 4.397 1.408-.93 2.09-2.823 4.02-2.896-.94 2.619-2.089 5.06-5.134 5.428-2.071.25-4.134-.472-5.864-1.57-.934-.594-3.85-2.666-3.78-3.896.163-2.817 3.342-.377 3.66-2.61.198-1.388.086-2.788.36-4.17.288-1.454.771-2.848.922-4.332 1.141.095.38 2.089 1.235 2.469 3.176-1.11 5.345-3.716 6.764-6.676.749-1.562 1.337-3.194 1.89-4.835.461-1.37.445-3.046 1.309-4.26.9-1.261 2.495-1.568 3.871-2.028a11.075 11.075 0 0 0 4.214-2.538h.009zm7.197 8.581c3.106.601 3.388 1.836 4.718 3.292-2.162 2.05-3.135 7.177-1.893 9.148-4.117-.917-3.602-7.533-2.81-12.44h-.015zm6.951 5.568c1.55.95 1.393 2.88 1.995 4.4-1.563 1.962-3.483 3.296-3.905 7.254-.98-3.325.04-8.041 1.908-11.654h.002zm.126-43.521c-2.616 4.843 4.148 14.563-.617 19.752-1.455.014-1.819-1.063-3.706-.617 6.25-3.593-1.6-14.767 4.322-19.135h.001z"/><path d="M464.231 4163.393c.032.475.57.981.57 1.646.007.893-.335 1.849-.608 2.684-.702 2.147-1.611 4.22-2.29 6.375-.827 2.619-1.628 5.19-.992 7.977.483 2.121 1.868 3.672 3.737 1.802 3.334-3.343 4.308-9.412 5.786-13.731.875-2.555 1.968-5.22 3.683-7.343-.84 1.04-.757 3.12-1.123 4.394-.513 1.784-1.313 3.615-1.036 5.513.339 2.31 2.217 2.248 3.927 1.33-.937.497-1.395 2.354-1.991 3.163-.904 1.227-1.866 2.414-2.654 3.723-1.885 3.133-2.652 6.632-2.064 10.256-2.343 1.568-3.686 4.135-8.028 3.704-4.212 3.403-7.401 7.828-8.645 14.199-2.697-6.456 2.692-14.817 6.176-19.137-.684-5.848-2.13-8.452-1.236-12.964 1.054-5.345 7.216-7.34 6.773-13.591h.015zm35.981 26.61c1.51-1.456 3.958 2.817 7.853 1.583-.98 2.951-2.06 5.802-2.36 9.434-1.877-3.614-2.224-8.806-5.485-11.017h-.008zm-24.865 25.862c-.743 4.202-2.423 12.8-6.175 16.049-3.88.38-4.114-2.884-7.411-3.087.403-1.86 2.426-2.103 3.088-3.703.736-4.855-.598-15.481-4.134-17.873 1.917-3.227 4.162-6.985 8.363-7.93-.446 2.753 3.04 6.393 3.166 8.518.435 6.254-5.173 12.14-3.706 20.385 3.451-.493 4.64-8.534 6.824-12.359h-.015zm30.496-13.19c1.737 2.881 2.058 7.186 4.623 9.275-1.768 1.622-7.254 11.226-5.559 7.41.106-5.779 1.55-10.21.949-16.685h-.013z"/><path d="M476.245 4198.344s3.394-17.253 14.995-12.728c0 0 17.162 3.64 10.196 30.829-5.104 19.8 17.53 19.8 17.53 19.797 0-.004-34.518 13.578-32.253-21.777 0 .002.555-14.147-10.464-16.121h-.004z"/><text font-family="AndaleMono, Andale Mono" font-size="14" transform="translate(433 4161)"><tspan x=".592" y="97.407">Ashley Nolan</tspan></text></g></g></svg>