<?xml version="1.0" encoding="UTF-8" standalone="no"?>
<svg width="577px" height="218px" viewBox="0 0 577 218" version="1.1" xmlns="http://www.w3.org/2000/svg" xmlns:xlink="http://www.w3.org/1999/xlink" xmlns:sketch="http://www.bohemiancoding.com/sketch/ns">
    <!-- Generator: Sketch 3.4.2 (15857) - http://www.bohemiancoding.com/sketch -->
    <title>Slice 1</title>
    <desc>Created with Sketch.</desc>
    <defs></defs>
    <g id="Page-1" stroke="none" stroke-width="1" fill="none" fill-rule="evenodd" sketch:type="MSPage">
        <g id="christmaspot" sketch:type="MSLayerGroup" transform="translate(45.000000, 35.000000)">
            <g id="Page-1" sketch:type="MSShapeGroup">
                <g id="A6-Printsize-Front-Copy">
                    <g id="Mascot3_EPS">
                        <g id="Group-3" transform="translate(2.482198, 37.082482)" fill="#F6C823">
                            <path d="M99.8155497,29.2519573 C98.9446894,27.15706 98.0194812,25.0897822 96.9833006,23.0854508 C100.655494,20.9388475 103.12521,17.0001966 103.12521,12.4828235 C103.12521,5.67464833 97.5329579,0.155591252 90.6337642,0.155591252 L14.4350967,0.155591252 C7.53622822,0.155591252 1.94365054,5.67464833 1.94365054,12.4828235 C1.94365054,16.9966639 4.40978692,20.9327456 8.07742443,23.0806334 C7.04124359,25.0840014 6.11603566,27.150637 5.24550059,29.2448919 C2.909021,34.865106 0.146948611,44.3735859 0.1469486,46.9522676 C0.14694859,49.530949 0.881950232,52.0142521 0.699885496,54.5981894 C0.652046746,55.6599295 0.477553416,56.9046297 0.576928876,58.028055 C0.477553416,65.689838 0.411183377,72.919148 2.72501679,79.8660622 C3.41493618,81.8215782 4.7420547,85.1892147 6.36792133,87.4376242 C6.54528269,87.6685349 6.71288103,87.8936648 6.91530078,88.1364584 C7.7080572,89.0790499 8.58217204,89.9946642 9.63397369,90.9032131 C10.6955383,91.8124042 11.9253522,92.7212741 13.324717,93.4811281 C14.7081355,94.2371282 16.3222865,94.8476447 17.9146335,95.0502938 C19.5811793,95.2860219 21.3398229,95.0037263 22.6822368,94.0739812 C24.0506853,93.1673592 25.0292645,91.5802088 25.5955191,89.785913 C26.7250994,86.150754 26.5998075,82.0319349 26.2538714,78.3068524 C25.8757175,74.550939 25.1861235,71.0609422 24.5014111,68.0953924 C23.1114839,62.1597967 21.7479167,58.3056098 21.7479167,58.3056098 C21.7479167,58.3056098 23.4407123,62.0234615 25.2533778,67.8858336 C26.1496222,70.8183044 27.0274272,74.3100723 27.6831761,78.1192977 C28.2888081,81.9208152 28.7772841,86.1086826 27.7902438,90.3893643 C27.2832181,92.4922903 26.2265349,94.7108325 24.302571,96.2096652 C22.3763292,97.7341902 19.96812,98.2056465 17.8056132,98.2576736 C15.5288792,98.2730891 13.5076107,97.7602039 11.6744428,97.0713252 C11.4511953,96.986219 11.2608166,96.8767051 11.0437524,96.7861392 C14.3957192,101.774647 18.3874886,106.297801 22.8755445,110.291691 C25.26976,111.590765 29.1710588,112.550377 34.3382947,109.902451 C43.3482513,105.28584 52.358208,104.772955 52.358208,104.772955 C52.358208,104.772955 61.3681648,105.28584 70.3777961,109.902451 C76.4321641,113.004491 80.7483908,111.158169 82.9356306,109.611805 C87.1028088,105.795193 90.8293498,101.519329 93.9863819,96.8282106 C93.7842875,96.9120322 93.6072515,97.0144809 93.3992995,97.093485 C91.5661315,97.7823636 89.5451885,98.2952488 87.2684546,98.2798334 C85.1056224,98.2278062 82.6977387,97.7563499 80.7714967,96.2318249 C78.8475327,94.7329922 77.7908495,92.51445 77.2838239,90.4115239 C76.2967835,86.1308424 76.7849341,81.942975 77.3908916,78.1414574 C78.046315,74.3325534 78.9884457,70.8695336 79.8846899,67.9370629 C81.6970301,62.0746907 83.326151,58.3277695 83.326151,58.3277695 C83.326151,58.3277695 82.4713947,62.1597943 81.081793,68.09539 C80.3970806,71.0609399 79.3681823,74.5512631 79.0483292,78.3266057 C78.6440925,82.0319379 78.348643,86.1729137 79.4785486,89.8080728 C80.0448034,91.6023686 81.0230569,93.1895189 82.3915054,94.096141 C83.7342448,95.0262072 85.4925629,95.3081817 87.1591089,95.0724535 C88.7517812,94.8698045 90.3659323,94.2592878 91.7490253,93.5032879 C93.1487156,92.7434339 94.378204,91.8345639 95.4397686,90.9253728 C96.8690733,89.6911721 97.9504894,88.4553659 98.7813216,87.3640795 C100.077199,85.5450547 101.178791,83.0316921 101.914272,81.1079706 C104.500493,73.807464 105.917757,65.9651681 105.917757,57.7930457 C105.917757,56.7200652 105.866013,55.6596097 105.818174,54.5981907 C105.189436,45.6771336 103.102755,37.1613748 99.8155497,29.2519573 L99.8155497,29.2519573 Z" id="Fill-1"></path>
                        </g>
                        <path d="M16.9172948,43.3811354 C13.4563076,43.3811354 10.6504185,46.1498166 10.6504185,49.5653054 C10.6504185,51.7806359 11.8405295,53.7088535 13.614143,54.8011032 C15.782833,51.2863776 18.2027578,47.9405798 20.8648052,44.7987155 C19.7843654,43.9261361 18.4221001,43.3811354 16.9172948,43.3811354" id="Fill-4" fill="#25282C"></path>
                        <path d="M93.1159623,43.3811354 C91.6082281,43.3811354 90.2433591,43.9283843 89.1622685,44.8038541 C91.8236652,47.9457182 94.2426136,51.2911949 96.4106526,54.8055994 C98.1891478,53.7143132 99.3828384,51.7838474 99.3828384,49.5653054 C99.3828384,46.1498166 96.5769494,43.3811354 93.1159623,43.3811354" id="Fill-5" fill="#25282C"></path>
                        <path d="M70.3391849,80.0930614 C70.3391849,88.5400931 63.4002881,95.3880917 54.8404061,95.3880917 C46.2805243,95.3880917 39.3413021,88.5400931 39.3413021,80.0930614 C39.3413021,71.6457087 46.2805243,64.7977102 54.8404061,64.7977102 C63.4002881,64.7977102 70.3391849,71.6457087 70.3391849,80.0930614" id="Fill-6" fill="#FFFFFF"></path>
                        <path d="M53.8344907,95.3379914 C54.1687112,95.3591876 54.5003281,95.3880917 54.8397554,95.3880917 C55.1795081,95.3880917 55.5117758,95.3591876 55.8459963,95.3379914 L55.8459963,75.4581454 L53.8344907,75.4581454 L53.8344907,95.3379914" id="Fill-7" fill="#25282C"></path>
                        <path d="M62.8818723,71.7414129 C62.8818723,71.5300927 62.841193,71.330334 62.7832658,71.1373194 C62.7578819,71.0425787 62.7373796,70.9870188 62.7373796,70.9870188 L62.7357526,70.9870188 C62.6635062,70.7985005 62.5652252,70.6250764 62.4444893,70.4664258 L62.4454658,70.4644987 C62.4454658,70.4644987 61.5349024,68.6120739 54.9321786,68.5940892 L54.9321786,68.5924834 C54.9159068,68.5924834 54.9022386,68.5934469 54.8862923,68.5934469 C54.8700206,68.5934469 54.8563524,68.5924834 54.8404061,68.5924834 L54.8404061,68.5940892 C50.9986616,68.6046874 49.0886913,69.2341521 48.1602291,69.760847 C47.5995069,69.9827655 47.1591953,70.4285294 46.9447344,70.9870188 L46.9414801,70.9870188 C46.9414801,70.9870188 46.9177233,71.0525345 46.8897361,71.1623696 C46.8366905,71.3476763 46.7989402,71.5394063 46.7989402,71.7414129 C46.7989402,71.7597188 46.8038215,71.7767402 46.8044725,71.7947249 C46.7650949,72.7553009 47.0843454,74.4477904 49.292413,76.1836356 C51.4650081,77.8918617 53.1338321,78.4493877 54.0509041,78.6340521 C54.1208724,78.6497886 54.1921423,78.6591022 54.2634122,78.6706638 C54.6243183,78.7284719 54.8387791,78.7281505 54.8387791,78.7281505 L54.8404061,78.7281505 C54.8404061,78.7281505 55.0538907,78.7281505 55.4134948,78.6709851 C55.4867174,78.6591022 55.5599401,78.6494675 55.6315354,78.6334099 C56.5499093,78.447782 58.217106,77.8892924 60.3864467,76.1836356 C62.5857275,74.4548558 62.9111613,72.7691106 62.8750382,71.8066075 C62.875689,71.7844478 62.8818723,71.7638938 62.8818723,71.7414129" id="Fill-8" fill="#25282C"></path>
                        <path d="M16.7178039,38.7349789 C16.7178039,38.7349789 15.7854365,39.0876075 14.5689654,39.8079592 C13.9564992,40.1567341 13.2740648,40.5960749 12.5913049,41.1153833 C11.9036636,41.6273052 11.2277379,42.2355737 10.6061595,42.8913732 C9.96538064,43.5336841 9.42776422,44.2623859 8.91292813,44.9509432 C8.45048688,45.6722585 8.00106298,46.348612 7.67432757,46.9742228 C7.30658752,47.5802432 7.0501458,48.1204267 6.86139426,48.4990692 C6.66743579,48.8761057 6.53498428,49.0912798 6.53498428,49.0912798 C6.53498428,49.0912798 6.53693689,48.8472016 6.57859241,48.4213495 C6.64433001,48.003205 6.64172654,47.3679594 6.86822837,46.6620596 C7.02638913,45.9323945 7.35768061,45.1234038 7.77358484,44.2768378 C8.22431048,43.4469722 8.81236914,42.6158217 9.5087972,41.8710622 C10.9247591,40.3953526 12.7709443,39.3869245 14.2383248,39.0220918 C15.7066815,38.6267494 16.7178039,38.7349789 16.7178039,38.7349789" id="Fill-12" fill="#FFFFFF"></path>
                        <path d="M41.6121782,59.8721485 L41.6138054,59.8721485 L41.6108764,59.867331 C41.6046933,59.8544849 41.5942794,59.8432444 41.5880961,59.8300772 C41.5672685,59.796677 41.5343995,59.744971 41.4816794,59.668857 C41.3860019,59.5063524 41.2756797,59.3525188 41.134767,59.2128162 C40.1041185,57.9580617 37.3112467,55.3428925 31.9136039,55.3428925 C26.2920626,55.3428925 23.4754341,58.3977235 22.543392,59.6720685 C22.4128932,59.8226904 22.2973642,59.9845528 22.2127514,60.1624731 C22.1893203,60.2019751 22.1763028,60.2254195 22.1763028,60.2254195 C22.0829034,60.4759207 22.0129353,60.7370201 22.00903,61.0109659 C22.0057757,61.2476573 22.0266035,61.4875605 22.0988496,61.726179 C22.237159,62.1847892 22.5043402,62.5688911 22.8476725,62.8576099 C22.9830531,62.9774009 24.0511263,63.7944204 26.8013663,62.4702963 L26.7906269,62.4956677 C27.3842179,62.2056643 27.9989622,61.9452071 28.6560127,61.7525138 C31.9715311,60.7781281 35.3788216,61.2842692 38.1599779,62.8723831 C38.7486873,63.2086327 39.4376303,63.3313141 40.089474,63.1395844 C41.5819129,62.7008861 42.1637883,61.0918971 41.6121782,59.8721485" id="Fill-13" fill="#25282C"></path>
                        <path d="M87.4670846,59.8721485 L87.4687117,59.8721485 L87.4657828,59.867331 C87.459925,59.8544849 87.4491856,59.8432444 87.4430025,59.8300772 C87.4221747,59.796677 87.3893059,59.744971 87.3365856,59.668857 C87.2409081,59.5063524 87.1305861,59.3525188 86.9896734,59.2128162 C85.9590249,57.9580617 83.1664784,55.3428925 77.7685101,55.3428925 C72.1469689,55.3428925 69.3303405,58.3977235 68.3982985,59.6720685 C68.2677995,59.8226904 68.1522706,59.9845528 68.0676578,60.1624731 C68.0442267,60.2019751 68.0312093,60.2254195 68.0312093,60.2254195 C67.9381353,60.4759207 67.8678415,60.7370201 67.8639364,61.0109659 C67.8606821,61.2476573 67.8815097,61.4875605 67.9537561,61.726179 C68.0920654,62.1847892 68.3592464,62.5688911 68.702579,62.8576099 C68.8379593,62.9774009 69.9060327,63.7944204 72.656598,62.4702963 L72.6455334,62.4956677 C73.2391243,62.2056643 73.8538684,61.9452071 74.5109191,61.7525138 C77.8264373,60.7781281 81.2337278,61.2842692 84.0148841,62.8723831 C84.6035936,63.2086327 85.2925368,63.3313141 85.9443804,63.1395844 C87.4371447,62.7008861 88.0186947,61.0918971 87.4670846,59.8721485" id="Fill-14" fill="#25282C"></path>
                        <g id="Group">
                            <path d="M30.3136095,24.1855072 C29.2650875,28.6653795 27.9487179,37.357971 27.9487179,37.357971 L82.7712032,37.357971 C82.7712032,37.357971 78.5401482,8.4713807 68.3668639,2.59130435 C63.173331,-0.356318006 41.4670143,-0.794760327 29.2386588,2.59130435 C17.7445079,5.8344198 4.94477318,30.6637681 4.94477318,30.6637681 C4.94477318,30.6637681 12.9918172,20.137271 19.3491124,17.7072464 C25.1917872,15.7229327 36.5483235,12.9565217 36.5483235,12.9565217 C36.5483235,12.9565217 31.2997043,20.4863524 30.3136095,24.1855072 L30.3136095,24.1855072 Z" id="Path-16" fill="#C50000"></path>
                            <path d="M79.5663282,34.1017625 C74.8614206,34.1017625 73.9246269,36.3919138 73.9246269,36.3919138 C73.9246269,36.391914 71.4473103,34.1017625 68.6253515,34.1017625 C63.3807924,34.1017625 63.6725203,36.3919138 63.6725203,36.3919138 C63.6725203,36.391914 61.7677863,34.8225849 58.4504752,34.8225849 C55.133164,34.8225849 54.0598326,36.5924123 54.0598326,36.3919138 C54.0598326,36.1914155 52.5433429,34.8225849 48.3061477,34.8225849 C44.0689522,34.8225849 44.0689522,36.4895842 44.0689522,36.3919138 C44.0689522,36.2942435 42.4993389,35.1244656 38.8003166,35.1244656 C35.1012943,35.1244656 34.3516396,37.2001818 34.3516396,36.9661503 C34.3516396,36.7321186 32.5087947,35.6857899 28.463695,35.6897341 C25.533262,35.6925912 24.0614546,38.4888634 24.3751136,40.5979152 C24.6887726,42.7069672 26.1560483,43.7833929 29.2573773,43.7833927 C32.3587064,43.7833925 34.3516396,42.4842293 34.3516396,42.4842293 C34.3516396,42.4842293 36.1875702,43.790985 39.2242171,43.7833925 C42.2608641,43.7758002 44.0689522,41.96622 44.0689522,41.9294148 C44.0689522,41.9294148 45.1854228,43.7833907 49.3277986,43.7833927 C52.311363,43.783394 54.0598326,41.9294148 54.0598326,41.9294148 C54.0598326,41.9294148 55.8231381,43.7833927 59.0492302,43.7833927 C62.2114568,43.7833927 63.6725203,41.9294148 63.6725203,41.9294148 C63.6725203,41.9294148 64.9959968,43.7833927 68.2465309,43.7833927 C71.4970651,43.7833927 73.9246269,42.4842293 73.9246269,42.4842293 C73.9246258,42.4842295 76.2947934,43.7833925 79.1613349,43.7833925 C82.0278765,43.7833925 83.5382271,41.8654843 84.146509,40.5979152 C84.754791,39.3303463 84.271236,34.1017625 79.5663282,34.1017625 L79.5663282,34.1017625 Z" id="Path-14-Copy" fill="#FFFFFF" transform="translate(54.344958, 38.942594) scale(1, -1) translate(-54.344958, -38.942594) "></path>
                            <path d="M30.8705857,122.953655 C30.7884066,124.022922 30.6881661,126.027143 30.6881661,126.027143 C30.6881661,126.027143 30.5615959,126.234397 30.4679902,126.593831 C30.2305482,127.50558 29.8159352,129.249415 29.3464617,129.988626 C28.6359995,131.107286 28.3193121,132.035847 27.0236309,133.078757 C26.5121777,133.490432 26.1876765,133.670767 25.9463452,133.826946 C25.5763039,134.066422 25.3396697,134.182285 24.4387541,134.465942 C23.2523891,134.839474 21.9427227,134.809805 21.0137993,134.817234 C18.9248667,134.833939 13.5419581,133.931196 13.5419581,133.931196 C13.5419581,133.931196 15.4055259,136.807858 16.213026,137.909084 C17.00273,138.98604 19.3439964,141.485313 19.3439964,141.485313 C19.3439964,141.485313 20.5531001,142.721304 21.7843782,144.072327 C22.5376492,144.898856 23.4378224,145.803004 24.0239803,146.35156 C24.6531255,146.940345 25.5867,147.746622 26.4130408,148.353554 C27.2746056,148.986357 29.3464617,148.952292 29.3464617,148.952292 C29.3464617,148.952292 31.3137225,148.908847 33.7666056,148.353554 C36.3495391,147.768819 43.0649738,144.465581 43.0649738,144.465581 C43.0649738,144.465581 47.5606047,143.122578 49.8751536,142.692076 C51.3079494,142.425579 53.0886377,142.28692 54.8466129,142.161993 C56.3071159,142.058206 58.0633356,142.34413 58.0633356,142.34413 C58.0633356,142.34413 63.939856,143.728078 66.8576473,144.657647 C69.3207126,145.442347 73.9760121,147.75993 73.9760121,147.75993 C73.9760121,147.75993 77.0642807,148.952292 79.4993753,148.952292 C81.9344699,148.952292 82.2511781,148.952292 84.0860463,148.018698 C85.9209142,147.085105 87.0190561,146.058794 88.4597915,144.657647 C90.5144716,142.659424 94.4975758,137.561821 94.4975758,137.561821 L97.3732192,133.449896 C97.3732192,133.449896 94.1062097,134.685801 92.0146547,134.915443 C89.9230995,135.145085 86.5116332,134.475962 85.0342106,133.931195 C83.5567879,133.386429 82.5617342,132.87859 81.1730187,130.894382 C80.1613439,129.448893 79.4872497,125.805469 79.2421508,123.790209 C79.1249491,122.826551 79.2421508,121.625186 79.2421508,121.625186 C79.2421508,121.625186 74.0007209,121.949525 66.8576497,122.153823 C62.4263248,122.280562 57.6162633,122.375753 53.6575201,122.344378 C52.6002824,122.335999 51.3856548,122.286612 50.4733671,122.245313 C44.2366006,121.962976 31.7787885,119.623119 31.7787885,119.623119 C31.7787885,119.623119 30.9731296,121.619416 30.8705857,122.953655 L30.8705857,122.953655 Z" id="Path-18" fill="#D81414"></path>
                            <path d="M1.93491124,88.5362319 C1.8091475,89.5967031 1.75078313,90.8366332 1.7199211,92.2072464 C1.45243578,94.5769055 1.4630701,97.2537025 1.7199211,99.5492754 C1.74756834,100.943562 2.00192125,102.16135 2.14990138,103.22029 C2.22478328,105.774865 2.96167809,109.808151 3.65483235,112.937681 C4.42674145,115.50292 5.15976331,117.472464 5.15976331,117.472464 L28.5936884,113.801449 C28.5936884,113.801449 28.4351652,112.515629 28.1637081,111.210145 C27.9985645,109.994519 27.8401851,108.533295 27.7337278,107.53913 C27.430535,106.550981 27.0698275,105.131918 26.6587771,103.652174 C25.7963584,99.9536512 26.0138067,99.9811594 26.0138067,99.9811594 C26.5828927,102.013514 27.4777511,103.584955 28.5936884,108.618841 C29.1839285,111.239179 29.8622415,114.382074 30.3136095,117.04058 C30.5604721,119.498634 30.8586381,122.654059 30.7435897,124.814493 C30.5212846,126.273549 42.0698507,127.010522 54.3925049,127.405797 C66.6411965,127.744551 79.3313609,124.382609 79.3313609,124.382609 C79.3313609,124.382609 79.1519545,122.340267 79.3313609,119.847826 C79.6443006,117.61655 79.9516114,114.90651 80.4063116,112.505797 C80.8129027,110.581284 81.3847666,108.758212 81.6962525,107.53913 C82.4097819,105.384126 84.061144,100.413043 84.061144,100.413043 C84.061144,100.413043 84.0155523,101.230589 83.6311637,102.788406 C83.1007871,104.658813 82.7137808,106.564187 82.3412229,107.971014 C81.5876807,111.37606 81.4812623,114.233333 81.4812623,114.233333 C81.4812623,114.233333 89.006661,115.575384 93.0907298,116.176812 C96.8298312,116.847034 105.130178,118.12029 105.130178,118.12029 C105.130178,118.12029 107.460197,111.068779 108.35503,104.3 C108.613781,101.566028 108.826975,97.7448918 108.78501,94.1507246 C108.70928,89.3252558 107.925049,85.0811594 107.925049,85.0811594 C107.925049,85.0811594 79.2584038,99.850464 55.8974359,100.413043 C32.5949889,100.845008 2.57988166,84.0014493 2.57988166,84.0014493 C2.57988166,84.0014493 2.20767117,85.8524761 1.93491124,88.5362319 L1.93491124,88.5362319 Z" id="Path-17" fill="#D91414"></path>
                            <path d="M52.6429384,100.259793 L54.882745,100.259793 L57.2065308,100.259793 L57.4829284,125.216511 C57.4977943,126.558798 56.4283259,127.646937 55.0894845,127.646937 L55.0763918,127.646937 L55.0632993,127.646937 C53.7265708,127.646937 52.6429384,126.560664 52.6429384,125.216511 L52.6429384,100.259793 L52.6429384,100.259793 Z" id="Rectangle-5" fill="#FFFFFF"></path>
                            <path d="M30.7324601,124.478463 C30.7324601,124.478463 47.5440326,126.534905 54.3843009,126.534905 C61.8302008,126.534905 79.4860276,124.478463 79.4860276,124.478463 L79.4860276,124.478463 C79.6624928,124.320446 79.8055456,125.354563 79.8055451,126.024506 C79.8055451,126.024506 79.8055451,126.370427 79.8055451,126.024506 C79.8055451,125.620855 79.8055451,126.024506 79.8055451,126.024506 C79.8055456,126.854678 78.8993681,128.250954 77.7497264,129.096951 C77.7497264,129.096951 77.3826994,129.534576 76.7465511,129.645058 C76.1506973,129.748542 74.8418384,128.30837 73.7319572,128.614924 C72.6746202,128.906966 71.3977471,130.42315 70.0111336,130.617027 C68.948423,130.765615 67.2676312,129.146748 66.1249667,129.319246 C64.9413785,129.497922 63.7639698,130.951515 62.5717463,131.059387 C61.1490591,131.188113 59.6428629,129.541112 58.3335943,129.645058 C57.0804701,129.744547 55.8563468,131.059387 54.830898,131.059387 C53.6456225,131.059387 52.184433,129.127044 50.749416,129.319246 C49.7533865,129.452651 48.7028288,130.795689 47.6490428,130.617027 C46.4644417,130.416185 45.3371992,128.703838 44.0873362,128.614924 C43.0793049,128.543214 41.6766739,129.786365 40.7120867,129.645058 C39.2705587,129.433881 37.9607014,128.032514 36.7252462,127.897919 C35.6536768,127.78118 34.4534503,128.732835 33.6603162,128.614924 C32.1770862,128.394422 31.3934366,128.371916 30.7324601,127.897919 C30.0714837,127.423923 30.7324601,127.897919 30.7324601,127.897919 C30.1606214,127.693433 30.0708598,126.426833 30.5315959,125.069995 L30.7324601,124.478463 L30.7324601,124.478463 Z" id="Rectangle-1" fill="#FFFFFF"></path>
                            <path d="M30.040584,116.041771 C30.040584,116.041771 46.9559262,113.168677 55.3805392,113.168677 C63.9173222,113.168677 79.9908505,116.373556 79.9908505,116.373556 L79.6997693,118.333556 C79.6997693,118.333556 63.6758801,119.578434 55.3805405,119.578434 C46.9493664,119.578434 30.3462241,118.506591 30.3462241,118.506591 L30.040584,116.041771 L30.040584,116.041771 Z" id="Rectangle-2" fill="#26292D"></path>
                            <path d="M51.4479787,112.675522 L51.4479787,119.473749 L59.2784613,119.473749 L59.2784613,116.218658 L55.6846326,116.218658 L59.2784611,116.218658 L59.2784613,113.090709 L51.1470226,113.090709" id="Path-20" stroke="#F6C724" stroke-width="0.811522832"></path>
                            <path d="M4.86671266,113.168677 L29.2610289,113.168677 L28.9903056,118.024554 L5.15807938,118.024554 L4.86671266,113.168677 L4.86671266,113.168677 Z" id="Rectangle-3" fill="#FFFFFF" transform="translate(17.063871, 115.596615) rotate(-16.000000) translate(-17.063871, -115.596615) "></path>
                            <path d="M81.0204305,113.884439 L105.414747,114.147624 L104.902554,119.323021 L81.3950371,119.323021 L81.0204305,113.884439 L81.0204305,113.884439 Z" id="Rectangle-3-Copy" fill="#FFFFFF" transform="translate(93.217589, 116.603730) rotate(10.000000) translate(-93.217589, -116.603730) "></path>
                            <ellipse id="Oval-1" fill="#FFFFFF" cx="5.67783143" cy="26.8405154" rx="5.67783143" ry="5.64763677"></ellipse>
                        </g>
                    </g>
                </g>
            </g>
        </g>
        <g id="Logo2_EPS" sketch:type="MSLayerGroup" transform="translate(181.000000, 85.000000)" fill="#25282C">
            <path d="M81.4551066,43.47 C79.2214702,45.71875 76.479489,46.8398438 73.2324639,46.8398438 C70.034953,46.8398438 67.318279,45.71875 65.0846426,43.47 C62.8510063,41.2278125 61.7352884,38.3370313 61.7352884,34.8053125 C61.7352884,31.3217188 62.8510063,28.4495312 65.0846426,26.1767187 C67.318279,23.9060938 70.034953,22.7696875 73.2324639,22.7696875 C76.4310752,22.7696875 79.157652,23.9060938 81.4176959,26.1767187 C83.6755392,28.4495312 84.8055611,31.3217188 84.8055611,34.8053125 C84.8055611,38.3370313 83.6887429,41.2278125 81.4551066,43.47 L81.4551066,43.47 Z M73.2324639,14.5971875 C67.2412571,14.5971875 62.2040219,16.5025 58.118558,20.3098438 C54.0308934,24.1204687 51.9887116,28.9515625 51.9887116,34.8053125 C51.9887116,40.6590625 54.0308934,45.4890625 58.118558,49.2996875 C62.2040219,53.1103125 67.2412571,55.015625 73.2324639,55.015625 C79.273185,55.015625 84.3357273,53.1103125 88.4222915,49.2996875 C92.5077555,45.4890625 94.5510376,40.6590625 94.5510376,34.8053125 C94.5510376,28.9515625 92.495652,24.1204687 88.3848809,20.3098438 C84.2730094,16.5025 79.2214702,14.5971875 73.2324639,14.5971875 L73.2324639,14.5971875 Z" id="Fill-16" sketch:type="MSShapeGroup"></path>
            <path d="M158.585981,29.8090625 C159.14384,27.3896875 160.246354,25.484375 161.896824,24.0964062 C163.545094,22.7084375 165.614784,22.0139062 168.102592,22.0139062 C170.132671,22.0139062 171.845859,22.745625 173.243257,24.2101563 C174.637354,25.6735937 175.361361,27.5395313 175.411975,29.8090625 L158.585981,29.8090625 L158.585981,29.8090625 Z M168.102592,14.5971875 C162.265429,14.5971875 157.519777,16.4784375 153.864536,20.2365625 C150.209295,23.9957812 148.381674,28.853125 148.381674,34.8053125 C148.381674,40.4567188 150.29842,45.2375 154.131912,49.1498437 C157.963204,53.0578125 163.001539,55.015625 169.244718,55.015625 C171.072339,55.015625 172.862549,54.7979688 174.613147,54.3692188 C176.364846,53.9426562 177.797455,53.4745312 178.915373,52.9692188 C180.031091,52.4671875 181.109398,51.8842188 182.151395,51.2290625 C183.193392,50.5739063 183.864583,50.1079687 184.167169,49.8290625 C184.475257,49.5534375 184.703022,49.336875 184.850464,49.1859375 L180.820016,42.5239063 L179.445724,43.58375 C178.583078,44.2914063 177.239596,45.0110937 175.411975,45.7428125 C173.585455,46.475625 171.757834,46.8398438 169.930213,46.8398438 C166.884545,46.8398438 164.2691,45.9298437 162.088279,44.113125 C159.905257,42.2975 158.635495,39.7523438 158.281194,36.4710937 L185.084831,36.4710937 L185.312596,32.9120312 C185.312596,27.6160937 183.790862,23.2389062 180.739693,19.7804687 C177.697326,16.3253125 173.483125,14.5971875 168.102592,14.5971875 L168.102592,14.5971875 Z" id="Fill-17" sketch:type="MSShapeGroup"></path>
            <path d="M262.743856,43.6975 C260.86452,45.8445312 258.528555,46.9164062 255.740361,46.9164062 C252.692492,46.9164062 250.33232,45.7428125 248.658743,43.3967187 C246.982966,41.050625 246.144527,38.2626563 246.144527,35.0317187 C246.144527,30.9979687 247.084194,27.95625 248.961329,25.913125 C250.840665,23.87 253.149122,22.84625 255.891103,22.84625 C258.784928,22.84625 261.117592,23.9585937 262.895699,26.1767187 C264.673806,28.3970312 265.560658,31.3217187 265.560658,34.9584375 C265.560658,38.64 264.620991,41.5526562 262.743856,43.6975 L262.743856,43.6975 Z M258.023511,14.5971875 C256.347734,14.5971875 254.759981,14.8246875 253.262455,15.2775 C251.764928,15.7314062 250.599696,16.2246875 249.762357,16.7540625 C248.923918,17.2845312 248.150398,17.9025 247.438495,18.606875 C246.726592,19.3145312 246.283166,19.8078125 246.107116,20.0834375 C245.928865,20.3623438 245.790226,20.5767188 245.687897,20.7265625 L245.533853,20.7265625 L245.533853,19.2139062 C245.533853,16.7420313 243.91089,15.5039062 240.662765,15.5039062 L222.999433,15.5039062 C220.35868,15.5039062 218.633389,16.7179687 217.822458,19.1373437 L217.603495,19.7739062 L209.904602,42.0273438 L200.766498,19.1373437 C200.258154,17.8259375 199.623273,16.891875 198.861856,16.3373437 C198.101539,15.7828125 197.035335,15.5039062 195.663245,15.5039062 L188.197618,15.5039062 L205.410922,54.0290625 L204.115853,56.9821875 C202.744862,60.2623438 200.612455,61.9007813 197.71863,61.9007813 C195.586223,61.9007813 193.734395,61.0192188 192.159846,59.2517188 L188.431984,66.0635937 L189.571909,67.046875 C190.283812,67.703125 191.451245,68.3582813 193.075307,69.0167187 C194.69937,69.671875 196.424661,70 198.252282,70 C201.30015,70 204.064138,69.1545312 206.554147,67.4635938 C209.037555,65.7726562 210.942197,63.2635937 212.263674,59.9342187 L226.198044,25.0425 C226.552345,24.1335937 227.288455,23.6796875 228.404172,23.6796875 L235.103981,23.6796875 C236.218599,23.6796875 236.779759,24.2342187 236.779759,25.3432812 L236.779759,69.243125 L246.372292,69.243125 L246.372292,53.2721875 C246.372292,51.961875 246.322777,50.8495312 246.221549,49.9428125 L246.372292,49.9428125 L247.438495,51.2290625 C248.150398,52.0373437 249.428962,52.8707813 251.284091,53.7260938 C253.135918,54.5835937 255.206708,55.015625 257.490959,55.015625 C262.666834,55.015625 266.931649,53.1584375 270.282103,49.4495312 C273.631458,45.7428125 275.307235,40.8603125 275.307235,34.8053125 C275.307235,28.8017187 273.732687,23.93125 270.58689,20.1971875 C267.437793,16.463125 263.25,14.5971875 258.023511,14.5971875 L258.023511,14.5971875 Z" id="Fill-18" sketch:type="MSShapeGroup"></path>
            <path d="M309.646918,43.47 C307.413282,45.71875 304.673502,46.8398438 301.426476,46.8398438 C298.227865,46.8398438 295.510091,45.71875 293.278655,43.47 C291.045019,41.2278125 289.926,38.3370313 289.926,34.8053125 C289.926,31.3217188 291.045019,28.4495312 293.278655,26.1767187 C295.510091,23.9060938 298.227865,22.7696875 301.426476,22.7696875 C304.621787,22.7696875 307.351665,23.9060938 309.610608,26.1767187 C311.869552,28.4495312 312.997373,31.3217188 312.997373,34.8053125 C312.997373,38.3370313 311.881655,41.2278125 309.646918,43.47 L309.646918,43.47 Z M301.426476,14.5971875 C295.43527,14.5971875 290.398034,16.5025 286.31147,20.3098438 C282.224906,24.1204687 280.182724,28.9515625 280.182724,34.8053125 C280.182724,40.6590625 282.224906,45.4890625 286.31147,49.2996875 C290.398034,53.1103125 295.43527,55.015625 301.426476,55.015625 C307.466097,55.015625 312.528639,53.1103125 316.615204,49.2996875 C320.700668,45.4890625 322.74395,40.6590625 322.74395,34.8053125 C322.74395,28.9515625 320.688564,24.1204687 316.577793,20.3098438 C312.463721,16.5025 307.413282,14.5971875 301.426476,14.5971875 L301.426476,14.5971875 Z" id="Fill-19" sketch:type="MSShapeGroup"></path>
            <path d="M349.010633,46.0064062 C347.080683,46.0064062 345.319082,45.4890625 343.719226,44.4565625 C342.12047,43.421875 341.318342,41.5165625 341.318342,38.740625 L341.318342,23.1503125 L350.153859,23.1503125 L350.153859,15.5039062 L341.318342,15.5039062 L341.318342,4.9853125 L331.877652,4.9853125 L331.877652,15.5039062 L326.623655,15.5039062 L326.623655,23.1503125 L331.648787,23.1503125 L331.648787,39.9514062 C331.648787,42.4254688 332.043799,44.5823437 332.829423,46.423125 C333.615047,48.2671875 334.582223,49.6792187 335.723248,50.6625 C336.866473,51.6457812 338.22206,52.43875 339.796608,53.0457812 C341.371157,53.6517188 342.767455,54.044375 343.984401,54.2182812 C345.204649,54.3965625 346.47111,54.4851562 347.792586,54.4851562 C348.957818,54.4851562 349.950301,54.4085937 350.760132,54.2554687 L350.760132,45.8565625 L349.010633,46.0064062" id="Fill-20" sketch:type="MSShapeGroup"></path>
            <path d="M34.5234357,5.51578125 L34.5234357,23.1503125 L10.6906458,23.1503125 L10.6906458,5.51578125 C10.6906458,3.74828125 10.2846301,2.45 9.47369906,1.6165625 C8.6605674,0.783125 7.34129154,0.36640625 5.51367085,0.36640625 L0.716304075,0.36640625 L0.716304075,54.105625 L10.6906458,54.105625 L10.6906458,31.5514062 L34.5234357,31.5514062 L34.5234357,54.105625 L44.4977774,54.105625 L44.4977774,0.36640625 L39.701511,0.36640625 C36.2487273,0.36640625 34.5234357,2.0846875 34.5234357,5.51578125" id="Fill-21" sketch:type="MSShapeGroup"></path>
            <path d="M126.301683,14.5971875 C122.799386,14.5971875 119.905561,15.4032812 117.62021,17.0176562 C115.33706,18.6353125 113.662382,20.5001562 112.596179,22.6198437 L112.444335,22.6198437 L112.596179,20.9540625 L112.596179,19.8198437 C112.596179,16.944375 110.895094,15.5039062 107.495125,15.5039062 L103.307332,15.5039062 L103.307332,54.105625 L112.900966,54.105625 L112.900966,36.3945312 C112.900966,34.4771875 113.154038,32.7621875 113.662382,31.2484375 C114.373185,28.8782812 115.65285,26.9729687 117.506878,25.5325 C119.359806,24.0964062 121.553831,23.3767188 124.093354,23.3767188 C126.378705,23.3767188 127.964257,24.0471875 128.85221,25.3826562 C129.740163,26.718125 130.18579,28.6759375 130.18579,31.2484375 L130.18579,48.9595312 C130.18579,50.77625 130.590705,52.0865625 131.402737,52.8959375 C132.214768,53.7009375 133.535144,54.105625 135.362765,54.105625 L139.855345,54.105625 L139.855345,29.2785937 C139.855345,19.4928125 135.336357,14.5971875 126.301683,14.5971875" id="Fill-22" sketch:type="MSShapeGroup"></path>
        </g>
    </g>
</svg>