<?xml version="1.0" encoding="UTF-8" standalone="no"?>
<svg width="798px" height="1397px" viewBox="0 0 798 1397" version="1.1" xmlns="http://www.w3.org/2000/svg" xmlns:xlink="http://www.w3.org/1999/xlink" style="background: #FFFFFF;">
    <!-- Generator: Sketch 43.2 (39069) - http://www.bohemiancoding.com/sketch -->
    <title>cheat-sheet-frontend</title>
    <desc>Created with Sketch.</desc>
    <defs>
        <polygon id="path-1" points="0.0120264317 0.108503401 0.0120264317 24.462559 23.3996278 24.462559 23.3996278 0.108503401 0.0120264317 0.108503401"></polygon>
        <rect id="path-3" x="0" y="0" width="45" height="15" rx="2.82"></rect>
        <polygon id="path-4" points="0.0240528634 0.217006803 0.0240528634 48.9251181 46.7992555 48.9251181 46.7992555 0.217006803 0.0240528634 0.217006803"></polygon>
    </defs>
    <g id="Cheat-Sheet" stroke="none" stroke-width="1" fill="none" fill-rule="evenodd">
        <g id="cheat-sheet-frontend">
            <g id="Logo2_EPS" transform="translate(623.000000, 1353.000000)">
                <g id="Group-3" transform="translate(0.000000, 4.537415)">
                    <mask id="mask-2" fill="white">
                        <use xlink:href="#path-1"></use>
                    </mask>
                    <g id="Clip-2"></g>
                    <path d="M23.3775793,12.007381 C23.2398767,10.0576735 22.7826718,8.19654422 22.0622885,6.46778912 C21.8714692,6.00990476 21.6686233,5.55813605 21.4415242,5.11997959 C22.246293,4.65085034 22.7874824,3.79012245 22.7874824,2.8027415 C22.7874824,1.31486395 21.561989,0.108503401 20.0500661,0.108503401 L3.35176652,0.108503401 C1.84004405,0.108503401 0.61435022,1.31486395 0.61435022,2.8027415 C0.61435022,3.78933333 1.15473789,4.64946939 1.95850441,5.1189932 C1.73140529,5.55695238 1.52875991,6.00852381 1.33794053,6.46621088 C0.617156388,8.19536054 0.159751101,10.0570816 0.0218480176,12.0071837 C0.0114251101,12.2391837 0,12.4711837 0,12.7057483 C0,14.391102 0.278612335,16.011551 0.785726872,17.5300068 C0.936859031,17.9573129 1.22769824,18.6933605 1.58388106,19.1847823 C1.62276652,19.2352857 1.65944714,19.2844082 1.70394493,19.3374762 C1.70915639,19.3435918 1.71436784,19.3504966 1.7195793,19.3566122 C1.87752643,19.5434354 2.06914758,19.7436735 2.29965419,19.9421361 C2.53236564,20.1409932 2.80175771,20.3396531 3.10843172,20.5055646 C3.41169824,20.6708844 3.76527533,20.8042449 4.11424229,20.8486327 C4.47964537,20.9001224 4.86489207,20.8383741 5.15913877,20.6351769 C5.4589978,20.4371088 5.67346916,20.0900952 5.79754185,19.698102 C6.0450859,18.9034626 6.01762555,18.0032789 5.94185903,17.1891088 C5.85887665,16.3682313 5.70774449,15.605551 5.55781498,14.9572925 C5.25314537,13.6601837 4.95428855,12.8178027 4.95428855,12.8178027 C4.95428855,12.8178027 5.31127313,13.6367075 5.70854626,14.9178367 C5.90497797,15.5587959 6.11143172,16.3157551 6.25494714,17.1480748 C6.38763877,17.9790136 6.49467401,18.8943878 6.27839868,19.8298844 C6.16735463,20.2895442 5.93584581,20.7744558 5.51411894,21.1019388 C5.09199119,21.4351429 4.56423128,21.5383197 4.09038987,21.5495646 C3.59149339,21.5529184 3.14851982,21.4408639 2.746837,21.2903401 C2.69792952,21.2717959 2.65623789,21.2477279 2.60853304,21.228 C3.34314758,22.3183605 4.21787004,23.3069252 5.20143172,24.1796871 C5.72618502,24.4635714 6.58106388,24.6734762 7.71335242,24.0946599 C9.68789207,23.0855782 11.6624317,22.9735238 11.6624317,22.9735238 C11.6624317,22.9735238 13.6367709,23.0855782 15.6113106,24.0946599 C16.937826,24.7727075 17.8839053,24.3690748 18.3631586,24.0311361 C19.2763656,23.1970408 20.0929604,22.2625306 20.7848811,21.2370748 C20.7405837,21.2554218 20.7016982,21.2779116 20.6561982,21.2952721 C20.2545154,21.4457959 19.8115419,21.5578503 19.3126454,21.5544966 C18.838804,21.5430544 18.3110441,21.4400748 17.8889163,21.1068707 C17.4671894,20.7791905 17.2356806,20.2944762 17.1246366,19.8348163 C16.9083612,18.8991224 17.015196,17.9839456 17.1480881,17.1530068 C17.2916035,16.3204898 17.4980573,15.5637279 17.694489,14.9227687 C18.0917621,13.6414422 18.4487467,12.8225374 18.4487467,12.8225374 C18.4487467,12.8225374 18.1498899,13.6649184 17.8452203,14.9622245 C17.6952907,15.6102857 17.5441586,16.3731633 17.4611762,17.1940408 C17.3854097,18.0082109 17.3579493,18.9083946 17.6054934,19.7028367 C17.7295661,20.0950272 17.9440374,20.4418435 18.2438965,20.6401088 C18.5381432,20.8433061 18.9235903,20.9050544 19.288793,20.8533673 C19.6377599,20.8091769 19.991337,20.675619 20.2946035,20.5104966 C20.6012775,20.3443878 20.8706696,20.1457279 21.1033811,19.947068 C21.4164692,19.6773878 21.6535903,19.4073129 21.8355903,19.1688027 C22.1196145,18.7710884 22.3609449,18.2218639 22.5220991,17.8014626 C23.0889449,16.2058707 23.3996278,14.4917143 23.3996278,12.7057483 C23.3996278,12.4711837 23.3882026,12.239381 23.3775793,12.007381" id="Fill-1" fill="#F6C823" mask="url(#mask-2)"></path>
                </g>
                <path d="M9.24511894,9.26480952 C9.24511894,10.6226803 8.12686123,11.7234966 6.74722907,11.7234966 C5.36759692,11.7234966 4.24913877,10.6226803 4.24913877,9.26480952 C4.24913877,7.90693878 5.36759692,6.80612245 6.74722907,6.80612245 C8.12686123,6.80612245 9.24511894,7.90693878 9.24511894,9.26480952" id="Fill-4" fill="#FFFFFF"></path>
                <path d="M3.35176652,5.98859864 C2.59329956,5.98859864 1.97854846,6.59365306 1.97854846,7.34015646 C1.97854846,7.82427891 2.23932159,8.24586395 2.62797577,8.48457143 C3.10322026,7.71636735 3.6335859,6.98505442 4.21686784,6.29832653 C3.98014758,6.1077551 3.68149119,5.98859864 3.35176652,5.98859864" id="Fill-5" fill="#25282C"></path>
                <path d="M20.0500661,5.98859864 C19.7197401,5.98859864 19.4206828,6.10814966 19.1837621,6.2995102 C19.7668436,6.9862381 20.2970088,7.71735374 20.7722533,8.48555782 C21.1619097,8.24704762 21.4234846,7.82506803 21.4234846,7.34015646 C21.4234846,6.59365306 20.808533,5.98859864 20.0500661,5.98859864" id="Fill-6" fill="#25282C"></path>
                <path d="M6.74722907,8.17070068 C6.67005947,8.17070068 6.59489427,8.17839456 6.5223348,8.19319048 C6.5668326,8.27663946 6.59248899,8.37153061 6.59248899,8.47234014 C6.59248899,8.80396599 6.31928855,9.07285714 5.98214758,9.07285714 C5.86909912,9.07285714 5.76346696,9.04208163 5.67246696,8.98921088 C5.64921586,9.07739456 5.6355859,9.16932653 5.6355859,9.26480952 C5.6355859,9.86907483 6.13327974,10.3589184 6.74722907,10.3589184 C7.36117841,10.3589184 7.85887225,9.86907483 7.85887225,9.26480952 C7.85887225,8.66054422 7.36117841,8.17070068 6.74722907,8.17070068" id="Fill-7" fill="#25282C"></path>
                <path d="M19.1502885,9.26480952 C19.1502885,10.6226803 18.0320308,11.7234966 16.6523987,11.7234966 C15.2727665,11.7234966 14.1543084,10.6226803 14.1543084,9.26480952 C14.1543084,7.90693878 15.2727665,6.80612245 16.6523987,6.80612245 C18.0320308,6.80612245 19.1502885,7.90693878 19.1502885,9.26480952" id="Fill-8" fill="#FFFFFF"></path>
                <path d="M16.6523987,8.17070068 C16.5752291,8.17070068 16.5000639,8.17839456 16.4275044,8.19319048 C16.4722026,8.27663946 16.4976586,8.37153061 16.4976586,8.47234014 C16.4976586,8.80396599 16.2244581,9.07285714 15.8873172,9.07285714 C15.7742687,9.07285714 15.6686366,9.04208163 15.5776366,8.98921088 C15.5543855,9.07739456 15.5407555,9.16932653 15.5407555,9.26480952 C15.5407555,9.86907483 16.0384493,10.3589184 16.6523987,10.3589184 C17.266348,10.3589184 17.7640419,9.86907483 17.7640419,9.26480952 C17.7640419,8.66054422 17.266348,8.17070068 16.6523987,8.17070068" id="Fill-9" fill="#25282C"></path>
                <path d="M15.058696,14.0123265 C15.058696,15.8584626 13.5381542,17.3552177 11.6624317,17.3552177 C9.78650881,17.3552177 8.26596696,15.8584626 8.26596696,14.0123265 C8.26596696,12.1659932 9.78650881,10.6694354 11.6624317,10.6694354 C13.5381542,10.6694354 15.058696,12.1659932 15.058696,14.0123265" id="Fill-10" fill="#FFFFFF"></path>
                <path d="M13.4245044,12.1869048 C13.4245044,12.1407415 13.415685,12.0971429 13.4028568,12.0549252 C13.3974449,12.0342109 13.3930352,12.0219796 13.3930352,12.0219796 L13.3926344,12.0219796 C13.3765991,11.9809456 13.355152,11.9428707 13.3286938,11.9083469 L13.3288943,11.9079524 C13.3288943,11.9079524 13.1294559,11.5029388 11.6824758,11.4991905 L11.6824758,11.4987959 C11.6788678,11.4987959 11.6758612,11.4989932 11.6724537,11.4989932 C11.6688458,11.4989932 11.6658392,11.4987959 11.6624317,11.4987959 L11.6624317,11.4991905 C10.8205815,11.5013605 10.4018612,11.6388639 10.1984141,11.7540748 C10.0755441,11.8026054 9.97913216,11.9000612 9.93202863,12.0219796 L9.93142731,12.0219796 C9.93142731,12.0219796 9.92621586,12.036381 9.9200022,12.060449 C9.90837665,12.1008912 9.90015859,12.1427143 9.90015859,12.1869048 C9.90015859,12.1908503 9.90116079,12.1945986 9.90136123,12.1985442 C9.89274229,12.4086463 9.96269604,12.7785442 10.4465595,13.1579116 C10.8887313,13.5045306 11.2336894,13.6333537 11.4419471,13.6822789 L11.4419471,17.3441701 C11.5151079,17.3487075 11.5878678,17.3552177 11.6622313,17.3552177 C11.7365947,17.3552177 11.8095551,17.3487075 11.8827159,17.3441701 L11.8827159,13.6822789 C12.0909736,13.6331565 12.4359317,13.5043333 12.8777026,13.1579116 C13.3595617,12.7801224 13.4309185,12.4116054 13.4231013,12.2011088 C13.4233018,12.1963741 13.4245044,12.1918367 13.4245044,12.1869048" id="Fill-11" fill="#25282C"></path>
                <path d="M6.1974207,3.92880952 L17.1514956,3.92880952 C15.8398128,3.04105442 14.2992269,2.45789796 12.6301586,2.29652381 L13.3008326,0.499312925 C13.3008326,0.499312925 12.8738943,0.149142857 11.6744581,0.149142857 C10.475022,0.149142857 10.0480837,0.499312925 10.0480837,0.499312925 L10.7187577,2.29652381 C9.04968943,2.45770068 7.50910352,3.04105442 6.1974207,3.92880952" id="Fill-12" fill="#F6C823"></path>
                <path d="M1.84365198,22.6083605 C1.84365198,22.6083605 1.66205286,22.3761633 1.46221366,21.983381 C1.26117181,21.5923741 1.05712335,21.0397959 0.926837004,20.4714354 C0.794546256,19.9032721 0.731407489,19.3234694 0.718579295,18.8880748 C0.707154185,18.4520884 0.734814978,18.161102 0.734814978,18.161102 C0.734814978,18.161102 0.756662996,18.2315306 0.786528634,18.3548299 C0.815592511,18.477932 0.857284141,18.6537075 0.906993392,18.8647959 C1.00280396,19.2859864 1.11785683,19.8452721 1.24894493,20.399034 C1.37381938,20.9541769 1.51873789,21.5035986 1.63840088,21.9161088 C1.69913436,22.1232517 1.74984581,22.2956735 1.78532379,22.4164082 C1.82501101,22.5375374 1.84365198,22.6083605 1.84365198,22.6083605" id="Fill-13" fill="#FFFFFF"></path>
                <path d="M18.7824802,19.0979796 C18.7824802,19.0979796 18.7774692,19.293483 18.7466013,19.5771701 C18.7139295,19.8606599 18.6501894,20.2311497 18.5738216,20.5980884 C18.4944471,20.9644354 18.403848,21.3282177 18.3220683,21.6012517 C18.284185,21.7381633 18.238685,21.8510068 18.2156344,21.9314966 C18.1887753,22.0113946 18.1689317,22.056966 18.1689317,22.056966 C18.1689317,22.056966 18.1366608,21.8638299 18.1342555,21.5750136 C18.1330529,21.2867891 18.1715374,20.9050544 18.250511,20.5316054 C18.3304868,20.1583537 18.4497489,19.7945714 18.5637996,19.5298231 C18.6796542,19.2652721 18.7824802,19.0979796 18.7824802,19.0979796" id="Fill-14" fill="#FFFFFF"></path>
                <path d="M3.30807048,4.97320408 C3.30807048,4.97320408 3.10362115,5.05014286 2.83723568,5.20757143 C2.70294053,5.28391837 2.55341189,5.3799932 2.40388326,5.49342857 C2.25315198,5.60528571 2.10502643,5.7382517 1.96872687,5.88147619 C1.82821806,6.02193878 1.71055947,6.18114286 1.59771145,6.33166667 C1.49628855,6.48929252 1.39787225,6.6372517 1.32631498,6.77396599 C1.24573789,6.90634014 1.1894141,7.02431293 1.14812335,7.10717007 C1.10562996,7.18943537 1.07656608,7.23658503 1.07656608,7.23658503 C1.07656608,7.23658503 1.07696696,7.18331973 1.08618722,7.09020408 C1.10061894,6.99886395 1.10001762,6.85997959 1.14952643,6.70570748 C1.18420264,6.54610884 1.25676211,6.36934694 1.34796256,6.18429932 C1.44677974,6.003 1.575663,5.82130612 1.72819824,5.65855102 C2.03868062,5.336 2.4431696,5.11563946 2.76467621,5.03593878 C3.0865837,4.94953061 3.30807048,4.97320408 3.30807048,4.97320408" id="Fill-15" fill="#FFFFFF"></path>
                <g id="Group" transform="translate(30.200000, 7.000000)" fill="#25282C">
                    <path d="M26.769634,14.0283872 C26.0384958,14.7459969 25.1409607,15.1037546 24.0781092,15.1037546 C23.0314651,15.1037546 22.1422138,14.7459969 21.4110757,14.0283872 C20.6799375,13.3128718 20.3147286,12.3903804 20.3147286,11.2633564 C20.3147286,10.1516897 20.6799375,9.23513187 21.4110757,8.50984354 C22.1422138,7.78525327 23.0314651,7.42260911 24.0781092,7.42260911 C25.1251134,7.42260911 26.0176062,7.78525327 26.7573883,8.50984354 C27.4964501,9.23513187 27.8663412,10.1516897 27.8663412,11.2633564 C27.8663412,12.3903804 27.5007721,13.3128718 26.769634,14.0283872 L26.769634,14.0283872 Z M24.0781092,4.8146426 C22.1170022,4.8146426 20.4681596,5.4226562 19.1308611,6.63763632 C17.7928423,7.85366353 17.1243731,9.39533752 17.1243731,11.2633564 C17.1243731,13.1313752 17.7928423,14.6727002 19.1308611,15.8887274 C20.4681596,17.1047546 22.1170022,17.7127682 24.0781092,17.7127682 C26.0554237,17.7127682 27.7125501,17.1047546 29.0502087,15.8887274 C30.3875072,14.6727002 31.0563366,13.1313752 31.0563366,11.2633564 C31.0563366,9.39533752 30.3835454,7.85366353 29.0379631,6.63763632 C27.6920206,5.4226562 26.0384958,4.8146426 24.0781092,4.8146426 L24.0781092,4.8146426 Z" id="Fill-16"></path>
                    <path d="M52.0169507,9.66897855 C52.1995552,8.89691994 52.5604421,8.28890633 53.1006919,7.84598482 C53.6402215,7.40306332 54.3176948,7.18142805 55.1320314,7.18142805 C55.7965388,7.18142805 56.3573181,7.4149304 56.8147297,7.88228414 C57.2710607,8.34928885 57.5080503,8.94473731 57.524618,9.66897855 L52.0169507,9.66897855 L52.0169507,9.66897855 Z M55.1320314,4.8146426 C53.2213477,4.8146426 51.6679493,5.4149775 50.4714759,6.61425118 C49.2750026,7.81387389 48.6767659,9.36392465 48.6767659,11.2633564 C48.6767659,13.0668043 49.3041761,14.5924228 50.5589964,15.84091 C51.8130964,17.088001 53.4622992,17.7127682 55.5058843,17.7127682 C56.104121,17.7127682 56.690112,17.6433108 57.263137,17.5064903 C57.8365222,17.3703679 58.3054591,17.2209822 58.6713884,17.0597295 C59.0365973,16.8995238 59.3895605,16.7134898 59.7306383,16.5044197 C60.071716,16.2953496 60.2914176,16.146662 60.3904634,16.0576588 C60.4913101,15.9697028 60.5658645,15.9005945 60.6141269,15.852428 L59.2948367,13.7264746 L58.8449886,14.0646866 C58.562618,14.2905102 58.1228547,14.5201732 57.524618,14.7536756 C56.9267415,14.9875269 56.3285048,15.1037546 55.7302681,15.1037546 C54.733327,15.1037546 53.8772111,14.81336 53.1633609,14.233618 C52.4487904,13.654225 52.0331582,12.8420277 51.9171846,11.794932 L60.6908423,11.794932 L60.7653968,10.6591821 C60.7653968,8.96916954 60.2672864,7.5723438 59.2685445,6.46870487 C58.272684,5.36611303 56.893246,4.8146426 55.1320314,4.8146426 L55.1320314,4.8146426 Z" id="Fill-17"></path>
                    <path d="M86.111039,14.1009859 C85.4958745,14.7861355 84.7312409,15.1281868 83.8185788,15.1281868 C82.8209174,15.1281868 82.0483601,14.7536756 81.5005467,14.0050021 C80.952013,13.2563286 80.6775661,12.3666463 80.6775661,11.335606 C80.6775661,10.0483762 80.9851483,9.07771847 81.5995925,8.42572684 C82.214757,7.77373522 82.9703865,7.44704134 83.8679216,7.44704134 C84.8151597,7.44704134 85.5787128,7.8020068 86.160742,8.50984354 C86.7427712,9.21837834 87.0330655,10.1516897 87.0330655,11.3122208 C87.0330655,12.4870623 86.7254832,13.4165343 86.111039,14.1009859 L86.111039,14.1009859 Z M84.5659244,4.8146426 C84.0173907,4.8146426 83.4976704,4.88724123 83.0074837,5.03174045 C82.5172969,5.1765887 82.1358805,5.33400209 81.8617938,5.50293354 C81.5873468,5.67221402 81.3341497,5.86941706 81.101122,6.09419362 C80.8680942,6.32001727 80.7229471,6.47743066 80.6653204,6.56538671 C80.6069734,6.65438985 80.5615924,6.7228001 80.528097,6.77061748 L80.4776736,6.77061748 L80.4776736,6.28790633 C80.4776736,5.49909419 79.9464279,5.10399006 78.8832162,5.10399006 L73.1014622,5.10399006 C72.2370624,5.10399006 71.6723212,5.49141549 71.4068784,6.2634741 L71.3352053,6.46661068 L68.8151198,13.5680141 L65.8239364,6.2634741 C65.6575394,5.84498482 65.4497233,5.54691156 65.200488,5.36995238 C64.9516129,5.1929932 64.6026115,5.10399006 64.1534838,5.10399006 L61.7097536,5.10399006 L67.3441995,17.3979414 L66.9202834,18.3403276 C66.4715159,19.3870743 65.773513,19.9099241 64.826275,19.9099241 C64.1282721,19.9099241 63.5221118,19.6286044 63.0067134,19.0645688 L61.7864691,21.2383396 L62.1596016,21.5521193 C62.3926294,21.7615385 62.7747661,21.9706086 63.306372,22.1807258 C63.8379779,22.3897959 64.4027191,22.4945055 65.0009557,22.4945055 C65.9986172,22.4945055 66.9033556,22.2247038 67.7184125,21.6851005 C68.5313085,21.1454971 69.1547568,20.3448179 69.5873169,19.2823647 L74.1484664,8.14789744 C74.26444,7.85785191 74.5053915,7.71300366 74.8706004,7.71300366 L77.0636547,7.71300366 C77.4285034,7.71300366 77.6121884,7.88996285 77.6121884,8.24388121 L77.6121884,22.2529754 L80.7521206,22.2529754 L80.7521206,17.1564113 C80.7521206,16.7382711 80.7359131,16.3833056 80.7027777,16.0939581 L80.7521206,16.0939581 L81.101122,16.5044197 C81.3341497,16.7623543 81.7526633,17.0283166 82.3599042,17.3012595 C82.9660645,17.5749006 83.643898,17.7127682 84.3916038,17.7127682 C86.0858274,17.7127682 87.481833,17.120112 88.5785402,15.9365447 C89.6748873,14.7536756 90.223421,13.1955971 90.223421,11.2633564 C90.223421,9.34752015 89.7080226,7.793281 88.6783064,6.60168603 C87.6475096,5.41009105 86.2767157,4.8146426 84.5659244,4.8146426 L84.5659244,4.8146426 Z" id="Fill-18"></path>
                    <path d="M101.46386,14.0283872 C100.732721,14.7459969 99.8359067,15.1037546 98.7730551,15.1037546 C97.7260509,15.1037546 96.8364395,14.7459969 96.1060216,14.0283872 C95.3748835,13.3128718 95.0085941,12.3903804 95.0085941,11.2633564 C95.0085941,10.1516897 95.3748835,9.23513187 96.1060216,8.50984354 C96.8364395,7.78525327 97.7260509,7.42260911 98.7730551,7.42260911 C99.8189789,7.42260911 100.712552,7.78525327 101.451974,8.50984354 C102.191396,9.23513187 102.560567,10.1516897 102.560567,11.2633564 C102.560567,12.3903804 102.195358,13.3128718 101.46386,14.0283872 L101.46386,14.0283872 Z M98.7730551,4.8146426 C96.8119481,4.8146426 95.1631056,5.4226562 93.8254469,6.63763632 C92.4877882,7.85366353 91.8193191,9.39533752 91.8193191,11.2633564 C91.8193191,13.1313752 92.4877882,14.6727002 93.8254469,15.8887274 C95.1631056,17.1047546 96.8119481,17.7127682 98.7730551,17.7127682 C100.750009,17.7127682 102.407136,17.1047546 103.744795,15.8887274 C105.082093,14.6727002 105.750922,13.1313752 105.750922,11.2633564 C105.750922,9.39533752 105.078131,7.85366353 103.732549,6.63763632 C102.385886,5.4226562 100.732721,4.8146426 98.7730551,4.8146426 L98.7730551,4.8146426 Z" id="Fill-19"></path>
                    <path d="M114.348819,14.8377923 C113.717087,14.8377923 113.14046,14.6727002 112.616778,14.343214 C112.093456,14.0130298 111.830894,13.4050162 111.830894,12.5191732 L111.830894,7.54407221 L114.723032,7.54407221 L114.723032,5.10399006 L111.830894,5.10399006 L111.830894,1.74735008 L108.740665,1.74735008 L108.740665,5.10399006 L107.02087,5.10399006 L107.02087,7.54407221 L108.66575,7.54407221 L108.66575,12.9055515 C108.66575,13.6950617 108.79505,14.3833527 109.052209,14.9707734 C109.309368,15.5592412 109.625955,16.0098414 109.999447,16.3236211 C110.37366,16.6374008 110.817386,16.890449 111.332784,17.0841617 C111.848182,17.2775254 112.305234,17.4028278 112.703578,17.4583239 C113.103003,17.5152161 113.517554,17.5434877 113.950114,17.5434877 C114.331531,17.5434877 114.656401,17.5190555 114.921484,17.470191 L114.921484,14.7899749 L114.348819,14.8377923" id="Fill-20"></path>
                    <path d="M11.4074491,1.91663056 L11.4074491,7.54407221 L3.60624105,7.54407221 L3.60624105,1.91663056 C3.60624105,1.35259498 3.47333959,0.938294087 3.20789682,0.672331763 C2.94173372,0.40636944 2.509894,0.273388278 1.91165732,0.273388278 L0.34133105,0.273388278 L0.34133105,17.4223736 L3.60624105,17.4223736 L3.60624105,10.2249864 L11.4074491,10.2249864 L11.4074491,17.4223736 L14.6723591,17.4223736 L14.6723591,0.273388278 L13.102393,0.273388278 C11.9721903,0.273388278 11.4074491,0.821717425 11.4074491,1.91663056" id="Fill-21"></path>
                    <path d="M41.4493032,4.8146426 C40.302893,4.8146426 39.3556549,5.07187912 38.607589,5.58705024 C37.8602433,6.10326845 37.3120698,6.69836787 36.9630684,7.37479173 L36.9133654,7.37479173 L36.9630684,6.84321612 L36.9630684,6.48127002 C36.9630684,5.5636651 36.4062509,5.10399006 35.2933361,5.10399006 L33.9225422,5.10399006 L33.9225422,17.4223736 L37.0628345,17.4223736 L37.0628345,11.7704997 C37.0628345,11.1586468 37.1456728,10.6113647 37.3120698,10.1283046 C37.5447374,9.37195238 37.9636111,8.76393878 38.5704918,8.30426374 C39.1770123,7.84598482 39.8951845,7.61632182 40.7264489,7.61632182 C41.4745149,7.61632182 41.9935149,7.83027839 42.2841694,8.25644636 C42.5748238,8.68261434 42.7206913,9.30738148 42.7206913,10.1283046 L42.7206913,15.7801784 C42.7206913,16.3599205 42.8532326,16.7780607 43.1190355,17.0363443 C43.3848384,17.2932318 43.8170383,17.4223736 44.415275,17.4223736 L45.8858351,17.4223736 L45.8858351,9.49969806 C45.8858351,6.37690947 44.406631,4.8146426 41.4493032,4.8146426" id="Fill-22"></path>
                </g>
            </g>
            <path d="M24.5,185.5 L775.5,185.5" id="Line" stroke="#E2E8F0" stroke-linecap="square"></path>
            <text id="Pre--processors" font-family="OpenSans, Open Sans" font-size="14" font-weight="normal" fill="#B5B5B5">
                <tspan x="249" y="158">Pre-</tspan>
                <tspan x="249" y="177">processors</tspan>
            </text>
            <text id="Language" font-family="OpenSans, Open Sans" font-size="14" font-weight="normal" fill="#B5B5B5">
                <tspan x="103" y="158">Language</tspan>
            </text>
            <text id="Frameworks-&amp;-Librair" font-family="OpenSans, Open Sans" font-size="14" font-weight="normal" fill="#B5B5B5">
                <tspan x="388" y="158">Frameworks </tspan>
                <tspan x="388" y="177">&amp; Librairies</tspan>
            </text>
            <text id="CSS" font-family="OpenSans-Semibold, Open Sans" font-size="18" font-weight="500" fill="#3685D6">
                <tspan x="103" y="246">CSS</tspan>
            </text>
            <text id="LESS-PostCSS-Sass-St" font-family="OpenSans, Open Sans" font-size="14" font-weight="normal" line-spacing="19" fill="#1F2228">
                <tspan x="249" y="245">LESS</tspan>
                <tspan x="249" y="264">PostCSS</tspan>
                <tspan x="249" y="283">Sass</tspan>
                <tspan x="249" y="302">Stylus</tspan>
            </text>
            <text id="Bootstrap-Foundation" font-family="OpenSans, Open Sans" font-size="14" font-weight="normal" line-spacing="19" fill="#1F2228">
                <tspan x="388" y="245">Bootstrap</tspan>
                <tspan x="388" y="264">Foundation</tspan>
                <tspan x="388" y="283">Material Design Lite</tspan>
                <tspan x="388" y="302">Materialize</tspan>
                <tspan x="388" y="321">Pure.css</tspan>
                <tspan x="388" y="340">Semantic UI</tspan>
                <tspan x="388" y="359">Tachyons</tspan>
            </text>
            <text id="Naming-conventions-&amp;" font-family="OpenSans, Open Sans" font-size="14" font-weight="normal" fill="#B5B5B5">
                <tspan x="564" y="158">Naming conventions </tspan>
                <tspan x="564" y="177">&amp; Methodologies</tspan>
            </text>
            <text id="BEM-ITCSS-OOCSS-SMAC" font-family="OpenSans, Open Sans" font-size="14" font-weight="normal" line-spacing="19" fill="#1F2228">
                <tspan x="564" y="245">BEM</tspan>
                <tspan x="564" y="264">ITCSS</tspan>
                <tspan x="564" y="283">OOCSS</tspan>
                <tspan x="564" y="302">SMACSS</tspan>
            </text>
            <path d="M24.5,478.5 L775.5,478.5" id="Line" stroke="#E2E8F0" stroke-linecap="square"></path>
            <text id="Framework" font-family="OpenSans, Open Sans" font-size="14" font-weight="normal" fill="#B5B5B5">
                <tspan x="249" y="463">Framework</tspan>
            </text>
            <text id="Language" font-family="OpenSans, Open Sans" font-size="14" font-weight="normal" fill="#B5B5B5">
                <tspan x="103" y="463">Language</tspan>
            </text>
            <text id="Testing-framework" font-family="OpenSans, Open Sans" font-size="14" font-weight="normal" fill="#B5B5B5">
                <tspan x="388" y="463">Testing framework</tspan>
            </text>
            <text id="JavaScript" font-family="OpenSans-Semibold, Open Sans" font-size="18" font-weight="500" fill="#3685D6">
                <tspan x="103" y="539">JavaScript</tspan>
            </text>
            <text id="Build-tools-and-task" font-family="OpenSans-Semibold, Open Sans" font-size="18" font-weight="500" fill="#3685D6">
                <tspan x="53" y="897">Build tools and task runners</tspan>
            </text>
            <text id="Angular-Aurelia-Back" font-family="OpenSans, Open Sans" font-size="14" font-weight="normal" line-spacing="19" fill="#1F2228">
                <tspan x="249" y="538">Angular</tspan>
                <tspan x="249" y="557">Aurelia</tspan>
                <tspan x="249" y="576">Backbone.js</tspan>
                <tspan x="249" y="595">choo</tspan>
                <tspan x="249" y="614">cycle.js</tspan>
                <tspan x="249" y="633">Ember.js</tspan>
                <tspan x="249" y="652">Knockout.js</tspan>
                <tspan x="249" y="671">meteor</tspan>
                <tspan x="249" y="690">Polymer</tspan>
                <tspan x="249" y="709">Preact</tspan>
                <tspan x="249" y="728">React</tspan>
                <tspan x="249" y="747">Riot.js</tspan>
                <tspan x="249" y="766">Vue.js</tspan>
            </text>
            <text id="AVA-Chai-Enzyme-Expe" font-family="OpenSans, Open Sans" font-size="14" font-weight="normal" line-spacing="19" fill="#1F2228">
                <tspan x="388" y="538">AVA</tspan>
                <tspan x="388" y="557">Chai</tspan>
                <tspan x="388" y="576">Enzyme</tspan>
                <tspan x="388" y="595">Expect</tspan>
                <tspan x="388" y="614">Jasmine</tspan>
                <tspan x="388" y="633">Jest</tspan>
                <tspan x="388" y="652">Karma</tspan>
                <tspan x="388" y="671">Mocha</tspan>
                <tspan x="388" y="690">Qunit</tspan>
                <tspan x="388" y="709">Sinon.JS</tspan>
            </text>
            <text id="Bundlers" font-family="OpenSans, Open Sans" font-size="14" font-weight="normal" fill="#B5B5B5">
                <tspan x="564" y="463">Bundlers</tspan>
            </text>
            <text id="browserify-Rollup-we" font-family="OpenSans, Open Sans" font-size="14" font-weight="normal" line-spacing="19" fill="#1F2228">
                <tspan x="564" y="538">browserify</tspan>
                <tspan x="564" y="557">Rollup</tspan>
                <tspan x="564" y="576">webpack</tspan>
            </text>
            <text id="Supersets" font-family="OpenSans, Open Sans" font-size="14" font-weight="normal" fill="#B5B5B5">
                <tspan x="688" y="463">Supersets</tspan>
            </text>
            <text id="CoffeeScript-Dart-El" font-family="OpenSans, Open Sans" font-size="14" font-weight="normal" line-spacing="19" fill="#1F2228">
                <tspan x="689" y="538">CoffeeScript</tspan>
                <tspan x="689" y="557">Dart</tspan>
                <tspan x="689" y="576">Elm</tspan>
                <tspan x="689" y="595">TypeScript</tspan>
            </text>
            <rect id="Rectangle-5" stroke="#E2E8F0" x="28.5" y="846.5" width="362" height="247.267761"></rect>
            <text id="Broccoli-Brunch-Grun" font-family="OpenSans, Open Sans" font-size="14" font-weight="normal" line-spacing="19" fill="#1F2228">
                <tspan x="54" y="976">Broccoli</tspan>
                <tspan x="54" y="995">Brunch</tspan>
                <tspan x="54" y="1014">Grunt</tspan>
                <tspan x="54" y="1033">Gulp</tspan>
                <tspan x="54" y="1052">npm-scripts</tspan>
            </text>
            <text id="Bower-npm-Yarn" font-family="OpenSans, Open Sans" font-size="14" font-weight="normal" line-spacing="19" fill="#1F2228">
                <tspan x="428" y="976">Bower</tspan>
                <tspan x="428" y="995">npm</tspan>
                <tspan x="428" y="1014">Yarn</tspan>
            </text>
            <text id="A-build-tool-is-soft" font-family="OpenSans, Open Sans" font-size="14" font-weight="normal" line-spacing="17" fill="#868686">
                <tspan x="54" y="922">A build tool is software that automates the </tspan>
                <tspan x="54" y="939">transformation of source code into a deliverable.</tspan>
            </text>
            <text id="Package-managers" font-family="OpenSans-Semibold, Open Sans" font-size="18" font-weight="500" fill="#3685D6">
                <tspan x="428" y="897">Package managers</tspan>
            </text>
            <text id="Host-packages-and-pr" font-family="OpenSans, Open Sans" font-size="14" font-weight="normal" line-spacing="19" fill="#868686">
                <tspan x="429" y="921">Host packages and provide tools for fetching </tspan>
                <tspan x="429" y="940">them</tspan>
            </text>
            <rect id="Rectangle-5" stroke="#E2E8F0" x="409.5" y="846.5" width="362" height="247.267761"></rect>
            <g id="javascript" transform="translate(31.000000, 526.000000)" fill-rule="nonzero">
                <polygon id="Shape" stroke="#F5B300" points="0 0 0 50 50 50 50 0"></polygon>
                <path d="M38.0555556,22.6904762 C41.0396825,22.6904762 43.1904762,23.7301587 44.7380952,26.452381 L41.0793651,28.8015873 C40.2698413,27.3571429 39.4047619,26.7857143 38.0555556,26.7857143 C36.6825397,26.7857143 35.8095238,27.6587302 35.8095238,28.8015873 C35.8095238,30.2142857 36.6825397,30.7777778 38.6984127,31.6507937 L39.8730159,32.1587302 C43.8650794,33.8650794 46.1190476,35.6111111 46.1190476,39.5396825 C46.1190476,43.7698413 42.7936508,46.0873016 38.3333333,46.0873016 C33.968254,46.0873016 31.1507937,44.0079365 29.7698413,41.2777778 L33.5873016,39.0634921 C34.5952381,40.7063492 35.9047619,41.9126984 38.2222222,41.9126984 C40.1666667,41.9126984 41.4126984,40.9444444 41.4126984,39.5952381 C41.4126984,37.984127 40.1349206,37.4206349 37.9920635,36.4761905 L36.8174603,35.9761905 C33.4285714,34.531746 31.1746032,32.7222222 31.1746032,28.8968254 C31.1746032,25.3730159 33.8571429,22.6904762 38.0555556,22.6904762 L38.0555556,22.6904762 Z M22.531746,22.9603175 L27.2301587,22.9603175 L27.2301587,39 C27.2301587,43.8650794 24.3730159,46.0793651 20.2142857,46.0793651 C16.452381,46.0793651 14.2698413,44.1269841 13.1666667,41.7857143 L16.9920635,39.468254 C17.7301587,40.7777778 18.3968254,41.8888889 20.015873,41.8888889 C21.5555556,41.8888889 22.531746,41.2857143 22.531746,38.9365079 L22.531746,22.9603175 L22.531746,22.9603175 Z" id="Shape" stroke="#1F2228"></path>
            </g>
            <g id="css-3" transform="translate(31.000000, 233.000000)" fill-rule="nonzero">
                <polygon id="Shape" stroke="#264DE4" points="4.62142857 65.1324188 0.0869505494 13.9179106 49.9130494 13.9179106 45.3737637 65.1243962 24.9695055 70.8206143"></polygon>
                <polygon id="Shape" stroke="#1F2228" points="11.8131868 0 19.3681319 0 19.3681319 3.18139479 14.9725275 3.18139479 14.9725275 6.36278957 19.3681319 6.36278957 19.3681319 9.54418434 11.8131868 9.54418434"></polygon>
                <polygon id="Shape" stroke="#1F2228" points="20.8791209 0 28.434066 0 28.434066 2.76643025 24.0384615 2.76643025 24.0384615 3.3197163 28.434066 3.3197163 28.434066 9.68250585 20.8791209 9.68250585 20.8791209 6.77775411 25.2747252 6.77775411 25.2747252 6.22446804 20.8791209 6.22446804"></polygon>
                <polygon id="Shape" stroke="#1F2228" points="29.9450549 0 37.5 0 37.5 2.76643025 33.1043955 2.76643025 33.1043955 3.3197163 37.5 3.3197163 37.5 9.68250585 29.9450549 9.68250585 29.9450549 6.77775411 34.3406594 6.77775411 34.3406594 6.22446804 29.9450549 6.22446804"></polygon>
                <polygon id="Shape" stroke="#264DE4" points="40.6039836 24.3867742 10 24.3867742 10 30.6680924 33.7679945 30.6680924 33.2004121 37.1001811 11 37.1001811 11 43.3813609 25.4282373 43.3813609 32.6594779 43.3813609 31.9354396 51.527668 24.978434 53.4185231 18 51.527668 17.5 46.5 11 46.5 12 56.3845513 24.978434 59.9533848 37.7660715 56.3845513 37.85989 55.3233487 39.3256867 38.7868736 39.4778846 37.1001811"></polygon>
            </g>
            <path d="M29,1235.26776 L770.5,1235.26776" id="Line" stroke="#E2E8F0" stroke-linecap="square"></path>
            <path d="M28,1338 L769.5,1338" id="Line" stroke="#E2E8F0" stroke-linecap="square"></path>
            <path d="M28,1132.80328 L769.5,1132.80328" id="Line" stroke="#E2E8F0" stroke-linecap="square"></path>
            <path d="M28,811 L769.5,811" id="Line" stroke="#E2E8F0" stroke-linecap="square"></path>
            <text id="Bundler" font-family="OpenSans-Semibold, Open Sans" font-size="18" font-weight="500" fill="#3685D6">
                <tspan x="107" y="1180.26776">Bundler</tspan>
            </text>
            <text id="A-JavaScript-bundler" font-family="OpenSans, Open Sans" font-size="14" font-weight="normal" line-spacing="19" fill="#1F2228">
                <tspan x="297" y="1178">A JavaScript bundler is a tool that puts your code and all its </tspan>
                <tspan x="297" y="1197">dependencies together in one JavaScript file</tspan>
            </text>
            <g id="Group-10" transform="translate(37.000000, 1162.267761)">
                <rect id="Rectangle-6" stroke="#3685D6" x="2.375" y="8" width="40.25" height="36.5" rx="2.82"></rect>
                <rect id="Rectangle-7" stroke="#3685D6" x="13.625" y="21.125" width="17.75" height="2.75" rx="1.375"></rect>
                <g id="Rectangle-6">
                    <use fill="#FFFFFF" fill-rule="evenodd" xlink:href="#path-3"></use>
                    <rect stroke="#3685D6" stroke-width="1" x="0.5" y="0.5" width="44" height="14" rx="2.82"></rect>
                </g>
            </g>
            <text id="Supersets" font-family="OpenSans-Semibold, Open Sans" font-size="18" font-weight="500" fill="#3685D6">
                <tspan x="108" y="1278.53552">Supersets</tspan>
            </text>
            <text id="Languages-that-compi" font-family="OpenSans, Open Sans" font-size="14" font-weight="normal" line-spacing="19" fill="#1F2228">
                <tspan x="297" y="1275">Languages that compile to JavaScript.</tspan>
            </text>
            <g id="Group-12" transform="translate(42.000000, 1264.535523)" stroke="#3685D6">
                <path d="M5.98416667,35.28 L3.67291667,35.28 C2.09376842,35.2700954 0.816028288,33.975847 0.80625,32.3762963 L0.80625,3.33925926 C0.816028288,1.73970858 2.09376842,0.445460178 3.67291667,0.435555556 L25.7820833,0.435555556 C27.5155345,0.455175791 28.9160467,1.87378241 28.9354167,3.62962963" id="Shape"></path>
                <path d="M11.4308333,40.5066667 L9.1375,40.5066667 C7.55835175,40.496762 6.28061162,39.2025136 6.27083333,37.602963 L6.27083333,7.07777778 C6.28061162,5.4782271 7.55835175,4.1839787 9.1375,4.17407407 L32.4291667,4.17407407 C34.0083149,4.1839787 35.286055,5.4782271 35.2958333,7.07777778 L35.2958333,9.40074074" id="Shape"></path>
                <path d="M38.9866667,47.1851852 L14.3333333,47.1851852 C12.7541851,47.1752806 11.476445,45.8810322 11.4666667,44.2814815 L11.4666667,12.612963 C11.476445,11.0134123 12.7541851,9.71916388 14.3333333,9.70925926 L38.9866667,9.70925926 C40.5658149,9.71916388 41.843555,11.0134123 41.8533333,12.612963 L41.8533333,44.5718519 C41.8360279,45.3109045 41.5187629,46.010058 40.9762837,46.5045972 C40.4338045,46.9991364 39.7140781,47.2453331 38.9866667,47.1851852 L38.9866667,47.1851852 Z" id="Shape"></path>
                <path d="M14.5841667,34.5 L38.5841667,34.5" id="Shape"></path>
                <path d="M14.5841667,40.5 L38.5841667,40.5" id="Shape"></path>
                <path d="M14.5841667,16.5 L38.5841667,16.5" id="Shape"></path>
                <path d="M14.5841667,22.5 L38.5841667,22.5" id="Shape"></path>
                <path d="M14.5841667,28.5 L38.5841667,28.5" id="Shape"></path>
            </g>
            <rect id="Rectangle" fill="#3685D6" x="0" y="0" width="799" height="110"></rect>
            <text id="Honeypot's-Technical" font-family="OpenSans-Bold, Open Sans" font-size="30" font-weight="bold" fill="#FFFFFF">
                <tspan x="99" y="54">Honeypot's Technical HR Cheat Sheet</tspan>
            </text>
            <text id="Frontend-Terms" font-family="OpenSans, Open Sans" font-size="20" font-weight="normal" fill="#FFFFFF">
                <tspan x="98" y="83">Frontend Terms</tspan>
            </text>
            <g id="Group-13" transform="translate(34.000000, 29.000000)">
                <g id="Group-3" transform="translate(0.000000, 9.074830)">
                    <mask id="mask-5" fill="white">
                        <use xlink:href="#path-4"></use>
                    </mask>
                    <g id="Clip-2"></g>
                    <path d="M46.7551586,24.0147619 C46.4797533,20.1153469 45.5653436,16.3930884 44.1245771,12.9355782 C43.7429383,12.0198095 43.3372467,11.1162721 42.8830485,10.2399592 C44.4925859,9.30170068 45.5749648,7.5802449 45.5749648,5.60548299 C45.5749648,2.62972789 43.123978,0.217006803 40.1001322,0.217006803 L6.70353304,0.217006803 C3.68008811,0.217006803 1.22870044,2.62972789 1.22870044,5.60548299 C1.22870044,7.57866667 2.30947577,9.29893878 3.91700881,10.2379864 C3.46281057,11.1139048 3.05751982,12.0170476 2.67588106,12.9324218 C1.23431278,16.3907211 0.319502203,20.1141633 0.0436960352,24.0143673 C0.0228502203,24.4783673 0,24.9423673 0,25.4114966 C0,28.7822041 0.55722467,32.023102 1.57145374,35.0600136 C1.87371806,35.9146259 2.45539648,37.3867211 3.16776211,38.3695646 C3.24553304,38.4705714 3.31889427,38.5688163 3.40788987,38.6749524 C3.41831278,38.6871837 3.42873568,38.7009932 3.43915859,38.7132245 C3.75505286,39.0868707 4.13829515,39.4873469 4.59930837,39.8842721 C5.06473128,40.2819864 5.60351542,40.6793061 6.21686344,41.0111293 C6.82339648,41.3417687 7.53055066,41.6084898 8.22848458,41.6972653 C8.95929075,41.8002449 9.72978414,41.6767483 10.3182775,41.2703537 C10.9179956,40.8742177 11.3469383,40.1801905 11.5950837,39.3962041 C12.0901718,37.8069252 12.0352511,36.0065578 11.8837181,34.3782177 C11.7177533,32.7364626 11.415489,31.211102 11.11563,29.914585 C10.5062907,27.3203673 9.90857709,25.6356054 9.90857709,25.6356054 C9.90857709,25.6356054 10.6225463,27.273415 11.4170925,29.8356735 C11.8099559,31.1175918 12.2228634,32.6315102 12.5098943,34.2961497 C12.7752775,35.9580272 12.989348,37.7887755 12.5567974,39.6597687 C12.3347093,40.5790884 11.8716916,41.5489116 11.0282379,42.2038776 C10.1839824,42.8702857 9.12846256,43.0766395 8.18077974,43.0991293 C7.18298678,43.1058367 6.29703965,42.8817279 5.49367401,42.5806803 C5.39585903,42.5435918 5.31247577,42.4954558 5.21706608,42.456 C6.68629515,44.6367211 8.43574009,46.6138503 10.4028634,48.3593741 C11.45237,48.9271429 13.1621278,49.3469524 15.4267048,48.1893197 C19.3757841,46.1711565 23.3248634,45.9470476 23.3248634,45.9470476 C23.3248634,45.9470476 27.2735419,46.1711565 31.2226211,48.1893197 C33.875652,49.545415 35.7678106,48.7381497 36.7263172,48.0622721 C38.5527313,46.3940816 40.1859207,44.5250612 41.5697621,42.4741497 C41.4811674,42.5108435 41.4033965,42.5558231 41.3123965,42.5905442 C40.5090308,42.8915918 39.6230837,43.1157007 38.6252907,43.1089932 C37.6776079,43.0861088 36.6220881,42.8801497 35.7778326,42.2137415 C34.9343789,41.558381 34.4713612,40.5889524 34.2492731,39.6696327 C33.8167225,37.7982449 34.0303921,35.9678912 34.2961762,34.3060136 C34.583207,32.6409796 34.9961145,31.1274558 35.388978,29.8455374 C36.1835242,27.2828844 36.8974934,25.6450748 36.8974934,25.6450748 C36.8974934,25.6450748 36.2997797,27.3298367 35.6904405,29.924449 C35.3905815,31.2205714 35.0883172,32.7463265 34.9223524,34.3880816 C34.7708194,36.0164218 34.7158987,37.8167891 35.2109868,39.4056735 C35.4591322,40.1900544 35.8880749,40.8836871 36.487793,41.2802177 C37.0762863,41.6866122 37.8471806,41.8101088 38.5775859,41.7067347 C39.2755198,41.6183537 39.982674,41.3512381 40.589207,41.0209932 C41.2025551,40.6887755 41.7413392,40.2914558 42.2067621,39.8941361 C42.8329383,39.3547755 43.3071806,38.8146259 43.6711806,38.3376054 C44.2392291,37.5421769 44.7218899,36.4437279 45.0441982,35.6029252 C46.1778899,32.4117415 46.7992555,28.9834286 46.7992555,25.4114966 C46.7992555,24.9423673 46.7764053,24.4787619 46.7551586,24.0147619" id="Fill-1" fill="#F6C823" mask="url(#mask-5)"></path>
                </g>
                <path d="M18.4902379,18.529619 C18.4902379,21.2453605 16.2537225,23.4469932 13.4944581,23.4469932 C10.7351938,23.4469932 8.49827753,21.2453605 8.49827753,18.529619 C8.49827753,15.8138776 10.7351938,13.6122449 13.4944581,13.6122449 C16.2537225,13.6122449 18.4902379,15.8138776 18.4902379,18.529619" id="Fill-4" fill="#FFFFFF"></path>
                <path d="M6.70353304,11.9771973 C5.18659912,11.9771973 3.95709692,13.1873061 3.95709692,14.6803129 C3.95709692,15.6485578 4.47864317,16.4917279 5.25595154,16.9691429 C6.20644053,15.4327347 7.26717181,13.9701088 8.43373568,12.5966531 C7.96029515,12.2155102 7.36298238,11.9771973 6.70353304,11.9771973" id="Fill-5" fill="#25282C"></path>
                <path d="M40.1001322,11.9771973 C39.4394802,11.9771973 38.8413656,12.2162993 38.3675242,12.5990204 C39.5336872,13.9724762 40.5940176,15.4347075 41.5445066,16.9711156 C42.3238194,16.4940952 42.8469692,15.6501361 42.8469692,14.6803129 C42.8469692,13.1873061 41.6170661,11.9771973 40.1001322,11.9771973" id="Fill-6" fill="#25282C"></path>
                <path d="M13.4944581,16.3414014 C13.3401189,16.3414014 13.1897885,16.3567891 13.0446696,16.386381 C13.1336652,16.5532789 13.184978,16.7430612 13.184978,16.9446803 C13.184978,17.607932 12.6385771,18.1457143 11.9642952,18.1457143 C11.7381982,18.1457143 11.5269339,18.0841633 11.3449339,17.9784218 C11.2984317,18.1547891 11.2711718,18.3386531 11.2711718,18.529619 C11.2711718,19.7381497 12.2665595,20.7178367 13.4944581,20.7178367 C14.7223568,20.7178367 15.7177445,19.7381497 15.7177445,18.529619 C15.7177445,17.3210884 14.7223568,16.3414014 13.4944581,16.3414014" id="Fill-7" fill="#25282C"></path>
                <path d="M38.3005771,18.529619 C38.3005771,21.2453605 36.0640617,23.4469932 33.3047974,23.4469932 C30.545533,23.4469932 28.3086167,21.2453605 28.3086167,18.529619 C28.3086167,15.8138776 30.545533,13.6122449 33.3047974,13.6122449 C36.0640617,13.6122449 38.3005771,15.8138776 38.3005771,18.529619" id="Fill-8" fill="#FFFFFF"></path>
                <path d="M33.3047974,16.3414014 C33.1504581,16.3414014 33.0001278,16.3567891 32.8550088,16.386381 C32.9444053,16.5532789 32.9953172,16.7430612 32.9953172,16.9446803 C32.9953172,17.607932 32.4489163,18.1457143 31.7746344,18.1457143 C31.5485374,18.1457143 31.3372731,18.0841633 31.1552731,17.9784218 C31.1087709,18.1547891 31.081511,18.3386531 31.081511,18.529619 C31.081511,19.7381497 32.0768987,20.7178367 33.3047974,20.7178367 C34.532696,20.7178367 35.5280837,19.7381497 35.5280837,18.529619 C35.5280837,17.3210884 34.532696,16.3414014 33.3047974,16.3414014" id="Fill-9" fill="#25282C"></path>
                <path d="M30.1173921,28.0246531 C30.1173921,31.7169252 27.0763084,34.7104354 23.3248634,34.7104354 C19.5730176,34.7104354 16.5319339,31.7169252 16.5319339,28.0246531 C16.5319339,24.3319864 19.5730176,21.3388707 23.3248634,21.3388707 C27.0763084,21.3388707 30.1173921,24.3319864 30.1173921,28.0246531" id="Fill-10" fill="#FFFFFF"></path>
                <path d="M26.8490088,24.3738095 C26.8490088,24.281483 26.83137,24.1942857 26.8057137,24.1098503 C26.7948899,24.0684218 26.7860705,24.0439592 26.7860705,24.0439592 L26.7852687,24.0439592 C26.7531982,23.9618912 26.710304,23.8857415 26.6573877,23.8166939 L26.6577885,23.8159048 C26.6577885,23.8159048 26.2589119,23.0058776 23.3649515,22.998381 L23.3649515,22.9975918 C23.3577357,22.9975918 23.3517225,22.9979864 23.3449075,22.9979864 C23.3376916,22.9979864 23.3316784,22.9975918 23.3248634,22.9975918 L23.3248634,22.998381 C21.641163,23.0027211 20.8037225,23.2777279 20.3968282,23.5081497 C20.1510881,23.6052109 19.9582643,23.8001224 19.8640573,24.0439592 L19.8628546,24.0439592 C19.8628546,24.0439592 19.8524317,24.0727619 19.8400044,24.120898 C19.8167533,24.2017823 19.8003172,24.2854286 19.8003172,24.3738095 C19.8003172,24.3817007 19.8023216,24.3891973 19.8027225,24.3970884 C19.7854846,24.8172925 19.9253921,25.5570884 20.8931189,26.3158231 C21.7774626,27.0090612 22.4673789,27.2667075 22.8838943,27.3645578 L22.8838943,34.6883401 C23.0302159,34.697415 23.1757357,34.7104354 23.3244626,34.7104354 C23.4731894,34.7104354 23.6191101,34.697415 23.7654317,34.6883401 L23.7654317,27.3645578 C24.1819471,27.2663129 24.8718634,27.0086667 25.7554053,26.3158231 C26.7191233,25.5602449 26.861837,24.8232109 26.8462026,24.4022177 C26.8466035,24.3927483 26.8490088,24.3836735 26.8490088,24.3738095" id="Fill-11" fill="#25282C"></path>
                <path d="M12.3948414,7.85761905 L34.3029912,7.85761905 C31.6796256,6.08210884 28.5984537,4.91579592 25.2603172,4.59304762 L26.6016652,0.99862585 C26.6016652,0.99862585 25.7477885,0.298285714 23.3489163,0.298285714 C20.9500441,0.298285714 20.0961674,0.99862585 20.0961674,0.99862585 L21.4375154,4.59304762 C18.0993789,4.91540136 15.018207,6.08210884 12.3948414,7.85761905" id="Fill-12" fill="#F6C823"></path>
                <path d="M3.68730396,45.2167211 C3.68730396,45.2167211 3.32410573,44.7523265 2.92442731,43.9667619 C2.52234361,43.1847483 2.1142467,42.0795918 1.85367401,40.9428707 C1.58909251,39.8065442 1.46281498,38.6469388 1.43715859,37.7761497 C1.41430837,36.9041769 1.46962996,36.3222041 1.46962996,36.3222041 C1.46962996,36.3222041 1.51332599,36.4630612 1.57305727,36.7096599 C1.63118502,36.9558639 1.71456828,37.307415 1.81398678,37.7295918 C2.00560793,38.5719728 2.23571366,39.6905442 2.49788987,40.798068 C2.74763877,41.9083537 3.03747577,43.0071973 3.27680176,43.8322177 C3.39826872,44.2465034 3.49969163,44.5913469 3.57064758,44.8328163 C3.65002203,45.0750748 3.68730396,45.2167211 3.68730396,45.2167211" id="Fill-13" fill="#FFFFFF"></path>
                <path d="M37.5649604,38.1959592 C37.5649604,38.1959592 37.5549383,38.586966 37.4932026,39.1543401 C37.427859,39.7213197 37.3003789,40.4622993 37.1476432,41.1961769 C36.9888943,41.9288707 36.807696,42.6564354 36.6441366,43.2025034 C36.56837,43.4763265 36.47737,43.7020136 36.4312687,43.8629932 C36.3775507,44.0227891 36.3378634,44.113932 36.3378634,44.113932 C36.3378634,44.113932 36.2733216,43.7276599 36.268511,43.1500272 C36.2661057,42.5735782 36.3430749,41.8101088 36.501022,41.0632109 C36.6609736,40.3167075 36.8994978,39.5891429 37.1275991,39.0596463 C37.3593084,38.5305442 37.5649604,38.1959592 37.5649604,38.1959592" id="Fill-14" fill="#FFFFFF"></path>
                <path d="M6.61614097,9.94640816 C6.61614097,9.94640816 6.20724229,10.1002857 5.67447137,10.4151429 C5.40588106,10.5678367 5.10682379,10.7599864 4.80776652,10.9868571 C4.50630396,11.2105714 4.21005286,11.4765034 3.93745374,11.7629524 C3.65643612,12.0438776 3.42111894,12.3622857 3.19542291,12.6633333 C2.99257709,12.978585 2.79574449,13.2745034 2.65262996,13.547932 C2.49147577,13.8126803 2.37882819,14.0486259 2.2962467,14.2143401 C2.21125991,14.3788707 2.15313216,14.4731701 2.15313216,14.4731701 C2.15313216,14.4731701 2.15393392,14.3666395 2.17237445,14.1804082 C2.20123789,13.9977279 2.20003524,13.7199592 2.29905286,13.411415 C2.36840529,13.0922177 2.51352423,12.7386939 2.69592511,12.3685986 C2.89355947,12.006 3.15132599,11.6426122 3.45639648,11.317102 C4.07736123,10.672 4.88633921,10.2312789 5.52935242,10.0718776 C6.1731674,9.89906122 6.61614097,9.94640816 6.61614097,9.94640816" id="Fill-15" fill="#FFFFFF"></path>
            </g>
        </g>
    </g>
</svg>